M48
; DRILL file {KiCad 8.0.5} date 2024-10-29T18:24:54-0700
; FORMAT={-:-/ absolute / metric / decimal}
; #@! TF.CreationDate,2024-10-29T18:24:54-07:00
; #@! TF.GenerationSoftware,Kicad,Pcbnew,8.0.5
; #@! TF.FileFunction,NonPlated,1,2,NPTH
FMAT,2
METRIC
; #@! TA.AperFunction,NonPlated,NPTH,ComponentDrill
T1C1.000
%
G90
G05
T1
X56.55Y-142.8
X57.3Y-144.9
X57.45Y-140.775
X58.575Y-147.0
X58.675Y-142.85
X59.2Y-144.8
X59.575Y-140.675
X60.0Y-146.9
X61.675Y-140.425
X61.825Y-143.575
X61.925Y-147.675
X63.3Y-143.475
X63.9Y-146.95
X63.925Y-140.525
X64.675Y-144.875
X66.05Y-142.375
X66.075Y-140.5
X66.475Y-146.075
X67.15Y-143.8
X67.85Y-141.25
M30
