%TF.GenerationSoftware,KiCad,Pcbnew,8.0.5*%
%TF.CreationDate,2024-10-29T18:32:59-07:00*%
%TF.ProjectId,dfiu-ch32v003,64666975-2d63-4683-9332-763030332e6b,rev?*%
%TF.SameCoordinates,Original*%
%TF.FileFunction,Legend,Bot*%
%TF.FilePolarity,Positive*%
%FSLAX46Y46*%
G04 Gerber Fmt 4.6, Leading zero omitted, Abs format (unit mm)*
G04 Created by KiCad (PCBNEW 8.0.5) date 2024-10-29 18:32:59*
%MOMM*%
%LPD*%
G01*
G04 APERTURE LIST*
%ADD10C,0.100000*%
%ADD11C,0.300000*%
%ADD12C,0.000000*%
%ADD13C,0.150000*%
%ADD14C,0.080000*%
%ADD15C,0.120000*%
%ADD16C,0.200000*%
G04 APERTURE END LIST*
D10*
X64968734Y-137749800D02*
X64825877Y-137797419D01*
X64825877Y-137797419D02*
X64587782Y-137797419D01*
X64587782Y-137797419D02*
X64492544Y-137749800D01*
X64492544Y-137749800D02*
X64444925Y-137702180D01*
X64444925Y-137702180D02*
X64397306Y-137606942D01*
X64397306Y-137606942D02*
X64397306Y-137511704D01*
X64397306Y-137511704D02*
X64444925Y-137416466D01*
X64444925Y-137416466D02*
X64492544Y-137368847D01*
X64492544Y-137368847D02*
X64587782Y-137321228D01*
X64587782Y-137321228D02*
X64778258Y-137273609D01*
X64778258Y-137273609D02*
X64873496Y-137225990D01*
X64873496Y-137225990D02*
X64921115Y-137178371D01*
X64921115Y-137178371D02*
X64968734Y-137083133D01*
X64968734Y-137083133D02*
X64968734Y-136987895D01*
X64968734Y-136987895D02*
X64921115Y-136892657D01*
X64921115Y-136892657D02*
X64873496Y-136845038D01*
X64873496Y-136845038D02*
X64778258Y-136797419D01*
X64778258Y-136797419D02*
X64540163Y-136797419D01*
X64540163Y-136797419D02*
X64397306Y-136845038D01*
X63968734Y-137130752D02*
X63968734Y-138130752D01*
X63968734Y-137178371D02*
X63873496Y-137130752D01*
X63873496Y-137130752D02*
X63683020Y-137130752D01*
X63683020Y-137130752D02*
X63587782Y-137178371D01*
X63587782Y-137178371D02*
X63540163Y-137225990D01*
X63540163Y-137225990D02*
X63492544Y-137321228D01*
X63492544Y-137321228D02*
X63492544Y-137606942D01*
X63492544Y-137606942D02*
X63540163Y-137702180D01*
X63540163Y-137702180D02*
X63587782Y-137749800D01*
X63587782Y-137749800D02*
X63683020Y-137797419D01*
X63683020Y-137797419D02*
X63873496Y-137797419D01*
X63873496Y-137797419D02*
X63968734Y-137749800D01*
X62683020Y-137749800D02*
X62778258Y-137797419D01*
X62778258Y-137797419D02*
X62968734Y-137797419D01*
X62968734Y-137797419D02*
X63063972Y-137749800D01*
X63063972Y-137749800D02*
X63111591Y-137654561D01*
X63111591Y-137654561D02*
X63111591Y-137273609D01*
X63111591Y-137273609D02*
X63063972Y-137178371D01*
X63063972Y-137178371D02*
X62968734Y-137130752D01*
X62968734Y-137130752D02*
X62778258Y-137130752D01*
X62778258Y-137130752D02*
X62683020Y-137178371D01*
X62683020Y-137178371D02*
X62635401Y-137273609D01*
X62635401Y-137273609D02*
X62635401Y-137368847D01*
X62635401Y-137368847D02*
X63111591Y-137464085D01*
X61778258Y-137797419D02*
X61778258Y-137273609D01*
X61778258Y-137273609D02*
X61825877Y-137178371D01*
X61825877Y-137178371D02*
X61921115Y-137130752D01*
X61921115Y-137130752D02*
X62111591Y-137130752D01*
X62111591Y-137130752D02*
X62206829Y-137178371D01*
X61778258Y-137749800D02*
X61873496Y-137797419D01*
X61873496Y-137797419D02*
X62111591Y-137797419D01*
X62111591Y-137797419D02*
X62206829Y-137749800D01*
X62206829Y-137749800D02*
X62254448Y-137654561D01*
X62254448Y-137654561D02*
X62254448Y-137559323D01*
X62254448Y-137559323D02*
X62206829Y-137464085D01*
X62206829Y-137464085D02*
X62111591Y-137416466D01*
X62111591Y-137416466D02*
X61873496Y-137416466D01*
X61873496Y-137416466D02*
X61778258Y-137368847D01*
X61302067Y-137797419D02*
X61302067Y-136797419D01*
X61206829Y-137416466D02*
X60921115Y-137797419D01*
X60921115Y-137130752D02*
X61302067Y-137511704D01*
X60111591Y-137749800D02*
X60206829Y-137797419D01*
X60206829Y-137797419D02*
X60397305Y-137797419D01*
X60397305Y-137797419D02*
X60492543Y-137749800D01*
X60492543Y-137749800D02*
X60540162Y-137654561D01*
X60540162Y-137654561D02*
X60540162Y-137273609D01*
X60540162Y-137273609D02*
X60492543Y-137178371D01*
X60492543Y-137178371D02*
X60397305Y-137130752D01*
X60397305Y-137130752D02*
X60206829Y-137130752D01*
X60206829Y-137130752D02*
X60111591Y-137178371D01*
X60111591Y-137178371D02*
X60063972Y-137273609D01*
X60063972Y-137273609D02*
X60063972Y-137368847D01*
X60063972Y-137368847D02*
X60540162Y-137464085D01*
X59635400Y-137797419D02*
X59635400Y-137130752D01*
X59635400Y-137321228D02*
X59587781Y-137225990D01*
X59587781Y-137225990D02*
X59540162Y-137178371D01*
X59540162Y-137178371D02*
X59444924Y-137130752D01*
X59444924Y-137130752D02*
X59349686Y-137130752D01*
X61772306Y-159145038D02*
X61867544Y-159097419D01*
X61867544Y-159097419D02*
X62010401Y-159097419D01*
X62010401Y-159097419D02*
X62153258Y-159145038D01*
X62153258Y-159145038D02*
X62248496Y-159240276D01*
X62248496Y-159240276D02*
X62296115Y-159335514D01*
X62296115Y-159335514D02*
X62343734Y-159525990D01*
X62343734Y-159525990D02*
X62343734Y-159668847D01*
X62343734Y-159668847D02*
X62296115Y-159859323D01*
X62296115Y-159859323D02*
X62248496Y-159954561D01*
X62248496Y-159954561D02*
X62153258Y-160049800D01*
X62153258Y-160049800D02*
X62010401Y-160097419D01*
X62010401Y-160097419D02*
X61915163Y-160097419D01*
X61915163Y-160097419D02*
X61772306Y-160049800D01*
X61772306Y-160049800D02*
X61724687Y-160002180D01*
X61724687Y-160002180D02*
X61724687Y-159668847D01*
X61724687Y-159668847D02*
X61915163Y-159668847D01*
X61296115Y-160097419D02*
X61296115Y-159097419D01*
X61296115Y-159097419D02*
X60724687Y-160097419D01*
X60724687Y-160097419D02*
X60724687Y-159097419D01*
X60248496Y-160097419D02*
X60248496Y-159097419D01*
X60248496Y-159097419D02*
X60010401Y-159097419D01*
X60010401Y-159097419D02*
X59867544Y-159145038D01*
X59867544Y-159145038D02*
X59772306Y-159240276D01*
X59772306Y-159240276D02*
X59724687Y-159335514D01*
X59724687Y-159335514D02*
X59677068Y-159525990D01*
X59677068Y-159525990D02*
X59677068Y-159668847D01*
X59677068Y-159668847D02*
X59724687Y-159859323D01*
X59724687Y-159859323D02*
X59772306Y-159954561D01*
X59772306Y-159954561D02*
X59867544Y-160049800D01*
X59867544Y-160049800D02*
X60010401Y-160097419D01*
X60010401Y-160097419D02*
X60248496Y-160097419D01*
X59516353Y-150047419D02*
X58897306Y-150047419D01*
X58897306Y-150047419D02*
X59230639Y-150428371D01*
X59230639Y-150428371D02*
X59087782Y-150428371D01*
X59087782Y-150428371D02*
X58992544Y-150475990D01*
X58992544Y-150475990D02*
X58944925Y-150523609D01*
X58944925Y-150523609D02*
X58897306Y-150618847D01*
X58897306Y-150618847D02*
X58897306Y-150856942D01*
X58897306Y-150856942D02*
X58944925Y-150952180D01*
X58944925Y-150952180D02*
X58992544Y-150999800D01*
X58992544Y-150999800D02*
X59087782Y-151047419D01*
X59087782Y-151047419D02*
X59373496Y-151047419D01*
X59373496Y-151047419D02*
X59468734Y-150999800D01*
X59468734Y-150999800D02*
X59516353Y-150952180D01*
X58468734Y-150952180D02*
X58421115Y-150999800D01*
X58421115Y-150999800D02*
X58468734Y-151047419D01*
X58468734Y-151047419D02*
X58516353Y-150999800D01*
X58516353Y-150999800D02*
X58468734Y-150952180D01*
X58468734Y-150952180D02*
X58468734Y-151047419D01*
X58087782Y-150047419D02*
X57468735Y-150047419D01*
X57468735Y-150047419D02*
X57802068Y-150428371D01*
X57802068Y-150428371D02*
X57659211Y-150428371D01*
X57659211Y-150428371D02*
X57563973Y-150475990D01*
X57563973Y-150475990D02*
X57516354Y-150523609D01*
X57516354Y-150523609D02*
X57468735Y-150618847D01*
X57468735Y-150618847D02*
X57468735Y-150856942D01*
X57468735Y-150856942D02*
X57516354Y-150952180D01*
X57516354Y-150952180D02*
X57563973Y-150999800D01*
X57563973Y-150999800D02*
X57659211Y-151047419D01*
X57659211Y-151047419D02*
X57944925Y-151047419D01*
X57944925Y-151047419D02*
X58040163Y-150999800D01*
X58040163Y-150999800D02*
X58087782Y-150952180D01*
X69591353Y-161772419D02*
X68972306Y-161772419D01*
X68972306Y-161772419D02*
X69305639Y-162153371D01*
X69305639Y-162153371D02*
X69162782Y-162153371D01*
X69162782Y-162153371D02*
X69067544Y-162200990D01*
X69067544Y-162200990D02*
X69019925Y-162248609D01*
X69019925Y-162248609D02*
X68972306Y-162343847D01*
X68972306Y-162343847D02*
X68972306Y-162581942D01*
X68972306Y-162581942D02*
X69019925Y-162677180D01*
X69019925Y-162677180D02*
X69067544Y-162724800D01*
X69067544Y-162724800D02*
X69162782Y-162772419D01*
X69162782Y-162772419D02*
X69448496Y-162772419D01*
X69448496Y-162772419D02*
X69543734Y-162724800D01*
X69543734Y-162724800D02*
X69591353Y-162677180D01*
X68543734Y-162677180D02*
X68496115Y-162724800D01*
X68496115Y-162724800D02*
X68543734Y-162772419D01*
X68543734Y-162772419D02*
X68591353Y-162724800D01*
X68591353Y-162724800D02*
X68543734Y-162677180D01*
X68543734Y-162677180D02*
X68543734Y-162772419D01*
X68162782Y-161772419D02*
X67543735Y-161772419D01*
X67543735Y-161772419D02*
X67877068Y-162153371D01*
X67877068Y-162153371D02*
X67734211Y-162153371D01*
X67734211Y-162153371D02*
X67638973Y-162200990D01*
X67638973Y-162200990D02*
X67591354Y-162248609D01*
X67591354Y-162248609D02*
X67543735Y-162343847D01*
X67543735Y-162343847D02*
X67543735Y-162581942D01*
X67543735Y-162581942D02*
X67591354Y-162677180D01*
X67591354Y-162677180D02*
X67638973Y-162724800D01*
X67638973Y-162724800D02*
X67734211Y-162772419D01*
X67734211Y-162772419D02*
X68019925Y-162772419D01*
X68019925Y-162772419D02*
X68115163Y-162724800D01*
X68115163Y-162724800D02*
X68162782Y-162677180D01*
X66400877Y-162724800D02*
X66258020Y-162772419D01*
X66258020Y-162772419D02*
X66019925Y-162772419D01*
X66019925Y-162772419D02*
X65924687Y-162724800D01*
X65924687Y-162724800D02*
X65877068Y-162677180D01*
X65877068Y-162677180D02*
X65829449Y-162581942D01*
X65829449Y-162581942D02*
X65829449Y-162486704D01*
X65829449Y-162486704D02*
X65877068Y-162391466D01*
X65877068Y-162391466D02*
X65924687Y-162343847D01*
X65924687Y-162343847D02*
X66019925Y-162296228D01*
X66019925Y-162296228D02*
X66210401Y-162248609D01*
X66210401Y-162248609D02*
X66305639Y-162200990D01*
X66305639Y-162200990D02*
X66353258Y-162153371D01*
X66353258Y-162153371D02*
X66400877Y-162058133D01*
X66400877Y-162058133D02*
X66400877Y-161962895D01*
X66400877Y-161962895D02*
X66353258Y-161867657D01*
X66353258Y-161867657D02*
X66305639Y-161820038D01*
X66305639Y-161820038D02*
X66210401Y-161772419D01*
X66210401Y-161772419D02*
X65972306Y-161772419D01*
X65972306Y-161772419D02*
X65829449Y-161820038D01*
X65496115Y-161772419D02*
X65258020Y-162772419D01*
X65258020Y-162772419D02*
X65067544Y-162058133D01*
X65067544Y-162058133D02*
X64877068Y-162772419D01*
X64877068Y-162772419D02*
X64638973Y-161772419D01*
X64258020Y-162772419D02*
X64258020Y-161772419D01*
X63591354Y-161772419D02*
X63400878Y-161772419D01*
X63400878Y-161772419D02*
X63305640Y-161820038D01*
X63305640Y-161820038D02*
X63210402Y-161915276D01*
X63210402Y-161915276D02*
X63162783Y-162105752D01*
X63162783Y-162105752D02*
X63162783Y-162439085D01*
X63162783Y-162439085D02*
X63210402Y-162629561D01*
X63210402Y-162629561D02*
X63305640Y-162724800D01*
X63305640Y-162724800D02*
X63400878Y-162772419D01*
X63400878Y-162772419D02*
X63591354Y-162772419D01*
X63591354Y-162772419D02*
X63686592Y-162724800D01*
X63686592Y-162724800D02*
X63781830Y-162629561D01*
X63781830Y-162629561D02*
X63829449Y-162439085D01*
X63829449Y-162439085D02*
X63829449Y-162105752D01*
X63829449Y-162105752D02*
X63781830Y-161915276D01*
X63781830Y-161915276D02*
X63686592Y-161820038D01*
X63686592Y-161820038D02*
X63591354Y-161772419D01*
X61448497Y-161820038D02*
X61543735Y-161772419D01*
X61543735Y-161772419D02*
X61686592Y-161772419D01*
X61686592Y-161772419D02*
X61829449Y-161820038D01*
X61829449Y-161820038D02*
X61924687Y-161915276D01*
X61924687Y-161915276D02*
X61972306Y-162010514D01*
X61972306Y-162010514D02*
X62019925Y-162200990D01*
X62019925Y-162200990D02*
X62019925Y-162343847D01*
X62019925Y-162343847D02*
X61972306Y-162534323D01*
X61972306Y-162534323D02*
X61924687Y-162629561D01*
X61924687Y-162629561D02*
X61829449Y-162724800D01*
X61829449Y-162724800D02*
X61686592Y-162772419D01*
X61686592Y-162772419D02*
X61591354Y-162772419D01*
X61591354Y-162772419D02*
X61448497Y-162724800D01*
X61448497Y-162724800D02*
X61400878Y-162677180D01*
X61400878Y-162677180D02*
X61400878Y-162343847D01*
X61400878Y-162343847D02*
X61591354Y-162343847D01*
X60972306Y-162772419D02*
X60972306Y-161772419D01*
X60972306Y-161772419D02*
X60400878Y-162772419D01*
X60400878Y-162772419D02*
X60400878Y-161772419D01*
X59924687Y-162772419D02*
X59924687Y-161772419D01*
X59924687Y-161772419D02*
X59686592Y-161772419D01*
X59686592Y-161772419D02*
X59543735Y-161820038D01*
X59543735Y-161820038D02*
X59448497Y-161915276D01*
X59448497Y-161915276D02*
X59400878Y-162010514D01*
X59400878Y-162010514D02*
X59353259Y-162200990D01*
X59353259Y-162200990D02*
X59353259Y-162343847D01*
X59353259Y-162343847D02*
X59400878Y-162534323D01*
X59400878Y-162534323D02*
X59448497Y-162629561D01*
X59448497Y-162629561D02*
X59543735Y-162724800D01*
X59543735Y-162724800D02*
X59686592Y-162772419D01*
X59686592Y-162772419D02*
X59924687Y-162772419D01*
D11*
X72996428Y-130614484D02*
X72782143Y-130685912D01*
X72782143Y-130685912D02*
X72425000Y-130685912D01*
X72425000Y-130685912D02*
X72282143Y-130614484D01*
X72282143Y-130614484D02*
X72210714Y-130543055D01*
X72210714Y-130543055D02*
X72139285Y-130400198D01*
X72139285Y-130400198D02*
X72139285Y-130257341D01*
X72139285Y-130257341D02*
X72210714Y-130114484D01*
X72210714Y-130114484D02*
X72282143Y-130043055D01*
X72282143Y-130043055D02*
X72425000Y-129971626D01*
X72425000Y-129971626D02*
X72710714Y-129900198D01*
X72710714Y-129900198D02*
X72853571Y-129828769D01*
X72853571Y-129828769D02*
X72925000Y-129757341D01*
X72925000Y-129757341D02*
X72996428Y-129614484D01*
X72996428Y-129614484D02*
X72996428Y-129471626D01*
X72996428Y-129471626D02*
X72925000Y-129328769D01*
X72925000Y-129328769D02*
X72853571Y-129257341D01*
X72853571Y-129257341D02*
X72710714Y-129185912D01*
X72710714Y-129185912D02*
X72353571Y-129185912D01*
X72353571Y-129185912D02*
X72139285Y-129257341D01*
X71496429Y-129685912D02*
X71496429Y-131185912D01*
X71496429Y-129757341D02*
X71353572Y-129685912D01*
X71353572Y-129685912D02*
X71067857Y-129685912D01*
X71067857Y-129685912D02*
X70925000Y-129757341D01*
X70925000Y-129757341D02*
X70853572Y-129828769D01*
X70853572Y-129828769D02*
X70782143Y-129971626D01*
X70782143Y-129971626D02*
X70782143Y-130400198D01*
X70782143Y-130400198D02*
X70853572Y-130543055D01*
X70853572Y-130543055D02*
X70925000Y-130614484D01*
X70925000Y-130614484D02*
X71067857Y-130685912D01*
X71067857Y-130685912D02*
X71353572Y-130685912D01*
X71353572Y-130685912D02*
X71496429Y-130614484D01*
X69567857Y-130614484D02*
X69710714Y-130685912D01*
X69710714Y-130685912D02*
X69996429Y-130685912D01*
X69996429Y-130685912D02*
X70139286Y-130614484D01*
X70139286Y-130614484D02*
X70210714Y-130471626D01*
X70210714Y-130471626D02*
X70210714Y-129900198D01*
X70210714Y-129900198D02*
X70139286Y-129757341D01*
X70139286Y-129757341D02*
X69996429Y-129685912D01*
X69996429Y-129685912D02*
X69710714Y-129685912D01*
X69710714Y-129685912D02*
X69567857Y-129757341D01*
X69567857Y-129757341D02*
X69496429Y-129900198D01*
X69496429Y-129900198D02*
X69496429Y-130043055D01*
X69496429Y-130043055D02*
X70210714Y-130185912D01*
X68210715Y-130614484D02*
X68353572Y-130685912D01*
X68353572Y-130685912D02*
X68639286Y-130685912D01*
X68639286Y-130685912D02*
X68782143Y-130614484D01*
X68782143Y-130614484D02*
X68853572Y-130543055D01*
X68853572Y-130543055D02*
X68925000Y-130400198D01*
X68925000Y-130400198D02*
X68925000Y-129971626D01*
X68925000Y-129971626D02*
X68853572Y-129828769D01*
X68853572Y-129828769D02*
X68782143Y-129757341D01*
X68782143Y-129757341D02*
X68639286Y-129685912D01*
X68639286Y-129685912D02*
X68353572Y-129685912D01*
X68353572Y-129685912D02*
X68210715Y-129757341D01*
X67567858Y-130685912D02*
X67567858Y-129685912D01*
X67567858Y-129185912D02*
X67639286Y-129257341D01*
X67639286Y-129257341D02*
X67567858Y-129328769D01*
X67567858Y-129328769D02*
X67496429Y-129257341D01*
X67496429Y-129257341D02*
X67567858Y-129185912D01*
X67567858Y-129185912D02*
X67567858Y-129328769D01*
X66210715Y-130685912D02*
X66210715Y-129900198D01*
X66210715Y-129900198D02*
X66282143Y-129757341D01*
X66282143Y-129757341D02*
X66425000Y-129685912D01*
X66425000Y-129685912D02*
X66710715Y-129685912D01*
X66710715Y-129685912D02*
X66853572Y-129757341D01*
X66210715Y-130614484D02*
X66353572Y-130685912D01*
X66353572Y-130685912D02*
X66710715Y-130685912D01*
X66710715Y-130685912D02*
X66853572Y-130614484D01*
X66853572Y-130614484D02*
X66925000Y-130471626D01*
X66925000Y-130471626D02*
X66925000Y-130328769D01*
X66925000Y-130328769D02*
X66853572Y-130185912D01*
X66853572Y-130185912D02*
X66710715Y-130114484D01*
X66710715Y-130114484D02*
X66353572Y-130114484D01*
X66353572Y-130114484D02*
X66210715Y-130043055D01*
X65282143Y-130685912D02*
X65425000Y-130614484D01*
X65425000Y-130614484D02*
X65496429Y-130471626D01*
X65496429Y-130471626D02*
X65496429Y-129185912D01*
X63782143Y-129685912D02*
X63210715Y-129685912D01*
X63567858Y-129185912D02*
X63567858Y-130471626D01*
X63567858Y-130471626D02*
X63496429Y-130614484D01*
X63496429Y-130614484D02*
X63353572Y-130685912D01*
X63353572Y-130685912D02*
X63210715Y-130685912D01*
X62710715Y-130685912D02*
X62710715Y-129185912D01*
X62067858Y-130685912D02*
X62067858Y-129900198D01*
X62067858Y-129900198D02*
X62139286Y-129757341D01*
X62139286Y-129757341D02*
X62282143Y-129685912D01*
X62282143Y-129685912D02*
X62496429Y-129685912D01*
X62496429Y-129685912D02*
X62639286Y-129757341D01*
X62639286Y-129757341D02*
X62710715Y-129828769D01*
X60710715Y-130685912D02*
X60710715Y-129900198D01*
X60710715Y-129900198D02*
X60782143Y-129757341D01*
X60782143Y-129757341D02*
X60925000Y-129685912D01*
X60925000Y-129685912D02*
X61210715Y-129685912D01*
X61210715Y-129685912D02*
X61353572Y-129757341D01*
X60710715Y-130614484D02*
X60853572Y-130685912D01*
X60853572Y-130685912D02*
X61210715Y-130685912D01*
X61210715Y-130685912D02*
X61353572Y-130614484D01*
X61353572Y-130614484D02*
X61425000Y-130471626D01*
X61425000Y-130471626D02*
X61425000Y-130328769D01*
X61425000Y-130328769D02*
X61353572Y-130185912D01*
X61353572Y-130185912D02*
X61210715Y-130114484D01*
X61210715Y-130114484D02*
X60853572Y-130114484D01*
X60853572Y-130114484D02*
X60710715Y-130043055D01*
X59996429Y-129685912D02*
X59996429Y-130685912D01*
X59996429Y-129828769D02*
X59925000Y-129757341D01*
X59925000Y-129757341D02*
X59782143Y-129685912D01*
X59782143Y-129685912D02*
X59567857Y-129685912D01*
X59567857Y-129685912D02*
X59425000Y-129757341D01*
X59425000Y-129757341D02*
X59353572Y-129900198D01*
X59353572Y-129900198D02*
X59353572Y-130685912D01*
X58639286Y-130685912D02*
X58639286Y-129185912D01*
X58496429Y-130114484D02*
X58067857Y-130685912D01*
X58067857Y-129685912D02*
X58639286Y-130257341D01*
X57496428Y-130614484D02*
X57353571Y-130685912D01*
X57353571Y-130685912D02*
X57067857Y-130685912D01*
X57067857Y-130685912D02*
X56925000Y-130614484D01*
X56925000Y-130614484D02*
X56853571Y-130471626D01*
X56853571Y-130471626D02*
X56853571Y-130400198D01*
X56853571Y-130400198D02*
X56925000Y-130257341D01*
X56925000Y-130257341D02*
X57067857Y-130185912D01*
X57067857Y-130185912D02*
X57282143Y-130185912D01*
X57282143Y-130185912D02*
X57425000Y-130114484D01*
X57425000Y-130114484D02*
X57496428Y-129971626D01*
X57496428Y-129971626D02*
X57496428Y-129900198D01*
X57496428Y-129900198D02*
X57425000Y-129757341D01*
X57425000Y-129757341D02*
X57282143Y-129685912D01*
X57282143Y-129685912D02*
X57067857Y-129685912D01*
X57067857Y-129685912D02*
X56925000Y-129757341D01*
X55282142Y-129685912D02*
X54710714Y-129685912D01*
X55067857Y-129185912D02*
X55067857Y-130471626D01*
X55067857Y-130471626D02*
X54996428Y-130614484D01*
X54996428Y-130614484D02*
X54853571Y-130685912D01*
X54853571Y-130685912D02*
X54710714Y-130685912D01*
X53996428Y-130685912D02*
X54139285Y-130614484D01*
X54139285Y-130614484D02*
X54210714Y-130543055D01*
X54210714Y-130543055D02*
X54282142Y-130400198D01*
X54282142Y-130400198D02*
X54282142Y-129971626D01*
X54282142Y-129971626D02*
X54210714Y-129828769D01*
X54210714Y-129828769D02*
X54139285Y-129757341D01*
X54139285Y-129757341D02*
X53996428Y-129685912D01*
X53996428Y-129685912D02*
X53782142Y-129685912D01*
X53782142Y-129685912D02*
X53639285Y-129757341D01*
X53639285Y-129757341D02*
X53567857Y-129828769D01*
X53567857Y-129828769D02*
X53496428Y-129971626D01*
X53496428Y-129971626D02*
X53496428Y-130400198D01*
X53496428Y-130400198D02*
X53567857Y-130543055D01*
X53567857Y-130543055D02*
X53639285Y-130614484D01*
X53639285Y-130614484D02*
X53782142Y-130685912D01*
X53782142Y-130685912D02*
X53996428Y-130685912D01*
X70603571Y-133100828D02*
X70603571Y-131600828D01*
X70603571Y-131600828D02*
X70246428Y-131600828D01*
X70246428Y-131600828D02*
X70032142Y-131672257D01*
X70032142Y-131672257D02*
X69889285Y-131815114D01*
X69889285Y-131815114D02*
X69817856Y-131957971D01*
X69817856Y-131957971D02*
X69746428Y-132243685D01*
X69746428Y-132243685D02*
X69746428Y-132457971D01*
X69746428Y-132457971D02*
X69817856Y-132743685D01*
X69817856Y-132743685D02*
X69889285Y-132886542D01*
X69889285Y-132886542D02*
X70032142Y-133029400D01*
X70032142Y-133029400D02*
X70246428Y-133100828D01*
X70246428Y-133100828D02*
X70603571Y-133100828D01*
X69103571Y-133100828D02*
X69103571Y-132100828D01*
X69103571Y-132386542D02*
X69032142Y-132243685D01*
X69032142Y-132243685D02*
X68960714Y-132172257D01*
X68960714Y-132172257D02*
X68817856Y-132100828D01*
X68817856Y-132100828D02*
X68674999Y-132100828D01*
X68175000Y-132957971D02*
X68103571Y-133029400D01*
X68103571Y-133029400D02*
X68175000Y-133100828D01*
X68175000Y-133100828D02*
X68246428Y-133029400D01*
X68246428Y-133029400D02*
X68175000Y-132957971D01*
X68175000Y-132957971D02*
X68175000Y-133100828D01*
X65532142Y-131672257D02*
X65675000Y-131600828D01*
X65675000Y-131600828D02*
X65889285Y-131600828D01*
X65889285Y-131600828D02*
X66103571Y-131672257D01*
X66103571Y-131672257D02*
X66246428Y-131815114D01*
X66246428Y-131815114D02*
X66317857Y-131957971D01*
X66317857Y-131957971D02*
X66389285Y-132243685D01*
X66389285Y-132243685D02*
X66389285Y-132457971D01*
X66389285Y-132457971D02*
X66317857Y-132743685D01*
X66317857Y-132743685D02*
X66246428Y-132886542D01*
X66246428Y-132886542D02*
X66103571Y-133029400D01*
X66103571Y-133029400D02*
X65889285Y-133100828D01*
X65889285Y-133100828D02*
X65746428Y-133100828D01*
X65746428Y-133100828D02*
X65532142Y-133029400D01*
X65532142Y-133029400D02*
X65460714Y-132957971D01*
X65460714Y-132957971D02*
X65460714Y-132457971D01*
X65460714Y-132457971D02*
X65746428Y-132457971D01*
X63246428Y-133672257D02*
X63317857Y-133600828D01*
X63317857Y-133600828D02*
X63460714Y-133386542D01*
X63460714Y-133386542D02*
X63532143Y-133243685D01*
X63532143Y-133243685D02*
X63603571Y-133029400D01*
X63603571Y-133029400D02*
X63675000Y-132672257D01*
X63675000Y-132672257D02*
X63675000Y-132386542D01*
X63675000Y-132386542D02*
X63603571Y-132029400D01*
X63603571Y-132029400D02*
X63532143Y-131815114D01*
X63532143Y-131815114D02*
X63460714Y-131672257D01*
X63460714Y-131672257D02*
X63317857Y-131457971D01*
X63317857Y-131457971D02*
X63246428Y-131386542D01*
X62032143Y-132100828D02*
X62032143Y-133315114D01*
X62032143Y-133315114D02*
X62103571Y-133457971D01*
X62103571Y-133457971D02*
X62175000Y-133529400D01*
X62175000Y-133529400D02*
X62317857Y-133600828D01*
X62317857Y-133600828D02*
X62532143Y-133600828D01*
X62532143Y-133600828D02*
X62675000Y-133529400D01*
X62032143Y-133029400D02*
X62175000Y-133100828D01*
X62175000Y-133100828D02*
X62460714Y-133100828D01*
X62460714Y-133100828D02*
X62603571Y-133029400D01*
X62603571Y-133029400D02*
X62675000Y-132957971D01*
X62675000Y-132957971D02*
X62746428Y-132815114D01*
X62746428Y-132815114D02*
X62746428Y-132386542D01*
X62746428Y-132386542D02*
X62675000Y-132243685D01*
X62675000Y-132243685D02*
X62603571Y-132172257D01*
X62603571Y-132172257D02*
X62460714Y-132100828D01*
X62460714Y-132100828D02*
X62175000Y-132100828D01*
X62175000Y-132100828D02*
X62032143Y-132172257D01*
X60746428Y-133029400D02*
X60889285Y-133100828D01*
X60889285Y-133100828D02*
X61175000Y-133100828D01*
X61175000Y-133100828D02*
X61317857Y-133029400D01*
X61317857Y-133029400D02*
X61389285Y-132886542D01*
X61389285Y-132886542D02*
X61389285Y-132315114D01*
X61389285Y-132315114D02*
X61317857Y-132172257D01*
X61317857Y-132172257D02*
X61175000Y-132100828D01*
X61175000Y-132100828D02*
X60889285Y-132100828D01*
X60889285Y-132100828D02*
X60746428Y-132172257D01*
X60746428Y-132172257D02*
X60675000Y-132315114D01*
X60675000Y-132315114D02*
X60675000Y-132457971D01*
X60675000Y-132457971D02*
X61389285Y-132600828D01*
X59460714Y-133029400D02*
X59603571Y-133100828D01*
X59603571Y-133100828D02*
X59889286Y-133100828D01*
X59889286Y-133100828D02*
X60032143Y-133029400D01*
X60032143Y-133029400D02*
X60103571Y-132886542D01*
X60103571Y-132886542D02*
X60103571Y-132315114D01*
X60103571Y-132315114D02*
X60032143Y-132172257D01*
X60032143Y-132172257D02*
X59889286Y-132100828D01*
X59889286Y-132100828D02*
X59603571Y-132100828D01*
X59603571Y-132100828D02*
X59460714Y-132172257D01*
X59460714Y-132172257D02*
X59389286Y-132315114D01*
X59389286Y-132315114D02*
X59389286Y-132457971D01*
X59389286Y-132457971D02*
X60103571Y-132600828D01*
X58532143Y-133100828D02*
X58675000Y-133029400D01*
X58675000Y-133029400D02*
X58746429Y-132886542D01*
X58746429Y-132886542D02*
X58746429Y-131600828D01*
X57960715Y-133100828D02*
X57960715Y-132100828D01*
X57960715Y-131600828D02*
X58032143Y-131672257D01*
X58032143Y-131672257D02*
X57960715Y-131743685D01*
X57960715Y-131743685D02*
X57889286Y-131672257D01*
X57889286Y-131672257D02*
X57960715Y-131600828D01*
X57960715Y-131600828D02*
X57960715Y-131743685D01*
X57246429Y-132100828D02*
X57246429Y-133100828D01*
X57246429Y-132243685D02*
X57175000Y-132172257D01*
X57175000Y-132172257D02*
X57032143Y-132100828D01*
X57032143Y-132100828D02*
X56817857Y-132100828D01*
X56817857Y-132100828D02*
X56675000Y-132172257D01*
X56675000Y-132172257D02*
X56603572Y-132315114D01*
X56603572Y-132315114D02*
X56603572Y-133100828D01*
X56103571Y-132100828D02*
X55532143Y-132100828D01*
X55889286Y-131600828D02*
X55889286Y-132886542D01*
X55889286Y-132886542D02*
X55817857Y-133029400D01*
X55817857Y-133029400D02*
X55675000Y-133100828D01*
X55675000Y-133100828D02*
X55532143Y-133100828D01*
X55175000Y-133672257D02*
X55103571Y-133600828D01*
X55103571Y-133600828D02*
X54960714Y-133386542D01*
X54960714Y-133386542D02*
X54889286Y-133243685D01*
X54889286Y-133243685D02*
X54817857Y-133029400D01*
X54817857Y-133029400D02*
X54746428Y-132672257D01*
X54746428Y-132672257D02*
X54746428Y-132386542D01*
X54746428Y-132386542D02*
X54817857Y-132029400D01*
X54817857Y-132029400D02*
X54889286Y-131815114D01*
X54889286Y-131815114D02*
X54960714Y-131672257D01*
X54960714Y-131672257D02*
X55103571Y-131457971D01*
X55103571Y-131457971D02*
X55175000Y-131386542D01*
X79778572Y-98795996D02*
X79492858Y-99795996D01*
X79492858Y-99795996D02*
X79207143Y-99081710D01*
X79207143Y-99081710D02*
X78921429Y-99795996D01*
X78921429Y-99795996D02*
X78635715Y-98795996D01*
X78207143Y-98795996D02*
X77921429Y-99795996D01*
X77921429Y-99795996D02*
X77635714Y-99081710D01*
X77635714Y-99081710D02*
X77350000Y-99795996D01*
X77350000Y-99795996D02*
X77064286Y-98795996D01*
X76635714Y-98795996D02*
X76350000Y-99795996D01*
X76350000Y-99795996D02*
X76064285Y-99081710D01*
X76064285Y-99081710D02*
X75778571Y-99795996D01*
X75778571Y-99795996D02*
X75492857Y-98795996D01*
X74921428Y-99653139D02*
X74849999Y-99724568D01*
X74849999Y-99724568D02*
X74921428Y-99795996D01*
X74921428Y-99795996D02*
X74992856Y-99724568D01*
X74992856Y-99724568D02*
X74921428Y-99653139D01*
X74921428Y-99653139D02*
X74921428Y-99795996D01*
X73707142Y-99010282D02*
X73492856Y-99081710D01*
X73492856Y-99081710D02*
X73421427Y-99153139D01*
X73421427Y-99153139D02*
X73349999Y-99295996D01*
X73349999Y-99295996D02*
X73349999Y-99510282D01*
X73349999Y-99510282D02*
X73421427Y-99653139D01*
X73421427Y-99653139D02*
X73492856Y-99724568D01*
X73492856Y-99724568D02*
X73635713Y-99795996D01*
X73635713Y-99795996D02*
X74207142Y-99795996D01*
X74207142Y-99795996D02*
X74207142Y-98295996D01*
X74207142Y-98295996D02*
X73707142Y-98295996D01*
X73707142Y-98295996D02*
X73564285Y-98367425D01*
X73564285Y-98367425D02*
X73492856Y-98438853D01*
X73492856Y-98438853D02*
X73421427Y-98581710D01*
X73421427Y-98581710D02*
X73421427Y-98724568D01*
X73421427Y-98724568D02*
X73492856Y-98867425D01*
X73492856Y-98867425D02*
X73564285Y-98938853D01*
X73564285Y-98938853D02*
X73707142Y-99010282D01*
X73707142Y-99010282D02*
X74207142Y-99010282D01*
X72707142Y-99795996D02*
X72707142Y-98795996D01*
X72707142Y-98295996D02*
X72778570Y-98367425D01*
X72778570Y-98367425D02*
X72707142Y-98438853D01*
X72707142Y-98438853D02*
X72635713Y-98367425D01*
X72635713Y-98367425D02*
X72707142Y-98295996D01*
X72707142Y-98295996D02*
X72707142Y-98438853D01*
X71349999Y-98795996D02*
X71349999Y-100010282D01*
X71349999Y-100010282D02*
X71421427Y-100153139D01*
X71421427Y-100153139D02*
X71492856Y-100224568D01*
X71492856Y-100224568D02*
X71635713Y-100295996D01*
X71635713Y-100295996D02*
X71849999Y-100295996D01*
X71849999Y-100295996D02*
X71992856Y-100224568D01*
X71349999Y-99724568D02*
X71492856Y-99795996D01*
X71492856Y-99795996D02*
X71778570Y-99795996D01*
X71778570Y-99795996D02*
X71921427Y-99724568D01*
X71921427Y-99724568D02*
X71992856Y-99653139D01*
X71992856Y-99653139D02*
X72064284Y-99510282D01*
X72064284Y-99510282D02*
X72064284Y-99081710D01*
X72064284Y-99081710D02*
X71992856Y-98938853D01*
X71992856Y-98938853D02*
X71921427Y-98867425D01*
X71921427Y-98867425D02*
X71778570Y-98795996D01*
X71778570Y-98795996D02*
X71492856Y-98795996D01*
X71492856Y-98795996D02*
X71349999Y-98867425D01*
X70135713Y-99010282D02*
X70635713Y-99010282D01*
X70635713Y-99795996D02*
X70635713Y-98295996D01*
X70635713Y-98295996D02*
X69921427Y-98295996D01*
X68707142Y-98795996D02*
X68707142Y-99795996D01*
X69349999Y-98795996D02*
X69349999Y-99581710D01*
X69349999Y-99581710D02*
X69278570Y-99724568D01*
X69278570Y-99724568D02*
X69135713Y-99795996D01*
X69135713Y-99795996D02*
X68921427Y-99795996D01*
X68921427Y-99795996D02*
X68778570Y-99724568D01*
X68778570Y-99724568D02*
X68707142Y-99653139D01*
X67349999Y-99724568D02*
X67492856Y-99795996D01*
X67492856Y-99795996D02*
X67778570Y-99795996D01*
X67778570Y-99795996D02*
X67921427Y-99724568D01*
X67921427Y-99724568D02*
X67992856Y-99653139D01*
X67992856Y-99653139D02*
X68064284Y-99510282D01*
X68064284Y-99510282D02*
X68064284Y-99081710D01*
X68064284Y-99081710D02*
X67992856Y-98938853D01*
X67992856Y-98938853D02*
X67921427Y-98867425D01*
X67921427Y-98867425D02*
X67778570Y-98795996D01*
X67778570Y-98795996D02*
X67492856Y-98795996D01*
X67492856Y-98795996D02*
X67349999Y-98867425D01*
X66707142Y-99795996D02*
X66707142Y-98295996D01*
X66564285Y-99224568D02*
X66135713Y-99795996D01*
X66135713Y-98795996D02*
X66707142Y-99367425D01*
X65492856Y-99795996D02*
X65492856Y-98795996D01*
X65492856Y-98295996D02*
X65564284Y-98367425D01*
X65564284Y-98367425D02*
X65492856Y-98438853D01*
X65492856Y-98438853D02*
X65421427Y-98367425D01*
X65421427Y-98367425D02*
X65492856Y-98295996D01*
X65492856Y-98295996D02*
X65492856Y-98438853D01*
X64778570Y-98795996D02*
X64778570Y-99795996D01*
X64778570Y-98938853D02*
X64707141Y-98867425D01*
X64707141Y-98867425D02*
X64564284Y-98795996D01*
X64564284Y-98795996D02*
X64349998Y-98795996D01*
X64349998Y-98795996D02*
X64207141Y-98867425D01*
X64207141Y-98867425D02*
X64135713Y-99010282D01*
X64135713Y-99010282D02*
X64135713Y-99795996D01*
X62778570Y-98795996D02*
X62778570Y-100010282D01*
X62778570Y-100010282D02*
X62849998Y-100153139D01*
X62849998Y-100153139D02*
X62921427Y-100224568D01*
X62921427Y-100224568D02*
X63064284Y-100295996D01*
X63064284Y-100295996D02*
X63278570Y-100295996D01*
X63278570Y-100295996D02*
X63421427Y-100224568D01*
X62778570Y-99724568D02*
X62921427Y-99795996D01*
X62921427Y-99795996D02*
X63207141Y-99795996D01*
X63207141Y-99795996D02*
X63349998Y-99724568D01*
X63349998Y-99724568D02*
X63421427Y-99653139D01*
X63421427Y-99653139D02*
X63492855Y-99510282D01*
X63492855Y-99510282D02*
X63492855Y-99081710D01*
X63492855Y-99081710D02*
X63421427Y-98938853D01*
X63421427Y-98938853D02*
X63349998Y-98867425D01*
X63349998Y-98867425D02*
X63207141Y-98795996D01*
X63207141Y-98795996D02*
X62921427Y-98795996D01*
X62921427Y-98795996D02*
X62778570Y-98867425D01*
X61564284Y-99010282D02*
X61349998Y-99081710D01*
X61349998Y-99081710D02*
X61278569Y-99153139D01*
X61278569Y-99153139D02*
X61207141Y-99295996D01*
X61207141Y-99295996D02*
X61207141Y-99510282D01*
X61207141Y-99510282D02*
X61278569Y-99653139D01*
X61278569Y-99653139D02*
X61349998Y-99724568D01*
X61349998Y-99724568D02*
X61492855Y-99795996D01*
X61492855Y-99795996D02*
X62064284Y-99795996D01*
X62064284Y-99795996D02*
X62064284Y-98295996D01*
X62064284Y-98295996D02*
X61564284Y-98295996D01*
X61564284Y-98295996D02*
X61421427Y-98367425D01*
X61421427Y-98367425D02*
X61349998Y-98438853D01*
X61349998Y-98438853D02*
X61278569Y-98581710D01*
X61278569Y-98581710D02*
X61278569Y-98724568D01*
X61278569Y-98724568D02*
X61349998Y-98867425D01*
X61349998Y-98867425D02*
X61421427Y-98938853D01*
X61421427Y-98938853D02*
X61564284Y-99010282D01*
X61564284Y-99010282D02*
X62064284Y-99010282D01*
X59921427Y-99795996D02*
X59921427Y-99010282D01*
X59921427Y-99010282D02*
X59992855Y-98867425D01*
X59992855Y-98867425D02*
X60135712Y-98795996D01*
X60135712Y-98795996D02*
X60421427Y-98795996D01*
X60421427Y-98795996D02*
X60564284Y-98867425D01*
X59921427Y-99724568D02*
X60064284Y-99795996D01*
X60064284Y-99795996D02*
X60421427Y-99795996D01*
X60421427Y-99795996D02*
X60564284Y-99724568D01*
X60564284Y-99724568D02*
X60635712Y-99581710D01*
X60635712Y-99581710D02*
X60635712Y-99438853D01*
X60635712Y-99438853D02*
X60564284Y-99295996D01*
X60564284Y-99295996D02*
X60421427Y-99224568D01*
X60421427Y-99224568D02*
X60064284Y-99224568D01*
X60064284Y-99224568D02*
X59921427Y-99153139D01*
X58564284Y-99795996D02*
X58564284Y-98295996D01*
X58564284Y-99724568D02*
X58707141Y-99795996D01*
X58707141Y-99795996D02*
X58992855Y-99795996D01*
X58992855Y-99795996D02*
X59135712Y-99724568D01*
X59135712Y-99724568D02*
X59207141Y-99653139D01*
X59207141Y-99653139D02*
X59278569Y-99510282D01*
X59278569Y-99510282D02*
X59278569Y-99081710D01*
X59278569Y-99081710D02*
X59207141Y-98938853D01*
X59207141Y-98938853D02*
X59135712Y-98867425D01*
X59135712Y-98867425D02*
X58992855Y-98795996D01*
X58992855Y-98795996D02*
X58707141Y-98795996D01*
X58707141Y-98795996D02*
X58564284Y-98867425D01*
X57207141Y-98795996D02*
X57207141Y-100010282D01*
X57207141Y-100010282D02*
X57278569Y-100153139D01*
X57278569Y-100153139D02*
X57349998Y-100224568D01*
X57349998Y-100224568D02*
X57492855Y-100295996D01*
X57492855Y-100295996D02*
X57707141Y-100295996D01*
X57707141Y-100295996D02*
X57849998Y-100224568D01*
X57207141Y-99724568D02*
X57349998Y-99795996D01*
X57349998Y-99795996D02*
X57635712Y-99795996D01*
X57635712Y-99795996D02*
X57778569Y-99724568D01*
X57778569Y-99724568D02*
X57849998Y-99653139D01*
X57849998Y-99653139D02*
X57921426Y-99510282D01*
X57921426Y-99510282D02*
X57921426Y-99081710D01*
X57921426Y-99081710D02*
X57849998Y-98938853D01*
X57849998Y-98938853D02*
X57778569Y-98867425D01*
X57778569Y-98867425D02*
X57635712Y-98795996D01*
X57635712Y-98795996D02*
X57349998Y-98795996D01*
X57349998Y-98795996D02*
X57207141Y-98867425D01*
X55921426Y-99724568D02*
X56064283Y-99795996D01*
X56064283Y-99795996D02*
X56349998Y-99795996D01*
X56349998Y-99795996D02*
X56492855Y-99724568D01*
X56492855Y-99724568D02*
X56564283Y-99581710D01*
X56564283Y-99581710D02*
X56564283Y-99010282D01*
X56564283Y-99010282D02*
X56492855Y-98867425D01*
X56492855Y-98867425D02*
X56349998Y-98795996D01*
X56349998Y-98795996D02*
X56064283Y-98795996D01*
X56064283Y-98795996D02*
X55921426Y-98867425D01*
X55921426Y-98867425D02*
X55849998Y-99010282D01*
X55849998Y-99010282D02*
X55849998Y-99153139D01*
X55849998Y-99153139D02*
X56564283Y-99295996D01*
X55207141Y-99653139D02*
X55135712Y-99724568D01*
X55135712Y-99724568D02*
X55207141Y-99795996D01*
X55207141Y-99795996D02*
X55278569Y-99724568D01*
X55278569Y-99724568D02*
X55207141Y-99653139D01*
X55207141Y-99653139D02*
X55207141Y-99795996D01*
X53849998Y-99724568D02*
X53992855Y-99795996D01*
X53992855Y-99795996D02*
X54278569Y-99795996D01*
X54278569Y-99795996D02*
X54421426Y-99724568D01*
X54421426Y-99724568D02*
X54492855Y-99653139D01*
X54492855Y-99653139D02*
X54564283Y-99510282D01*
X54564283Y-99510282D02*
X54564283Y-99081710D01*
X54564283Y-99081710D02*
X54492855Y-98938853D01*
X54492855Y-98938853D02*
X54421426Y-98867425D01*
X54421426Y-98867425D02*
X54278569Y-98795996D01*
X54278569Y-98795996D02*
X53992855Y-98795996D01*
X53992855Y-98795996D02*
X53849998Y-98867425D01*
X52992855Y-99795996D02*
X53135712Y-99724568D01*
X53135712Y-99724568D02*
X53207141Y-99653139D01*
X53207141Y-99653139D02*
X53278569Y-99510282D01*
X53278569Y-99510282D02*
X53278569Y-99081710D01*
X53278569Y-99081710D02*
X53207141Y-98938853D01*
X53207141Y-98938853D02*
X53135712Y-98867425D01*
X53135712Y-98867425D02*
X52992855Y-98795996D01*
X52992855Y-98795996D02*
X52778569Y-98795996D01*
X52778569Y-98795996D02*
X52635712Y-98867425D01*
X52635712Y-98867425D02*
X52564284Y-98938853D01*
X52564284Y-98938853D02*
X52492855Y-99081710D01*
X52492855Y-99081710D02*
X52492855Y-99510282D01*
X52492855Y-99510282D02*
X52564284Y-99653139D01*
X52564284Y-99653139D02*
X52635712Y-99724568D01*
X52635712Y-99724568D02*
X52778569Y-99795996D01*
X52778569Y-99795996D02*
X52992855Y-99795996D01*
X51849998Y-99795996D02*
X51849998Y-98795996D01*
X51849998Y-98938853D02*
X51778569Y-98867425D01*
X51778569Y-98867425D02*
X51635712Y-98795996D01*
X51635712Y-98795996D02*
X51421426Y-98795996D01*
X51421426Y-98795996D02*
X51278569Y-98867425D01*
X51278569Y-98867425D02*
X51207141Y-99010282D01*
X51207141Y-99010282D02*
X51207141Y-99795996D01*
X51207141Y-99010282D02*
X51135712Y-98867425D01*
X51135712Y-98867425D02*
X50992855Y-98795996D01*
X50992855Y-98795996D02*
X50778569Y-98795996D01*
X50778569Y-98795996D02*
X50635712Y-98867425D01*
X50635712Y-98867425D02*
X50564283Y-99010282D01*
X50564283Y-99010282D02*
X50564283Y-99795996D01*
X72349999Y-100710912D02*
X72064285Y-100710912D01*
X72064285Y-100710912D02*
X71921428Y-100782341D01*
X71921428Y-100782341D02*
X71778571Y-100925198D01*
X71778571Y-100925198D02*
X71707142Y-101210912D01*
X71707142Y-101210912D02*
X71707142Y-101710912D01*
X71707142Y-101710912D02*
X71778571Y-101996626D01*
X71778571Y-101996626D02*
X71921428Y-102139484D01*
X71921428Y-102139484D02*
X72064285Y-102210912D01*
X72064285Y-102210912D02*
X72349999Y-102210912D01*
X72349999Y-102210912D02*
X72492857Y-102139484D01*
X72492857Y-102139484D02*
X72635714Y-101996626D01*
X72635714Y-101996626D02*
X72707142Y-101710912D01*
X72707142Y-101710912D02*
X72707142Y-101210912D01*
X72707142Y-101210912D02*
X72635714Y-100925198D01*
X72635714Y-100925198D02*
X72492857Y-100782341D01*
X72492857Y-100782341D02*
X72349999Y-100710912D01*
X71278570Y-101210912D02*
X70707142Y-101210912D01*
X71064285Y-102210912D02*
X71064285Y-100925198D01*
X71064285Y-100925198D02*
X70992856Y-100782341D01*
X70992856Y-100782341D02*
X70849999Y-100710912D01*
X70849999Y-100710912D02*
X70707142Y-100710912D01*
X70421427Y-101210912D02*
X69849999Y-101210912D01*
X70207142Y-102210912D02*
X70207142Y-100925198D01*
X70207142Y-100925198D02*
X70135713Y-100782341D01*
X70135713Y-100782341D02*
X69992856Y-100710912D01*
X69992856Y-100710912D02*
X69849999Y-100710912D01*
X68778570Y-102139484D02*
X68921427Y-102210912D01*
X68921427Y-102210912D02*
X69207142Y-102210912D01*
X69207142Y-102210912D02*
X69349999Y-102139484D01*
X69349999Y-102139484D02*
X69421427Y-101996626D01*
X69421427Y-101996626D02*
X69421427Y-101425198D01*
X69421427Y-101425198D02*
X69349999Y-101282341D01*
X69349999Y-101282341D02*
X69207142Y-101210912D01*
X69207142Y-101210912D02*
X68921427Y-101210912D01*
X68921427Y-101210912D02*
X68778570Y-101282341D01*
X68778570Y-101282341D02*
X68707142Y-101425198D01*
X68707142Y-101425198D02*
X68707142Y-101568055D01*
X68707142Y-101568055D02*
X69421427Y-101710912D01*
X68064285Y-101210912D02*
X68064285Y-102210912D01*
X68064285Y-101353769D02*
X67992856Y-101282341D01*
X67992856Y-101282341D02*
X67849999Y-101210912D01*
X67849999Y-101210912D02*
X67635713Y-101210912D01*
X67635713Y-101210912D02*
X67492856Y-101282341D01*
X67492856Y-101282341D02*
X67421428Y-101425198D01*
X67421428Y-101425198D02*
X67421428Y-102210912D01*
X66778570Y-102139484D02*
X66635713Y-102210912D01*
X66635713Y-102210912D02*
X66349999Y-102210912D01*
X66349999Y-102210912D02*
X66207142Y-102139484D01*
X66207142Y-102139484D02*
X66135713Y-101996626D01*
X66135713Y-101996626D02*
X66135713Y-101925198D01*
X66135713Y-101925198D02*
X66207142Y-101782341D01*
X66207142Y-101782341D02*
X66349999Y-101710912D01*
X66349999Y-101710912D02*
X66564285Y-101710912D01*
X66564285Y-101710912D02*
X66707142Y-101639484D01*
X66707142Y-101639484D02*
X66778570Y-101496626D01*
X66778570Y-101496626D02*
X66778570Y-101425198D01*
X66778570Y-101425198D02*
X66707142Y-101282341D01*
X66707142Y-101282341D02*
X66564285Y-101210912D01*
X66564285Y-101210912D02*
X66349999Y-101210912D01*
X66349999Y-101210912D02*
X66207142Y-101282341D01*
X65492856Y-102210912D02*
X65492856Y-101210912D01*
X65492856Y-100710912D02*
X65564284Y-100782341D01*
X65564284Y-100782341D02*
X65492856Y-100853769D01*
X65492856Y-100853769D02*
X65421427Y-100782341D01*
X65421427Y-100782341D02*
X65492856Y-100710912D01*
X65492856Y-100710912D02*
X65492856Y-100853769D01*
X64921427Y-101210912D02*
X64564284Y-102210912D01*
X64564284Y-102210912D02*
X64207141Y-101210912D01*
X63064284Y-102139484D02*
X63207141Y-102210912D01*
X63207141Y-102210912D02*
X63492856Y-102210912D01*
X63492856Y-102210912D02*
X63635713Y-102139484D01*
X63635713Y-102139484D02*
X63707141Y-101996626D01*
X63707141Y-101996626D02*
X63707141Y-101425198D01*
X63707141Y-101425198D02*
X63635713Y-101282341D01*
X63635713Y-101282341D02*
X63492856Y-101210912D01*
X63492856Y-101210912D02*
X63207141Y-101210912D01*
X63207141Y-101210912D02*
X63064284Y-101282341D01*
X63064284Y-101282341D02*
X62992856Y-101425198D01*
X62992856Y-101425198D02*
X62992856Y-101568055D01*
X62992856Y-101568055D02*
X63707141Y-101710912D01*
X62421427Y-102139484D02*
X62207142Y-102210912D01*
X62207142Y-102210912D02*
X61849999Y-102210912D01*
X61849999Y-102210912D02*
X61707142Y-102139484D01*
X61707142Y-102139484D02*
X61635713Y-102068055D01*
X61635713Y-102068055D02*
X61564284Y-101925198D01*
X61564284Y-101925198D02*
X61564284Y-101782341D01*
X61564284Y-101782341D02*
X61635713Y-101639484D01*
X61635713Y-101639484D02*
X61707142Y-101568055D01*
X61707142Y-101568055D02*
X61849999Y-101496626D01*
X61849999Y-101496626D02*
X62135713Y-101425198D01*
X62135713Y-101425198D02*
X62278570Y-101353769D01*
X62278570Y-101353769D02*
X62349999Y-101282341D01*
X62349999Y-101282341D02*
X62421427Y-101139484D01*
X62421427Y-101139484D02*
X62421427Y-100996626D01*
X62421427Y-100996626D02*
X62349999Y-100853769D01*
X62349999Y-100853769D02*
X62278570Y-100782341D01*
X62278570Y-100782341D02*
X62135713Y-100710912D01*
X62135713Y-100710912D02*
X61778570Y-100710912D01*
X61778570Y-100710912D02*
X61564284Y-100782341D01*
X60992856Y-101782341D02*
X60278571Y-101782341D01*
X61135713Y-102210912D02*
X60635713Y-100710912D01*
X60635713Y-100710912D02*
X60135713Y-102210912D01*
X59349999Y-100710912D02*
X59064285Y-100710912D01*
X59064285Y-100710912D02*
X58921428Y-100782341D01*
X58921428Y-100782341D02*
X58778571Y-100925198D01*
X58778571Y-100925198D02*
X58707142Y-101210912D01*
X58707142Y-101210912D02*
X58707142Y-101710912D01*
X58707142Y-101710912D02*
X58778571Y-101996626D01*
X58778571Y-101996626D02*
X58921428Y-102139484D01*
X58921428Y-102139484D02*
X59064285Y-102210912D01*
X59064285Y-102210912D02*
X59349999Y-102210912D01*
X59349999Y-102210912D02*
X59492857Y-102139484D01*
X59492857Y-102139484D02*
X59635714Y-101996626D01*
X59635714Y-101996626D02*
X59707142Y-101710912D01*
X59707142Y-101710912D02*
X59707142Y-101210912D01*
X59707142Y-101210912D02*
X59635714Y-100925198D01*
X59635714Y-100925198D02*
X59492857Y-100782341D01*
X59492857Y-100782341D02*
X59349999Y-100710912D01*
X58135713Y-102139484D02*
X57992856Y-102210912D01*
X57992856Y-102210912D02*
X57707142Y-102210912D01*
X57707142Y-102210912D02*
X57564285Y-102139484D01*
X57564285Y-102139484D02*
X57492856Y-101996626D01*
X57492856Y-101996626D02*
X57492856Y-101925198D01*
X57492856Y-101925198D02*
X57564285Y-101782341D01*
X57564285Y-101782341D02*
X57707142Y-101710912D01*
X57707142Y-101710912D02*
X57921428Y-101710912D01*
X57921428Y-101710912D02*
X58064285Y-101639484D01*
X58064285Y-101639484D02*
X58135713Y-101496626D01*
X58135713Y-101496626D02*
X58135713Y-101425198D01*
X58135713Y-101425198D02*
X58064285Y-101282341D01*
X58064285Y-101282341D02*
X57921428Y-101210912D01*
X57921428Y-101210912D02*
X57707142Y-101210912D01*
X57707142Y-101210912D02*
X57564285Y-101282341D01*
X69992857Y-104625828D02*
X69992857Y-103125828D01*
X69992857Y-103125828D02*
X69635714Y-103125828D01*
X69635714Y-103125828D02*
X69421428Y-103197257D01*
X69421428Y-103197257D02*
X69278571Y-103340114D01*
X69278571Y-103340114D02*
X69207142Y-103482971D01*
X69207142Y-103482971D02*
X69135714Y-103768685D01*
X69135714Y-103768685D02*
X69135714Y-103982971D01*
X69135714Y-103982971D02*
X69207142Y-104268685D01*
X69207142Y-104268685D02*
X69278571Y-104411542D01*
X69278571Y-104411542D02*
X69421428Y-104554400D01*
X69421428Y-104554400D02*
X69635714Y-104625828D01*
X69635714Y-104625828D02*
X69992857Y-104625828D01*
X67992857Y-103840114D02*
X68492857Y-103840114D01*
X68492857Y-104625828D02*
X68492857Y-103125828D01*
X68492857Y-103125828D02*
X67778571Y-103125828D01*
X67207143Y-104625828D02*
X67207143Y-103125828D01*
X66492857Y-103125828D02*
X66492857Y-104340114D01*
X66492857Y-104340114D02*
X66421428Y-104482971D01*
X66421428Y-104482971D02*
X66350000Y-104554400D01*
X66350000Y-104554400D02*
X66207142Y-104625828D01*
X66207142Y-104625828D02*
X65921428Y-104625828D01*
X65921428Y-104625828D02*
X65778571Y-104554400D01*
X65778571Y-104554400D02*
X65707142Y-104482971D01*
X65707142Y-104482971D02*
X65635714Y-104340114D01*
X65635714Y-104340114D02*
X65635714Y-103125828D01*
X63849999Y-104554400D02*
X63635714Y-104625828D01*
X63635714Y-104625828D02*
X63278571Y-104625828D01*
X63278571Y-104625828D02*
X63135714Y-104554400D01*
X63135714Y-104554400D02*
X63064285Y-104482971D01*
X63064285Y-104482971D02*
X62992856Y-104340114D01*
X62992856Y-104340114D02*
X62992856Y-104197257D01*
X62992856Y-104197257D02*
X63064285Y-104054400D01*
X63064285Y-104054400D02*
X63135714Y-103982971D01*
X63135714Y-103982971D02*
X63278571Y-103911542D01*
X63278571Y-103911542D02*
X63564285Y-103840114D01*
X63564285Y-103840114D02*
X63707142Y-103768685D01*
X63707142Y-103768685D02*
X63778571Y-103697257D01*
X63778571Y-103697257D02*
X63849999Y-103554400D01*
X63849999Y-103554400D02*
X63849999Y-103411542D01*
X63849999Y-103411542D02*
X63778571Y-103268685D01*
X63778571Y-103268685D02*
X63707142Y-103197257D01*
X63707142Y-103197257D02*
X63564285Y-103125828D01*
X63564285Y-103125828D02*
X63207142Y-103125828D01*
X63207142Y-103125828D02*
X62992856Y-103197257D01*
X62421428Y-104197257D02*
X61707143Y-104197257D01*
X62564285Y-104625828D02*
X62064285Y-103125828D01*
X62064285Y-103125828D02*
X61564285Y-104625828D01*
X60778571Y-103125828D02*
X60492857Y-103125828D01*
X60492857Y-103125828D02*
X60350000Y-103197257D01*
X60350000Y-103197257D02*
X60207143Y-103340114D01*
X60207143Y-103340114D02*
X60135714Y-103625828D01*
X60135714Y-103625828D02*
X60135714Y-104125828D01*
X60135714Y-104125828D02*
X60207143Y-104411542D01*
X60207143Y-104411542D02*
X60350000Y-104554400D01*
X60350000Y-104554400D02*
X60492857Y-104625828D01*
X60492857Y-104625828D02*
X60778571Y-104625828D01*
X60778571Y-104625828D02*
X60921429Y-104554400D01*
X60921429Y-104554400D02*
X61064286Y-104411542D01*
X61064286Y-104411542D02*
X61135714Y-104125828D01*
X61135714Y-104125828D02*
X61135714Y-103625828D01*
X61135714Y-103625828D02*
X61064286Y-103340114D01*
X61064286Y-103340114D02*
X60921429Y-103197257D01*
X60921429Y-103197257D02*
X60778571Y-103125828D01*
D12*
G36*
X65025000Y-138625000D02*
G01*
X65025000Y-138625000D01*
G75*
G02*
X65025000Y-148625000I0J-5000000D01*
G01*
X60025000Y-148625000D01*
G75*
G02*
X60025000Y-138625000I0J5000000D01*
G01*
X65025000Y-138625000D01*
G37*
D13*
X75729819Y-153391666D02*
X76444104Y-153391666D01*
X76444104Y-153391666D02*
X76586961Y-153344047D01*
X76586961Y-153344047D02*
X76682200Y-153248809D01*
X76682200Y-153248809D02*
X76729819Y-153105952D01*
X76729819Y-153105952D02*
X76729819Y-153010714D01*
X75825057Y-153820238D02*
X75777438Y-153867857D01*
X75777438Y-153867857D02*
X75729819Y-153963095D01*
X75729819Y-153963095D02*
X75729819Y-154201190D01*
X75729819Y-154201190D02*
X75777438Y-154296428D01*
X75777438Y-154296428D02*
X75825057Y-154344047D01*
X75825057Y-154344047D02*
X75920295Y-154391666D01*
X75920295Y-154391666D02*
X76015533Y-154391666D01*
X76015533Y-154391666D02*
X76158390Y-154344047D01*
X76158390Y-154344047D02*
X76729819Y-153772619D01*
X76729819Y-153772619D02*
X76729819Y-154391666D01*
X75704819Y-153366666D02*
X76419104Y-153366666D01*
X76419104Y-153366666D02*
X76561961Y-153319047D01*
X76561961Y-153319047D02*
X76657200Y-153223809D01*
X76657200Y-153223809D02*
X76704819Y-153080952D01*
X76704819Y-153080952D02*
X76704819Y-152985714D01*
X75800057Y-153795238D02*
X75752438Y-153842857D01*
X75752438Y-153842857D02*
X75704819Y-153938095D01*
X75704819Y-153938095D02*
X75704819Y-154176190D01*
X75704819Y-154176190D02*
X75752438Y-154271428D01*
X75752438Y-154271428D02*
X75800057Y-154319047D01*
X75800057Y-154319047D02*
X75895295Y-154366666D01*
X75895295Y-154366666D02*
X75990533Y-154366666D01*
X75990533Y-154366666D02*
X76133390Y-154319047D01*
X76133390Y-154319047D02*
X76704819Y-153747619D01*
X76704819Y-153747619D02*
X76704819Y-154366666D01*
D14*
X93115733Y-95289225D02*
X92853604Y-95105681D01*
X92853604Y-95105681D02*
X92809903Y-95168093D01*
X92809903Y-95168093D02*
X92796165Y-95214280D01*
X92796165Y-95214280D02*
X92803649Y-95256725D01*
X92803649Y-95256725D02*
X92819874Y-95286688D01*
X92819874Y-95286688D02*
X92861063Y-95334131D01*
X92861063Y-95334131D02*
X92898510Y-95360351D01*
X92898510Y-95360351D02*
X92957179Y-95382830D01*
X92957179Y-95382830D02*
X92990884Y-95387828D01*
X92990884Y-95387828D02*
X93033329Y-95380344D01*
X93033329Y-95380344D02*
X93072032Y-95351637D01*
X93072032Y-95351637D02*
X93115733Y-95289225D01*
X92703765Y-95372808D02*
X92682542Y-95376550D01*
X92682542Y-95376550D02*
X92652579Y-95392774D01*
X92652579Y-95392774D02*
X92608878Y-95455186D01*
X92608878Y-95455186D02*
X92603880Y-95488891D01*
X92603880Y-95488891D02*
X92607622Y-95510113D01*
X92607622Y-95510113D02*
X92623847Y-95540076D01*
X92623847Y-95540076D02*
X92648811Y-95557556D01*
X92648811Y-95557556D02*
X92694999Y-95571295D01*
X92694999Y-95571295D02*
X92949669Y-95526389D01*
X92949669Y-95526389D02*
X92836046Y-95688660D01*
X92460295Y-95667385D02*
X92442814Y-95692350D01*
X92442814Y-95692350D02*
X92437816Y-95726055D01*
X92437816Y-95726055D02*
X92441558Y-95747277D01*
X92441558Y-95747277D02*
X92457783Y-95777240D01*
X92457783Y-95777240D02*
X92498972Y-95824683D01*
X92498972Y-95824683D02*
X92561383Y-95868384D01*
X92561383Y-95868384D02*
X92620053Y-95890863D01*
X92620053Y-95890863D02*
X92653758Y-95895861D01*
X92653758Y-95895861D02*
X92674980Y-95892119D01*
X92674980Y-95892119D02*
X92704943Y-95875894D01*
X92704943Y-95875894D02*
X92722423Y-95850930D01*
X92722423Y-95850930D02*
X92727422Y-95817225D01*
X92727422Y-95817225D02*
X92723679Y-95796002D01*
X92723679Y-95796002D02*
X92707455Y-95766040D01*
X92707455Y-95766040D02*
X92666266Y-95718596D01*
X92666266Y-95718596D02*
X92603854Y-95674895D01*
X92603854Y-95674895D02*
X92545185Y-95652417D01*
X92545185Y-95652417D02*
X92511480Y-95647419D01*
X92511480Y-95647419D02*
X92490257Y-95651161D01*
X92490257Y-95651161D02*
X92460295Y-95667385D01*
D15*
X90539431Y-92202503D02*
X90329666Y-92502078D01*
X90584337Y-92457173D02*
X90284761Y-92247408D01*
D14*
X72857684Y-95584167D02*
X72913251Y-95269028D01*
X72913251Y-95269028D02*
X72838218Y-95255798D01*
X72838218Y-95255798D02*
X72790552Y-95262866D01*
X72790552Y-95262866D02*
X72755247Y-95287587D01*
X72755247Y-95287587D02*
X72734948Y-95314954D01*
X72734948Y-95314954D02*
X72709357Y-95372335D01*
X72709357Y-95372335D02*
X72701419Y-95417354D01*
X72701419Y-95417354D02*
X72705841Y-95480027D01*
X72705841Y-95480027D02*
X72715556Y-95512686D01*
X72715556Y-95512686D02*
X72740277Y-95547991D01*
X72740277Y-95547991D02*
X72782651Y-95570936D01*
X72782651Y-95570936D02*
X72857684Y-95584167D01*
X72377473Y-95499492D02*
X72557552Y-95531245D01*
X72467512Y-95515369D02*
X72523080Y-95200230D01*
X72523080Y-95200230D02*
X72545155Y-95250542D01*
X72545155Y-95250542D02*
X72569876Y-95285848D01*
X72569876Y-95285848D02*
X72597243Y-95306146D01*
X72147915Y-95134079D02*
X72297981Y-95160539D01*
X72297981Y-95160539D02*
X72286526Y-95313251D01*
X72286526Y-95313251D02*
X72274166Y-95295599D01*
X72274166Y-95295599D02*
X72246799Y-95275300D01*
X72246799Y-95275300D02*
X72171766Y-95262070D01*
X72171766Y-95262070D02*
X72139107Y-95271784D01*
X72139107Y-95271784D02*
X72121454Y-95284145D01*
X72121454Y-95284145D02*
X72101155Y-95311512D01*
X72101155Y-95311512D02*
X72087925Y-95386545D01*
X72087925Y-95386545D02*
X72097639Y-95419204D01*
X72097639Y-95419204D02*
X72110000Y-95436857D01*
X72110000Y-95436857D02*
X72137367Y-95457155D01*
X72137367Y-95457155D02*
X72212400Y-95470386D01*
X72212400Y-95470386D02*
X72245059Y-95460671D01*
X72245059Y-95460671D02*
X72262712Y-95448311D01*
D15*
X71226098Y-93957562D02*
X70865940Y-93894056D01*
X71014266Y-94105888D02*
X71077772Y-93745730D01*
D14*
X79559167Y-88117315D02*
X79244028Y-88061748D01*
X79244028Y-88061748D02*
X79230798Y-88136781D01*
X79230798Y-88136781D02*
X79237866Y-88184447D01*
X79237866Y-88184447D02*
X79262587Y-88219752D01*
X79262587Y-88219752D02*
X79289954Y-88240051D01*
X79289954Y-88240051D02*
X79347335Y-88265642D01*
X79347335Y-88265642D02*
X79392354Y-88273580D01*
X79392354Y-88273580D02*
X79455027Y-88269158D01*
X79455027Y-88269158D02*
X79487686Y-88259443D01*
X79487686Y-88259443D02*
X79522991Y-88234722D01*
X79522991Y-88234722D02*
X79545936Y-88192348D01*
X79545936Y-88192348D02*
X79559167Y-88117315D01*
X79474492Y-88597526D02*
X79506245Y-88417447D01*
X79490369Y-88507487D02*
X79175230Y-88451919D01*
X79175230Y-88451919D02*
X79225542Y-88429844D01*
X79225542Y-88429844D02*
X79260848Y-88405123D01*
X79260848Y-88405123D02*
X79281146Y-88377756D01*
X79111725Y-88812078D02*
X79122309Y-88752051D01*
X79122309Y-88752051D02*
X79142608Y-88724684D01*
X79142608Y-88724684D02*
X79160260Y-88712324D01*
X79160260Y-88712324D02*
X79210572Y-88690249D01*
X79210572Y-88690249D02*
X79273245Y-88685826D01*
X79273245Y-88685826D02*
X79393297Y-88706995D01*
X79393297Y-88706995D02*
X79420665Y-88727294D01*
X79420665Y-88727294D02*
X79433025Y-88744946D01*
X79433025Y-88744946D02*
X79442740Y-88777606D01*
X79442740Y-88777606D02*
X79432155Y-88837632D01*
X79432155Y-88837632D02*
X79411857Y-88864999D01*
X79411857Y-88864999D02*
X79394204Y-88877360D01*
X79394204Y-88877360D02*
X79361545Y-88887074D01*
X79361545Y-88887074D02*
X79286512Y-88873844D01*
X79286512Y-88873844D02*
X79259145Y-88853545D01*
X79259145Y-88853545D02*
X79246784Y-88835892D01*
X79246784Y-88835892D02*
X79237070Y-88803233D01*
X79237070Y-88803233D02*
X79247654Y-88743207D01*
X79247654Y-88743207D02*
X79267953Y-88715840D01*
X79267953Y-88715840D02*
X79285605Y-88703479D01*
X79285605Y-88703479D02*
X79318264Y-88693765D01*
D15*
X76304145Y-88862973D02*
X76240639Y-89223131D01*
X76452471Y-89074805D02*
X76092313Y-89011299D01*
D14*
X54925782Y-85857652D02*
X55240920Y-85802085D01*
X55240920Y-85802085D02*
X55227690Y-85727052D01*
X55227690Y-85727052D02*
X55204745Y-85684678D01*
X55204745Y-85684678D02*
X55169440Y-85659957D01*
X55169440Y-85659957D02*
X55136781Y-85650242D01*
X55136781Y-85650242D02*
X55074108Y-85645820D01*
X55074108Y-85645820D02*
X55029089Y-85653758D01*
X55029089Y-85653758D02*
X54971708Y-85679349D01*
X54971708Y-85679349D02*
X54944341Y-85699648D01*
X54944341Y-85699648D02*
X54919620Y-85734953D01*
X54919620Y-85734953D02*
X54912552Y-85782619D01*
X54912552Y-85782619D02*
X54925782Y-85857652D01*
X54841108Y-85377441D02*
X54872861Y-85557520D01*
X54856984Y-85467480D02*
X55172123Y-85411913D01*
X55172123Y-85411913D02*
X55132395Y-85449864D01*
X55132395Y-85449864D02*
X55107674Y-85485170D01*
X55107674Y-85485170D02*
X55097960Y-85517829D01*
X55137724Y-85216827D02*
X55103325Y-85021742D01*
X55103325Y-85021742D02*
X55001795Y-85147956D01*
X55001795Y-85147956D02*
X54993856Y-85102936D01*
X54993856Y-85102936D02*
X54973558Y-85075569D01*
X54973558Y-85075569D02*
X54955905Y-85063209D01*
X54955905Y-85063209D02*
X54923246Y-85053494D01*
X54923246Y-85053494D02*
X54848213Y-85066725D01*
X54848213Y-85066725D02*
X54820846Y-85087023D01*
X54820846Y-85087023D02*
X54808485Y-85104676D01*
X54808485Y-85104676D02*
X54798771Y-85137335D01*
X54798771Y-85137335D02*
X54814647Y-85227375D01*
X54814647Y-85227375D02*
X54834946Y-85254742D01*
X54834946Y-85254742D02*
X54852599Y-85267103D01*
D15*
X56025914Y-83872799D02*
X55962408Y-83512641D01*
X55814082Y-83724473D02*
X56174240Y-83660967D01*
D14*
X50517615Y-98151001D02*
X50779743Y-97967456D01*
X50779743Y-97967456D02*
X50736042Y-97905044D01*
X50736042Y-97905044D02*
X50697339Y-97876338D01*
X50697339Y-97876338D02*
X50654894Y-97868854D01*
X50654894Y-97868854D02*
X50621190Y-97873852D01*
X50621190Y-97873852D02*
X50562520Y-97896330D01*
X50562520Y-97896330D02*
X50525073Y-97922551D01*
X50525073Y-97922551D02*
X50483884Y-97969994D01*
X50483884Y-97969994D02*
X50467660Y-97999957D01*
X50467660Y-97999957D02*
X50460175Y-98042402D01*
X50460175Y-98042402D02*
X50473914Y-98088589D01*
X50473914Y-98088589D02*
X50517615Y-98151001D01*
X50325330Y-97876390D02*
X50290369Y-97826460D01*
X50290369Y-97826460D02*
X50285371Y-97792755D01*
X50285371Y-97792755D02*
X50289113Y-97771533D01*
X50289113Y-97771533D02*
X50309080Y-97720348D01*
X50309080Y-97720348D02*
X50350269Y-97672904D01*
X50350269Y-97672904D02*
X50450127Y-97602983D01*
X50450127Y-97602983D02*
X50483832Y-97597985D01*
X50483832Y-97597985D02*
X50505055Y-97601727D01*
X50505055Y-97601727D02*
X50535017Y-97617951D01*
X50535017Y-97617951D02*
X50569978Y-97667880D01*
X50569978Y-97667880D02*
X50574976Y-97701585D01*
X50574976Y-97701585D02*
X50571234Y-97722808D01*
X50571234Y-97722808D02*
X50555010Y-97752771D01*
X50555010Y-97752771D02*
X50492598Y-97796472D01*
X50492598Y-97796472D02*
X50458893Y-97801470D01*
X50458893Y-97801470D02*
X50437671Y-97797728D01*
X50437671Y-97797728D02*
X50407708Y-97781503D01*
X50407708Y-97781503D02*
X50372747Y-97731574D01*
X50372747Y-97731574D02*
X50367749Y-97697869D01*
X50367749Y-97697869D02*
X50371491Y-97676647D01*
X50371491Y-97676647D02*
X50387716Y-97646684D01*
D15*
X48618174Y-96087866D02*
X48408409Y-95788291D01*
X48363504Y-96042961D02*
X48663079Y-95833196D01*
D14*
X62475782Y-94057652D02*
X62790920Y-94002085D01*
X62790920Y-94002085D02*
X62777690Y-93927052D01*
X62777690Y-93927052D02*
X62754745Y-93884678D01*
X62754745Y-93884678D02*
X62719440Y-93859957D01*
X62719440Y-93859957D02*
X62686781Y-93850242D01*
X62686781Y-93850242D02*
X62624108Y-93845820D01*
X62624108Y-93845820D02*
X62579089Y-93853758D01*
X62579089Y-93853758D02*
X62521708Y-93879349D01*
X62521708Y-93879349D02*
X62494341Y-93899648D01*
X62494341Y-93899648D02*
X62469620Y-93934953D01*
X62469620Y-93934953D02*
X62462552Y-93982619D01*
X62462552Y-93982619D02*
X62475782Y-94057652D01*
X62391108Y-93577441D02*
X62422861Y-93757520D01*
X62406984Y-93667480D02*
X62722123Y-93611913D01*
X62722123Y-93611913D02*
X62682395Y-93649864D01*
X62682395Y-93649864D02*
X62657674Y-93685170D01*
X62657674Y-93685170D02*
X62647960Y-93717829D01*
X62655065Y-93407113D02*
X62667425Y-93389460D01*
X62667425Y-93389460D02*
X62677140Y-93356801D01*
X62677140Y-93356801D02*
X62663909Y-93281768D01*
X62663909Y-93281768D02*
X62643610Y-93254401D01*
X62643610Y-93254401D02*
X62625958Y-93242040D01*
X62625958Y-93242040D02*
X62593299Y-93232326D01*
X62593299Y-93232326D02*
X62563285Y-93237618D01*
X62563285Y-93237618D02*
X62520912Y-93260563D01*
X62520912Y-93260563D02*
X62372585Y-93472395D01*
X62372585Y-93472395D02*
X62338186Y-93277309D01*
D15*
X62026090Y-91362874D02*
X61962584Y-91002716D01*
X61814258Y-91214548D02*
X62174416Y-91151042D01*
D14*
X84115733Y-88364225D02*
X83853604Y-88180681D01*
X83853604Y-88180681D02*
X83809903Y-88243093D01*
X83809903Y-88243093D02*
X83796165Y-88289280D01*
X83796165Y-88289280D02*
X83803649Y-88331725D01*
X83803649Y-88331725D02*
X83819874Y-88361688D01*
X83819874Y-88361688D02*
X83861063Y-88409131D01*
X83861063Y-88409131D02*
X83898510Y-88435351D01*
X83898510Y-88435351D02*
X83957179Y-88457830D01*
X83957179Y-88457830D02*
X83990884Y-88462828D01*
X83990884Y-88462828D02*
X84033329Y-88455344D01*
X84033329Y-88455344D02*
X84072032Y-88426637D01*
X84072032Y-88426637D02*
X84115733Y-88364225D01*
X83836046Y-88763660D02*
X83940929Y-88613872D01*
X83888487Y-88688766D02*
X83626359Y-88505221D01*
X83626359Y-88505221D02*
X83681286Y-88506477D01*
X83681286Y-88506477D02*
X83723731Y-88498993D01*
X83723731Y-88498993D02*
X83753694Y-88482769D01*
X83748644Y-88888483D02*
X83713683Y-88938412D01*
X83713683Y-88938412D02*
X83683720Y-88954637D01*
X83683720Y-88954637D02*
X83662498Y-88958379D01*
X83662498Y-88958379D02*
X83607571Y-88957123D01*
X83607571Y-88957123D02*
X83548901Y-88934644D01*
X83548901Y-88934644D02*
X83449043Y-88864722D01*
X83449043Y-88864722D02*
X83432818Y-88834760D01*
X83432818Y-88834760D02*
X83429076Y-88813537D01*
X83429076Y-88813537D02*
X83434074Y-88779832D01*
X83434074Y-88779832D02*
X83469035Y-88729903D01*
X83469035Y-88729903D02*
X83498998Y-88713679D01*
X83498998Y-88713679D02*
X83520220Y-88709936D01*
X83520220Y-88709936D02*
X83553925Y-88714935D01*
X83553925Y-88714935D02*
X83616337Y-88758636D01*
X83616337Y-88758636D02*
X83632561Y-88788598D01*
X83632561Y-88788598D02*
X83636303Y-88809821D01*
X83636303Y-88809821D02*
X83631305Y-88843526D01*
X83631305Y-88843526D02*
X83596344Y-88893455D01*
X83596344Y-88893455D02*
X83566381Y-88909679D01*
X83566381Y-88909679D02*
X83545159Y-88913422D01*
X83545159Y-88913422D02*
X83511454Y-88908423D01*
D15*
X85649331Y-92410731D02*
X85439566Y-92710306D01*
X85694237Y-92665401D02*
X85394661Y-92455636D01*
D14*
X82835774Y-99965733D02*
X83019318Y-99703604D01*
X83019318Y-99703604D02*
X82956906Y-99659903D01*
X82956906Y-99659903D02*
X82910719Y-99646165D01*
X82910719Y-99646165D02*
X82868274Y-99653649D01*
X82868274Y-99653649D02*
X82838311Y-99669874D01*
X82838311Y-99669874D02*
X82790868Y-99711063D01*
X82790868Y-99711063D02*
X82764648Y-99748510D01*
X82764648Y-99748510D02*
X82742169Y-99807179D01*
X82742169Y-99807179D02*
X82737171Y-99840884D01*
X82737171Y-99840884D02*
X82744655Y-99883329D01*
X82744655Y-99883329D02*
X82773362Y-99922032D01*
X82773362Y-99922032D02*
X82835774Y-99965733D01*
X82436339Y-99686046D02*
X82586127Y-99790929D01*
X82511233Y-99738487D02*
X82694778Y-99476359D01*
X82694778Y-99476359D02*
X82693522Y-99531286D01*
X82693522Y-99531286D02*
X82701006Y-99573731D01*
X82701006Y-99573731D02*
X82717230Y-99603694D01*
X82391434Y-99431376D02*
X82425139Y-99436374D01*
X82425139Y-99436374D02*
X82446361Y-99432632D01*
X82446361Y-99432632D02*
X82476324Y-99416407D01*
X82476324Y-99416407D02*
X82485064Y-99403925D01*
X82485064Y-99403925D02*
X82490063Y-99370220D01*
X82490063Y-99370220D02*
X82486320Y-99348998D01*
X82486320Y-99348998D02*
X82470096Y-99319035D01*
X82470096Y-99319035D02*
X82420167Y-99284074D01*
X82420167Y-99284074D02*
X82386462Y-99279076D01*
X82386462Y-99279076D02*
X82365239Y-99282818D01*
X82365239Y-99282818D02*
X82335277Y-99299043D01*
X82335277Y-99299043D02*
X82326536Y-99311525D01*
X82326536Y-99311525D02*
X82321538Y-99345230D01*
X82321538Y-99345230D02*
X82325280Y-99366452D01*
X82325280Y-99366452D02*
X82341505Y-99396415D01*
X82341505Y-99396415D02*
X82391434Y-99431376D01*
X82391434Y-99431376D02*
X82407659Y-99461339D01*
X82407659Y-99461339D02*
X82411401Y-99482561D01*
X82411401Y-99482561D02*
X82406403Y-99516266D01*
X82406403Y-99516266D02*
X82371442Y-99566195D01*
X82371442Y-99566195D02*
X82341479Y-99582420D01*
X82341479Y-99582420D02*
X82320256Y-99586162D01*
X82320256Y-99586162D02*
X82286552Y-99581164D01*
X82286552Y-99581164D02*
X82236622Y-99546203D01*
X82236622Y-99546203D02*
X82220398Y-99516240D01*
X82220398Y-99516240D02*
X82216656Y-99495017D01*
X82216656Y-99495017D02*
X82221654Y-99461313D01*
X82221654Y-99461313D02*
X82256615Y-99411383D01*
X82256615Y-99411383D02*
X82286577Y-99395159D01*
X82286577Y-99395159D02*
X82307800Y-99391417D01*
X82307800Y-99391417D02*
X82341505Y-99396415D01*
D15*
X82083621Y-98335145D02*
X81784046Y-98125380D01*
X81828951Y-98380051D02*
X82038716Y-98080475D01*
D14*
X76432684Y-79959167D02*
X76488251Y-79644028D01*
X76488251Y-79644028D02*
X76413218Y-79630798D01*
X76413218Y-79630798D02*
X76365552Y-79637866D01*
X76365552Y-79637866D02*
X76330247Y-79662587D01*
X76330247Y-79662587D02*
X76309948Y-79689954D01*
X76309948Y-79689954D02*
X76284357Y-79747335D01*
X76284357Y-79747335D02*
X76276419Y-79792354D01*
X76276419Y-79792354D02*
X76280841Y-79855027D01*
X76280841Y-79855027D02*
X76290556Y-79887686D01*
X76290556Y-79887686D02*
X76315277Y-79922991D01*
X76315277Y-79922991D02*
X76357651Y-79945936D01*
X76357651Y-79945936D02*
X76432684Y-79959167D01*
X75952473Y-79874492D02*
X76132552Y-79906245D01*
X76042512Y-79890369D02*
X76098080Y-79575230D01*
X76098080Y-79575230D02*
X76120155Y-79625542D01*
X76120155Y-79625542D02*
X76144876Y-79660848D01*
X76144876Y-79660848D02*
X76172243Y-79681146D01*
X75902994Y-79540831D02*
X75692901Y-79503786D01*
X75692901Y-79503786D02*
X75772393Y-79842740D01*
D15*
X77372613Y-80895862D02*
X77012455Y-80832356D01*
X77160781Y-81044188D02*
X77224287Y-80684030D01*
D13*
X79368934Y-114012557D02*
X79464172Y-113964938D01*
X79464172Y-113964938D02*
X79559410Y-113869700D01*
X79559410Y-113869700D02*
X79702267Y-113726842D01*
X79702267Y-113726842D02*
X79797505Y-113679223D01*
X79797505Y-113679223D02*
X79892743Y-113679223D01*
X79845124Y-113917319D02*
X79940362Y-113869700D01*
X79940362Y-113869700D02*
X80035600Y-113774461D01*
X80035600Y-113774461D02*
X80083219Y-113583985D01*
X80083219Y-113583985D02*
X80083219Y-113250652D01*
X80083219Y-113250652D02*
X80035600Y-113060176D01*
X80035600Y-113060176D02*
X79940362Y-112964938D01*
X79940362Y-112964938D02*
X79845124Y-112917319D01*
X79845124Y-112917319D02*
X79654648Y-112917319D01*
X79654648Y-112917319D02*
X79559410Y-112964938D01*
X79559410Y-112964938D02*
X79464172Y-113060176D01*
X79464172Y-113060176D02*
X79416553Y-113250652D01*
X79416553Y-113250652D02*
X79416553Y-113583985D01*
X79416553Y-113583985D02*
X79464172Y-113774461D01*
X79464172Y-113774461D02*
X79559410Y-113869700D01*
X79559410Y-113869700D02*
X79654648Y-113917319D01*
X79654648Y-113917319D02*
X79845124Y-113917319D01*
X78464172Y-113917319D02*
X79035600Y-113917319D01*
X78749886Y-113917319D02*
X78749886Y-112917319D01*
X78749886Y-112917319D02*
X78845124Y-113060176D01*
X78845124Y-113060176D02*
X78940362Y-113155414D01*
X78940362Y-113155414D02*
X79035600Y-113203033D01*
D14*
X65385774Y-81465733D02*
X65569318Y-81203604D01*
X65569318Y-81203604D02*
X65506906Y-81159903D01*
X65506906Y-81159903D02*
X65460719Y-81146165D01*
X65460719Y-81146165D02*
X65418274Y-81153649D01*
X65418274Y-81153649D02*
X65388311Y-81169874D01*
X65388311Y-81169874D02*
X65340868Y-81211063D01*
X65340868Y-81211063D02*
X65314648Y-81248510D01*
X65314648Y-81248510D02*
X65292169Y-81307179D01*
X65292169Y-81307179D02*
X65287171Y-81340884D01*
X65287171Y-81340884D02*
X65294655Y-81383329D01*
X65294655Y-81383329D02*
X65323362Y-81422032D01*
X65323362Y-81422032D02*
X65385774Y-81465733D01*
X64986339Y-81186046D02*
X65136127Y-81290929D01*
X65061233Y-81238487D02*
X65244778Y-80976359D01*
X65244778Y-80976359D02*
X65243522Y-81031286D01*
X65243522Y-81031286D02*
X65251006Y-81073731D01*
X65251006Y-81073731D02*
X65267230Y-81103694D01*
X64884021Y-80853970D02*
X64761658Y-81028722D01*
X65016354Y-80797812D02*
X64947662Y-81028748D01*
X64947662Y-81028748D02*
X64785392Y-80915125D01*
D15*
X65900682Y-82736423D02*
X65601107Y-82526658D01*
X65646012Y-82781329D02*
X65855777Y-82481753D01*
D13*
X63011904Y-118842319D02*
X63011904Y-119651842D01*
X63011904Y-119651842D02*
X62964285Y-119747080D01*
X62964285Y-119747080D02*
X62916666Y-119794700D01*
X62916666Y-119794700D02*
X62821428Y-119842319D01*
X62821428Y-119842319D02*
X62630952Y-119842319D01*
X62630952Y-119842319D02*
X62535714Y-119794700D01*
X62535714Y-119794700D02*
X62488095Y-119747080D01*
X62488095Y-119747080D02*
X62440476Y-119651842D01*
X62440476Y-119651842D02*
X62440476Y-118842319D01*
X61440476Y-119842319D02*
X62011904Y-119842319D01*
X61726190Y-119842319D02*
X61726190Y-118842319D01*
X61726190Y-118842319D02*
X61821428Y-118985176D01*
X61821428Y-118985176D02*
X61916666Y-119080414D01*
X61916666Y-119080414D02*
X62011904Y-119128033D01*
X69729819Y-111219642D02*
X69253628Y-110886309D01*
X69729819Y-110648214D02*
X68729819Y-110648214D01*
X68729819Y-110648214D02*
X68729819Y-111029166D01*
X68729819Y-111029166D02*
X68777438Y-111124404D01*
X68777438Y-111124404D02*
X68825057Y-111172023D01*
X68825057Y-111172023D02*
X68920295Y-111219642D01*
X68920295Y-111219642D02*
X69063152Y-111219642D01*
X69063152Y-111219642D02*
X69158390Y-111172023D01*
X69158390Y-111172023D02*
X69206009Y-111124404D01*
X69206009Y-111124404D02*
X69253628Y-111029166D01*
X69253628Y-111029166D02*
X69253628Y-110648214D01*
X69729819Y-112172023D02*
X69729819Y-111600595D01*
X69729819Y-111886309D02*
X68729819Y-111886309D01*
X68729819Y-111886309D02*
X68872676Y-111791071D01*
X68872676Y-111791071D02*
X68967914Y-111695833D01*
X68967914Y-111695833D02*
X69015533Y-111600595D01*
X68729819Y-113029166D02*
X68729819Y-112838690D01*
X68729819Y-112838690D02*
X68777438Y-112743452D01*
X68777438Y-112743452D02*
X68825057Y-112695833D01*
X68825057Y-112695833D02*
X68967914Y-112600595D01*
X68967914Y-112600595D02*
X69158390Y-112552976D01*
X69158390Y-112552976D02*
X69539342Y-112552976D01*
X69539342Y-112552976D02*
X69634580Y-112600595D01*
X69634580Y-112600595D02*
X69682200Y-112648214D01*
X69682200Y-112648214D02*
X69729819Y-112743452D01*
X69729819Y-112743452D02*
X69729819Y-112933928D01*
X69729819Y-112933928D02*
X69682200Y-113029166D01*
X69682200Y-113029166D02*
X69634580Y-113076785D01*
X69634580Y-113076785D02*
X69539342Y-113124404D01*
X69539342Y-113124404D02*
X69301247Y-113124404D01*
X69301247Y-113124404D02*
X69206009Y-113076785D01*
X69206009Y-113076785D02*
X69158390Y-113029166D01*
X69158390Y-113029166D02*
X69110771Y-112933928D01*
X69110771Y-112933928D02*
X69110771Y-112743452D01*
X69110771Y-112743452D02*
X69158390Y-112648214D01*
X69158390Y-112648214D02*
X69206009Y-112600595D01*
X69206009Y-112600595D02*
X69301247Y-112552976D01*
X79133515Y-116094642D02*
X78657324Y-115761309D01*
X79133515Y-115523214D02*
X78133515Y-115523214D01*
X78133515Y-115523214D02*
X78133515Y-115904166D01*
X78133515Y-115904166D02*
X78181134Y-115999404D01*
X78181134Y-115999404D02*
X78228753Y-116047023D01*
X78228753Y-116047023D02*
X78323991Y-116094642D01*
X78323991Y-116094642D02*
X78466848Y-116094642D01*
X78466848Y-116094642D02*
X78562086Y-116047023D01*
X78562086Y-116047023D02*
X78609705Y-115999404D01*
X78609705Y-115999404D02*
X78657324Y-115904166D01*
X78657324Y-115904166D02*
X78657324Y-115523214D01*
X79133515Y-117047023D02*
X79133515Y-116475595D01*
X79133515Y-116761309D02*
X78133515Y-116761309D01*
X78133515Y-116761309D02*
X78276372Y-116666071D01*
X78276372Y-116666071D02*
X78371610Y-116570833D01*
X78371610Y-116570833D02*
X78419229Y-116475595D01*
X78133515Y-117951785D02*
X78133515Y-117475595D01*
X78133515Y-117475595D02*
X78609705Y-117427976D01*
X78609705Y-117427976D02*
X78562086Y-117475595D01*
X78562086Y-117475595D02*
X78514467Y-117570833D01*
X78514467Y-117570833D02*
X78514467Y-117808928D01*
X78514467Y-117808928D02*
X78562086Y-117904166D01*
X78562086Y-117904166D02*
X78609705Y-117951785D01*
X78609705Y-117951785D02*
X78704943Y-117999404D01*
X78704943Y-117999404D02*
X78943038Y-117999404D01*
X78943038Y-117999404D02*
X79038276Y-117951785D01*
X79038276Y-117951785D02*
X79085896Y-117904166D01*
X79085896Y-117904166D02*
X79133515Y-117808928D01*
X79133515Y-117808928D02*
X79133515Y-117570833D01*
X79133515Y-117570833D02*
X79085896Y-117475595D01*
X79085896Y-117475595D02*
X79038276Y-117427976D01*
X76317857Y-119529819D02*
X76651190Y-119053628D01*
X76889285Y-119529819D02*
X76889285Y-118529819D01*
X76889285Y-118529819D02*
X76508333Y-118529819D01*
X76508333Y-118529819D02*
X76413095Y-118577438D01*
X76413095Y-118577438D02*
X76365476Y-118625057D01*
X76365476Y-118625057D02*
X76317857Y-118720295D01*
X76317857Y-118720295D02*
X76317857Y-118863152D01*
X76317857Y-118863152D02*
X76365476Y-118958390D01*
X76365476Y-118958390D02*
X76413095Y-119006009D01*
X76413095Y-119006009D02*
X76508333Y-119053628D01*
X76508333Y-119053628D02*
X76889285Y-119053628D01*
X75365476Y-119529819D02*
X75936904Y-119529819D01*
X75651190Y-119529819D02*
X75651190Y-118529819D01*
X75651190Y-118529819D02*
X75746428Y-118672676D01*
X75746428Y-118672676D02*
X75841666Y-118767914D01*
X75841666Y-118767914D02*
X75936904Y-118815533D01*
X74508333Y-118863152D02*
X74508333Y-119529819D01*
X74746428Y-118482200D02*
X74984523Y-119196485D01*
X74984523Y-119196485D02*
X74365476Y-119196485D01*
X71467857Y-120579819D02*
X71801190Y-120103628D01*
X72039285Y-120579819D02*
X72039285Y-119579819D01*
X72039285Y-119579819D02*
X71658333Y-119579819D01*
X71658333Y-119579819D02*
X71563095Y-119627438D01*
X71563095Y-119627438D02*
X71515476Y-119675057D01*
X71515476Y-119675057D02*
X71467857Y-119770295D01*
X71467857Y-119770295D02*
X71467857Y-119913152D01*
X71467857Y-119913152D02*
X71515476Y-120008390D01*
X71515476Y-120008390D02*
X71563095Y-120056009D01*
X71563095Y-120056009D02*
X71658333Y-120103628D01*
X71658333Y-120103628D02*
X72039285Y-120103628D01*
X70515476Y-120579819D02*
X71086904Y-120579819D01*
X70801190Y-120579819D02*
X70801190Y-119579819D01*
X70801190Y-119579819D02*
X70896428Y-119722676D01*
X70896428Y-119722676D02*
X70991666Y-119817914D01*
X70991666Y-119817914D02*
X71086904Y-119865533D01*
X70182142Y-119579819D02*
X69563095Y-119579819D01*
X69563095Y-119579819D02*
X69896428Y-119960771D01*
X69896428Y-119960771D02*
X69753571Y-119960771D01*
X69753571Y-119960771D02*
X69658333Y-120008390D01*
X69658333Y-120008390D02*
X69610714Y-120056009D01*
X69610714Y-120056009D02*
X69563095Y-120151247D01*
X69563095Y-120151247D02*
X69563095Y-120389342D01*
X69563095Y-120389342D02*
X69610714Y-120484580D01*
X69610714Y-120484580D02*
X69658333Y-120532200D01*
X69658333Y-120532200D02*
X69753571Y-120579819D01*
X69753571Y-120579819D02*
X70039285Y-120579819D01*
X70039285Y-120579819D02*
X70134523Y-120532200D01*
X70134523Y-120532200D02*
X70182142Y-120484580D01*
X68179819Y-110319642D02*
X67703628Y-109986309D01*
X68179819Y-109748214D02*
X67179819Y-109748214D01*
X67179819Y-109748214D02*
X67179819Y-110129166D01*
X67179819Y-110129166D02*
X67227438Y-110224404D01*
X67227438Y-110224404D02*
X67275057Y-110272023D01*
X67275057Y-110272023D02*
X67370295Y-110319642D01*
X67370295Y-110319642D02*
X67513152Y-110319642D01*
X67513152Y-110319642D02*
X67608390Y-110272023D01*
X67608390Y-110272023D02*
X67656009Y-110224404D01*
X67656009Y-110224404D02*
X67703628Y-110129166D01*
X67703628Y-110129166D02*
X67703628Y-109748214D01*
X68179819Y-111272023D02*
X68179819Y-110700595D01*
X68179819Y-110986309D02*
X67179819Y-110986309D01*
X67179819Y-110986309D02*
X67322676Y-110891071D01*
X67322676Y-110891071D02*
X67417914Y-110795833D01*
X67417914Y-110795833D02*
X67465533Y-110700595D01*
X67275057Y-111652976D02*
X67227438Y-111700595D01*
X67227438Y-111700595D02*
X67179819Y-111795833D01*
X67179819Y-111795833D02*
X67179819Y-112033928D01*
X67179819Y-112033928D02*
X67227438Y-112129166D01*
X67227438Y-112129166D02*
X67275057Y-112176785D01*
X67275057Y-112176785D02*
X67370295Y-112224404D01*
X67370295Y-112224404D02*
X67465533Y-112224404D01*
X67465533Y-112224404D02*
X67608390Y-112176785D01*
X67608390Y-112176785D02*
X68179819Y-111605357D01*
X68179819Y-111605357D02*
X68179819Y-112224404D01*
X66704819Y-110394642D02*
X66228628Y-110061309D01*
X66704819Y-109823214D02*
X65704819Y-109823214D01*
X65704819Y-109823214D02*
X65704819Y-110204166D01*
X65704819Y-110204166D02*
X65752438Y-110299404D01*
X65752438Y-110299404D02*
X65800057Y-110347023D01*
X65800057Y-110347023D02*
X65895295Y-110394642D01*
X65895295Y-110394642D02*
X66038152Y-110394642D01*
X66038152Y-110394642D02*
X66133390Y-110347023D01*
X66133390Y-110347023D02*
X66181009Y-110299404D01*
X66181009Y-110299404D02*
X66228628Y-110204166D01*
X66228628Y-110204166D02*
X66228628Y-109823214D01*
X66704819Y-111347023D02*
X66704819Y-110775595D01*
X66704819Y-111061309D02*
X65704819Y-111061309D01*
X65704819Y-111061309D02*
X65847676Y-110966071D01*
X65847676Y-110966071D02*
X65942914Y-110870833D01*
X65942914Y-110870833D02*
X65990533Y-110775595D01*
X66704819Y-112299404D02*
X66704819Y-111727976D01*
X66704819Y-112013690D02*
X65704819Y-112013690D01*
X65704819Y-112013690D02*
X65847676Y-111918452D01*
X65847676Y-111918452D02*
X65942914Y-111823214D01*
X65942914Y-111823214D02*
X65990533Y-111727976D01*
X65204819Y-110319642D02*
X64728628Y-109986309D01*
X65204819Y-109748214D02*
X64204819Y-109748214D01*
X64204819Y-109748214D02*
X64204819Y-110129166D01*
X64204819Y-110129166D02*
X64252438Y-110224404D01*
X64252438Y-110224404D02*
X64300057Y-110272023D01*
X64300057Y-110272023D02*
X64395295Y-110319642D01*
X64395295Y-110319642D02*
X64538152Y-110319642D01*
X64538152Y-110319642D02*
X64633390Y-110272023D01*
X64633390Y-110272023D02*
X64681009Y-110224404D01*
X64681009Y-110224404D02*
X64728628Y-110129166D01*
X64728628Y-110129166D02*
X64728628Y-109748214D01*
X65204819Y-111272023D02*
X65204819Y-110700595D01*
X65204819Y-110986309D02*
X64204819Y-110986309D01*
X64204819Y-110986309D02*
X64347676Y-110891071D01*
X64347676Y-110891071D02*
X64442914Y-110795833D01*
X64442914Y-110795833D02*
X64490533Y-110700595D01*
X64204819Y-111891071D02*
X64204819Y-111986309D01*
X64204819Y-111986309D02*
X64252438Y-112081547D01*
X64252438Y-112081547D02*
X64300057Y-112129166D01*
X64300057Y-112129166D02*
X64395295Y-112176785D01*
X64395295Y-112176785D02*
X64585771Y-112224404D01*
X64585771Y-112224404D02*
X64823866Y-112224404D01*
X64823866Y-112224404D02*
X65014342Y-112176785D01*
X65014342Y-112176785D02*
X65109580Y-112129166D01*
X65109580Y-112129166D02*
X65157200Y-112081547D01*
X65157200Y-112081547D02*
X65204819Y-111986309D01*
X65204819Y-111986309D02*
X65204819Y-111891071D01*
X65204819Y-111891071D02*
X65157200Y-111795833D01*
X65157200Y-111795833D02*
X65109580Y-111748214D01*
X65109580Y-111748214D02*
X65014342Y-111700595D01*
X65014342Y-111700595D02*
X64823866Y-111652976D01*
X64823866Y-111652976D02*
X64585771Y-111652976D01*
X64585771Y-111652976D02*
X64395295Y-111700595D01*
X64395295Y-111700595D02*
X64300057Y-111748214D01*
X64300057Y-111748214D02*
X64252438Y-111795833D01*
X64252438Y-111795833D02*
X64204819Y-111891071D01*
X63704819Y-111320833D02*
X63228628Y-110987500D01*
X63704819Y-110749405D02*
X62704819Y-110749405D01*
X62704819Y-110749405D02*
X62704819Y-111130357D01*
X62704819Y-111130357D02*
X62752438Y-111225595D01*
X62752438Y-111225595D02*
X62800057Y-111273214D01*
X62800057Y-111273214D02*
X62895295Y-111320833D01*
X62895295Y-111320833D02*
X63038152Y-111320833D01*
X63038152Y-111320833D02*
X63133390Y-111273214D01*
X63133390Y-111273214D02*
X63181009Y-111225595D01*
X63181009Y-111225595D02*
X63228628Y-111130357D01*
X63228628Y-111130357D02*
X63228628Y-110749405D01*
X63704819Y-111797024D02*
X63704819Y-111987500D01*
X63704819Y-111987500D02*
X63657200Y-112082738D01*
X63657200Y-112082738D02*
X63609580Y-112130357D01*
X63609580Y-112130357D02*
X63466723Y-112225595D01*
X63466723Y-112225595D02*
X63276247Y-112273214D01*
X63276247Y-112273214D02*
X62895295Y-112273214D01*
X62895295Y-112273214D02*
X62800057Y-112225595D01*
X62800057Y-112225595D02*
X62752438Y-112177976D01*
X62752438Y-112177976D02*
X62704819Y-112082738D01*
X62704819Y-112082738D02*
X62704819Y-111892262D01*
X62704819Y-111892262D02*
X62752438Y-111797024D01*
X62752438Y-111797024D02*
X62800057Y-111749405D01*
X62800057Y-111749405D02*
X62895295Y-111701786D01*
X62895295Y-111701786D02*
X63133390Y-111701786D01*
X63133390Y-111701786D02*
X63228628Y-111749405D01*
X63228628Y-111749405D02*
X63276247Y-111797024D01*
X63276247Y-111797024D02*
X63323866Y-111892262D01*
X63323866Y-111892262D02*
X63323866Y-112082738D01*
X63323866Y-112082738D02*
X63276247Y-112177976D01*
X63276247Y-112177976D02*
X63228628Y-112225595D01*
X63228628Y-112225595D02*
X63133390Y-112273214D01*
X56991666Y-116292319D02*
X57324999Y-115816128D01*
X57563094Y-116292319D02*
X57563094Y-115292319D01*
X57563094Y-115292319D02*
X57182142Y-115292319D01*
X57182142Y-115292319D02*
X57086904Y-115339938D01*
X57086904Y-115339938D02*
X57039285Y-115387557D01*
X57039285Y-115387557D02*
X56991666Y-115482795D01*
X56991666Y-115482795D02*
X56991666Y-115625652D01*
X56991666Y-115625652D02*
X57039285Y-115720890D01*
X57039285Y-115720890D02*
X57086904Y-115768509D01*
X57086904Y-115768509D02*
X57182142Y-115816128D01*
X57182142Y-115816128D02*
X57563094Y-115816128D01*
X56420237Y-115720890D02*
X56515475Y-115673271D01*
X56515475Y-115673271D02*
X56563094Y-115625652D01*
X56563094Y-115625652D02*
X56610713Y-115530414D01*
X56610713Y-115530414D02*
X56610713Y-115482795D01*
X56610713Y-115482795D02*
X56563094Y-115387557D01*
X56563094Y-115387557D02*
X56515475Y-115339938D01*
X56515475Y-115339938D02*
X56420237Y-115292319D01*
X56420237Y-115292319D02*
X56229761Y-115292319D01*
X56229761Y-115292319D02*
X56134523Y-115339938D01*
X56134523Y-115339938D02*
X56086904Y-115387557D01*
X56086904Y-115387557D02*
X56039285Y-115482795D01*
X56039285Y-115482795D02*
X56039285Y-115530414D01*
X56039285Y-115530414D02*
X56086904Y-115625652D01*
X56086904Y-115625652D02*
X56134523Y-115673271D01*
X56134523Y-115673271D02*
X56229761Y-115720890D01*
X56229761Y-115720890D02*
X56420237Y-115720890D01*
X56420237Y-115720890D02*
X56515475Y-115768509D01*
X56515475Y-115768509D02*
X56563094Y-115816128D01*
X56563094Y-115816128D02*
X56610713Y-115911366D01*
X56610713Y-115911366D02*
X56610713Y-116101842D01*
X56610713Y-116101842D02*
X56563094Y-116197080D01*
X56563094Y-116197080D02*
X56515475Y-116244700D01*
X56515475Y-116244700D02*
X56420237Y-116292319D01*
X56420237Y-116292319D02*
X56229761Y-116292319D01*
X56229761Y-116292319D02*
X56134523Y-116244700D01*
X56134523Y-116244700D02*
X56086904Y-116197080D01*
X56086904Y-116197080D02*
X56039285Y-116101842D01*
X56039285Y-116101842D02*
X56039285Y-115911366D01*
X56039285Y-115911366D02*
X56086904Y-115816128D01*
X56086904Y-115816128D02*
X56134523Y-115768509D01*
X56134523Y-115768509D02*
X56229761Y-115720890D01*
X56991666Y-117817319D02*
X57324999Y-117341128D01*
X57563094Y-117817319D02*
X57563094Y-116817319D01*
X57563094Y-116817319D02*
X57182142Y-116817319D01*
X57182142Y-116817319D02*
X57086904Y-116864938D01*
X57086904Y-116864938D02*
X57039285Y-116912557D01*
X57039285Y-116912557D02*
X56991666Y-117007795D01*
X56991666Y-117007795D02*
X56991666Y-117150652D01*
X56991666Y-117150652D02*
X57039285Y-117245890D01*
X57039285Y-117245890D02*
X57086904Y-117293509D01*
X57086904Y-117293509D02*
X57182142Y-117341128D01*
X57182142Y-117341128D02*
X57563094Y-117341128D01*
X56658332Y-116817319D02*
X55991666Y-116817319D01*
X55991666Y-116817319D02*
X56420237Y-117817319D01*
X56991666Y-119342319D02*
X57324999Y-118866128D01*
X57563094Y-119342319D02*
X57563094Y-118342319D01*
X57563094Y-118342319D02*
X57182142Y-118342319D01*
X57182142Y-118342319D02*
X57086904Y-118389938D01*
X57086904Y-118389938D02*
X57039285Y-118437557D01*
X57039285Y-118437557D02*
X56991666Y-118532795D01*
X56991666Y-118532795D02*
X56991666Y-118675652D01*
X56991666Y-118675652D02*
X57039285Y-118770890D01*
X57039285Y-118770890D02*
X57086904Y-118818509D01*
X57086904Y-118818509D02*
X57182142Y-118866128D01*
X57182142Y-118866128D02*
X57563094Y-118866128D01*
X56134523Y-118342319D02*
X56324999Y-118342319D01*
X56324999Y-118342319D02*
X56420237Y-118389938D01*
X56420237Y-118389938D02*
X56467856Y-118437557D01*
X56467856Y-118437557D02*
X56563094Y-118580414D01*
X56563094Y-118580414D02*
X56610713Y-118770890D01*
X56610713Y-118770890D02*
X56610713Y-119151842D01*
X56610713Y-119151842D02*
X56563094Y-119247080D01*
X56563094Y-119247080D02*
X56515475Y-119294700D01*
X56515475Y-119294700D02*
X56420237Y-119342319D01*
X56420237Y-119342319D02*
X56229761Y-119342319D01*
X56229761Y-119342319D02*
X56134523Y-119294700D01*
X56134523Y-119294700D02*
X56086904Y-119247080D01*
X56086904Y-119247080D02*
X56039285Y-119151842D01*
X56039285Y-119151842D02*
X56039285Y-118913747D01*
X56039285Y-118913747D02*
X56086904Y-118818509D01*
X56086904Y-118818509D02*
X56134523Y-118770890D01*
X56134523Y-118770890D02*
X56229761Y-118723271D01*
X56229761Y-118723271D02*
X56420237Y-118723271D01*
X56420237Y-118723271D02*
X56515475Y-118770890D01*
X56515475Y-118770890D02*
X56563094Y-118818509D01*
X56563094Y-118818509D02*
X56610713Y-118913747D01*
X56991666Y-120867319D02*
X57324999Y-120391128D01*
X57563094Y-120867319D02*
X57563094Y-119867319D01*
X57563094Y-119867319D02*
X57182142Y-119867319D01*
X57182142Y-119867319D02*
X57086904Y-119914938D01*
X57086904Y-119914938D02*
X57039285Y-119962557D01*
X57039285Y-119962557D02*
X56991666Y-120057795D01*
X56991666Y-120057795D02*
X56991666Y-120200652D01*
X56991666Y-120200652D02*
X57039285Y-120295890D01*
X57039285Y-120295890D02*
X57086904Y-120343509D01*
X57086904Y-120343509D02*
X57182142Y-120391128D01*
X57182142Y-120391128D02*
X57563094Y-120391128D01*
X56086904Y-119867319D02*
X56563094Y-119867319D01*
X56563094Y-119867319D02*
X56610713Y-120343509D01*
X56610713Y-120343509D02*
X56563094Y-120295890D01*
X56563094Y-120295890D02*
X56467856Y-120248271D01*
X56467856Y-120248271D02*
X56229761Y-120248271D01*
X56229761Y-120248271D02*
X56134523Y-120295890D01*
X56134523Y-120295890D02*
X56086904Y-120343509D01*
X56086904Y-120343509D02*
X56039285Y-120438747D01*
X56039285Y-120438747D02*
X56039285Y-120676842D01*
X56039285Y-120676842D02*
X56086904Y-120772080D01*
X56086904Y-120772080D02*
X56134523Y-120819700D01*
X56134523Y-120819700D02*
X56229761Y-120867319D01*
X56229761Y-120867319D02*
X56467856Y-120867319D01*
X56467856Y-120867319D02*
X56563094Y-120819700D01*
X56563094Y-120819700D02*
X56610713Y-120772080D01*
X63454819Y-124420833D02*
X62978628Y-124087500D01*
X63454819Y-123849405D02*
X62454819Y-123849405D01*
X62454819Y-123849405D02*
X62454819Y-124230357D01*
X62454819Y-124230357D02*
X62502438Y-124325595D01*
X62502438Y-124325595D02*
X62550057Y-124373214D01*
X62550057Y-124373214D02*
X62645295Y-124420833D01*
X62645295Y-124420833D02*
X62788152Y-124420833D01*
X62788152Y-124420833D02*
X62883390Y-124373214D01*
X62883390Y-124373214D02*
X62931009Y-124325595D01*
X62931009Y-124325595D02*
X62978628Y-124230357D01*
X62978628Y-124230357D02*
X62978628Y-123849405D01*
X62788152Y-125277976D02*
X63454819Y-125277976D01*
X62407200Y-125039881D02*
X63121485Y-124801786D01*
X63121485Y-124801786D02*
X63121485Y-125420833D01*
X64979819Y-124420833D02*
X64503628Y-124087500D01*
X64979819Y-123849405D02*
X63979819Y-123849405D01*
X63979819Y-123849405D02*
X63979819Y-124230357D01*
X63979819Y-124230357D02*
X64027438Y-124325595D01*
X64027438Y-124325595D02*
X64075057Y-124373214D01*
X64075057Y-124373214D02*
X64170295Y-124420833D01*
X64170295Y-124420833D02*
X64313152Y-124420833D01*
X64313152Y-124420833D02*
X64408390Y-124373214D01*
X64408390Y-124373214D02*
X64456009Y-124325595D01*
X64456009Y-124325595D02*
X64503628Y-124230357D01*
X64503628Y-124230357D02*
X64503628Y-123849405D01*
X63979819Y-124754167D02*
X63979819Y-125373214D01*
X63979819Y-125373214D02*
X64360771Y-125039881D01*
X64360771Y-125039881D02*
X64360771Y-125182738D01*
X64360771Y-125182738D02*
X64408390Y-125277976D01*
X64408390Y-125277976D02*
X64456009Y-125325595D01*
X64456009Y-125325595D02*
X64551247Y-125373214D01*
X64551247Y-125373214D02*
X64789342Y-125373214D01*
X64789342Y-125373214D02*
X64884580Y-125325595D01*
X64884580Y-125325595D02*
X64932200Y-125277976D01*
X64932200Y-125277976D02*
X64979819Y-125182738D01*
X64979819Y-125182738D02*
X64979819Y-124897024D01*
X64979819Y-124897024D02*
X64932200Y-124801786D01*
X64932200Y-124801786D02*
X64884580Y-124754167D01*
X66504819Y-124420833D02*
X66028628Y-124087500D01*
X66504819Y-123849405D02*
X65504819Y-123849405D01*
X65504819Y-123849405D02*
X65504819Y-124230357D01*
X65504819Y-124230357D02*
X65552438Y-124325595D01*
X65552438Y-124325595D02*
X65600057Y-124373214D01*
X65600057Y-124373214D02*
X65695295Y-124420833D01*
X65695295Y-124420833D02*
X65838152Y-124420833D01*
X65838152Y-124420833D02*
X65933390Y-124373214D01*
X65933390Y-124373214D02*
X65981009Y-124325595D01*
X65981009Y-124325595D02*
X66028628Y-124230357D01*
X66028628Y-124230357D02*
X66028628Y-123849405D01*
X65600057Y-124801786D02*
X65552438Y-124849405D01*
X65552438Y-124849405D02*
X65504819Y-124944643D01*
X65504819Y-124944643D02*
X65504819Y-125182738D01*
X65504819Y-125182738D02*
X65552438Y-125277976D01*
X65552438Y-125277976D02*
X65600057Y-125325595D01*
X65600057Y-125325595D02*
X65695295Y-125373214D01*
X65695295Y-125373214D02*
X65790533Y-125373214D01*
X65790533Y-125373214D02*
X65933390Y-125325595D01*
X65933390Y-125325595D02*
X66504819Y-124754167D01*
X66504819Y-124754167D02*
X66504819Y-125373214D01*
X68029819Y-124420833D02*
X67553628Y-124087500D01*
X68029819Y-123849405D02*
X67029819Y-123849405D01*
X67029819Y-123849405D02*
X67029819Y-124230357D01*
X67029819Y-124230357D02*
X67077438Y-124325595D01*
X67077438Y-124325595D02*
X67125057Y-124373214D01*
X67125057Y-124373214D02*
X67220295Y-124420833D01*
X67220295Y-124420833D02*
X67363152Y-124420833D01*
X67363152Y-124420833D02*
X67458390Y-124373214D01*
X67458390Y-124373214D02*
X67506009Y-124325595D01*
X67506009Y-124325595D02*
X67553628Y-124230357D01*
X67553628Y-124230357D02*
X67553628Y-123849405D01*
X68029819Y-125373214D02*
X68029819Y-124801786D01*
X68029819Y-125087500D02*
X67029819Y-125087500D01*
X67029819Y-125087500D02*
X67172676Y-124992262D01*
X67172676Y-124992262D02*
X67267914Y-124897024D01*
X67267914Y-124897024D02*
X67315533Y-124801786D01*
X72370238Y-112537557D02*
X72465476Y-112489938D01*
X72465476Y-112489938D02*
X72560714Y-112394700D01*
X72560714Y-112394700D02*
X72703571Y-112251842D01*
X72703571Y-112251842D02*
X72798809Y-112204223D01*
X72798809Y-112204223D02*
X72894047Y-112204223D01*
X72846428Y-112442319D02*
X72941666Y-112394700D01*
X72941666Y-112394700D02*
X73036904Y-112299461D01*
X73036904Y-112299461D02*
X73084523Y-112108985D01*
X73084523Y-112108985D02*
X73084523Y-111775652D01*
X73084523Y-111775652D02*
X73036904Y-111585176D01*
X73036904Y-111585176D02*
X72941666Y-111489938D01*
X72941666Y-111489938D02*
X72846428Y-111442319D01*
X72846428Y-111442319D02*
X72655952Y-111442319D01*
X72655952Y-111442319D02*
X72560714Y-111489938D01*
X72560714Y-111489938D02*
X72465476Y-111585176D01*
X72465476Y-111585176D02*
X72417857Y-111775652D01*
X72417857Y-111775652D02*
X72417857Y-112108985D01*
X72417857Y-112108985D02*
X72465476Y-112299461D01*
X72465476Y-112299461D02*
X72560714Y-112394700D01*
X72560714Y-112394700D02*
X72655952Y-112442319D01*
X72655952Y-112442319D02*
X72846428Y-112442319D01*
X72036904Y-111537557D02*
X71989285Y-111489938D01*
X71989285Y-111489938D02*
X71894047Y-111442319D01*
X71894047Y-111442319D02*
X71655952Y-111442319D01*
X71655952Y-111442319D02*
X71560714Y-111489938D01*
X71560714Y-111489938D02*
X71513095Y-111537557D01*
X71513095Y-111537557D02*
X71465476Y-111632795D01*
X71465476Y-111632795D02*
X71465476Y-111728033D01*
X71465476Y-111728033D02*
X71513095Y-111870890D01*
X71513095Y-111870890D02*
X72084523Y-112442319D01*
X72084523Y-112442319D02*
X71465476Y-112442319D01*
X73642857Y-123279819D02*
X74119047Y-123279819D01*
X74119047Y-123279819D02*
X74119047Y-122279819D01*
X73357142Y-123232200D02*
X73214285Y-123279819D01*
X73214285Y-123279819D02*
X72976190Y-123279819D01*
X72976190Y-123279819D02*
X72880952Y-123232200D01*
X72880952Y-123232200D02*
X72833333Y-123184580D01*
X72833333Y-123184580D02*
X72785714Y-123089342D01*
X72785714Y-123089342D02*
X72785714Y-122994104D01*
X72785714Y-122994104D02*
X72833333Y-122898866D01*
X72833333Y-122898866D02*
X72880952Y-122851247D01*
X72880952Y-122851247D02*
X72976190Y-122803628D01*
X72976190Y-122803628D02*
X73166666Y-122756009D01*
X73166666Y-122756009D02*
X73261904Y-122708390D01*
X73261904Y-122708390D02*
X73309523Y-122660771D01*
X73309523Y-122660771D02*
X73357142Y-122565533D01*
X73357142Y-122565533D02*
X73357142Y-122470295D01*
X73357142Y-122470295D02*
X73309523Y-122375057D01*
X73309523Y-122375057D02*
X73261904Y-122327438D01*
X73261904Y-122327438D02*
X73166666Y-122279819D01*
X73166666Y-122279819D02*
X72928571Y-122279819D01*
X72928571Y-122279819D02*
X72785714Y-122327438D01*
X71833333Y-123279819D02*
X72404761Y-123279819D01*
X72119047Y-123279819D02*
X72119047Y-122279819D01*
X72119047Y-122279819D02*
X72214285Y-122422676D01*
X72214285Y-122422676D02*
X72309523Y-122517914D01*
X72309523Y-122517914D02*
X72404761Y-122565533D01*
X59274819Y-164566666D02*
X59989104Y-164566666D01*
X59989104Y-164566666D02*
X60131961Y-164519047D01*
X60131961Y-164519047D02*
X60227200Y-164423809D01*
X60227200Y-164423809D02*
X60274819Y-164280952D01*
X60274819Y-164280952D02*
X60274819Y-164185714D01*
X60274819Y-165566666D02*
X60274819Y-164995238D01*
X60274819Y-165280952D02*
X59274819Y-165280952D01*
X59274819Y-165280952D02*
X59417676Y-165185714D01*
X59417676Y-165185714D02*
X59512914Y-165090476D01*
X59512914Y-165090476D02*
X59560533Y-164995238D01*
D14*
X52080017Y-88875824D02*
X52342146Y-88692279D01*
X52342146Y-88692279D02*
X52298445Y-88629868D01*
X52298445Y-88629868D02*
X52259742Y-88601161D01*
X52259742Y-88601161D02*
X52217297Y-88593677D01*
X52217297Y-88593677D02*
X52183592Y-88598675D01*
X52183592Y-88598675D02*
X52124922Y-88621153D01*
X52124922Y-88621153D02*
X52087475Y-88647374D01*
X52087475Y-88647374D02*
X52046286Y-88694817D01*
X52046286Y-88694817D02*
X52030062Y-88724780D01*
X52030062Y-88724780D02*
X52022578Y-88767225D01*
X52022578Y-88767225D02*
X52036316Y-88813412D01*
X52036316Y-88813412D02*
X52080017Y-88875824D01*
X51800330Y-88476390D02*
X51905213Y-88626177D01*
X51852771Y-88551284D02*
X52114900Y-88367739D01*
X52114900Y-88367739D02*
X52094934Y-88418924D01*
X52094934Y-88418924D02*
X52087449Y-88461369D01*
X52087449Y-88461369D02*
X52092447Y-88495074D01*
X51625526Y-88226743D02*
X51730408Y-88376531D01*
X51677967Y-88301637D02*
X51940096Y-88118093D01*
X51940096Y-88118093D02*
X51920129Y-88169278D01*
X51920129Y-88169278D02*
X51912645Y-88211723D01*
X51912645Y-88211723D02*
X51917643Y-88245428D01*
D15*
X47562592Y-89799519D02*
X47352827Y-89499944D01*
X47307922Y-89754614D02*
X47607497Y-89544849D01*
D14*
X40505017Y-93275824D02*
X40767146Y-93092279D01*
X40767146Y-93092279D02*
X40723445Y-93029868D01*
X40723445Y-93029868D02*
X40684742Y-93001161D01*
X40684742Y-93001161D02*
X40642297Y-92993677D01*
X40642297Y-92993677D02*
X40608592Y-92998675D01*
X40608592Y-92998675D02*
X40549922Y-93021153D01*
X40549922Y-93021153D02*
X40512475Y-93047374D01*
X40512475Y-93047374D02*
X40471286Y-93094817D01*
X40471286Y-93094817D02*
X40455062Y-93124780D01*
X40455062Y-93124780D02*
X40447578Y-93167225D01*
X40447578Y-93167225D02*
X40461316Y-93213412D01*
X40461316Y-93213412D02*
X40505017Y-93275824D01*
X40225330Y-92876390D02*
X40330213Y-93026177D01*
X40277771Y-92951284D02*
X40539900Y-92767739D01*
X40539900Y-92767739D02*
X40519934Y-92818924D01*
X40519934Y-92818924D02*
X40512449Y-92861369D01*
X40512449Y-92861369D02*
X40517447Y-92895074D01*
X40373836Y-92530575D02*
X40356356Y-92505610D01*
X40356356Y-92505610D02*
X40326393Y-92489386D01*
X40326393Y-92489386D02*
X40305170Y-92485644D01*
X40305170Y-92485644D02*
X40271465Y-92490642D01*
X40271465Y-92490642D02*
X40212796Y-92513120D01*
X40212796Y-92513120D02*
X40150384Y-92556821D01*
X40150384Y-92556821D02*
X40109195Y-92604265D01*
X40109195Y-92604265D02*
X40092971Y-92634227D01*
X40092971Y-92634227D02*
X40089229Y-92655450D01*
X40089229Y-92655450D02*
X40094227Y-92689155D01*
X40094227Y-92689155D02*
X40111707Y-92714119D01*
X40111707Y-92714119D02*
X40141670Y-92730344D01*
X40141670Y-92730344D02*
X40162893Y-92734086D01*
X40162893Y-92734086D02*
X40196597Y-92729088D01*
X40196597Y-92729088D02*
X40255267Y-92706609D01*
X40255267Y-92706609D02*
X40317679Y-92662908D01*
X40317679Y-92662908D02*
X40358868Y-92615465D01*
X40358868Y-92615465D02*
X40375092Y-92585502D01*
X40375092Y-92585502D02*
X40378834Y-92564280D01*
X40378834Y-92564280D02*
X40373836Y-92530575D01*
D15*
X45960369Y-92515327D02*
X45750604Y-92215752D01*
X45705699Y-92470422D02*
X46005274Y-92260657D01*
D14*
X50593312Y-103086471D02*
X50273312Y-103086471D01*
X50273312Y-103086471D02*
X50273312Y-103162661D01*
X50273312Y-103162661D02*
X50288550Y-103208376D01*
X50288550Y-103208376D02*
X50319026Y-103238852D01*
X50319026Y-103238852D02*
X50349502Y-103254090D01*
X50349502Y-103254090D02*
X50410454Y-103269328D01*
X50410454Y-103269328D02*
X50456169Y-103269328D01*
X50456169Y-103269328D02*
X50517121Y-103254090D01*
X50517121Y-103254090D02*
X50547597Y-103238852D01*
X50547597Y-103238852D02*
X50578074Y-103208376D01*
X50578074Y-103208376D02*
X50593312Y-103162661D01*
X50593312Y-103162661D02*
X50593312Y-103086471D01*
X50410454Y-103452185D02*
X50395216Y-103421709D01*
X50395216Y-103421709D02*
X50379978Y-103406471D01*
X50379978Y-103406471D02*
X50349502Y-103391233D01*
X50349502Y-103391233D02*
X50334264Y-103391233D01*
X50334264Y-103391233D02*
X50303788Y-103406471D01*
X50303788Y-103406471D02*
X50288550Y-103421709D01*
X50288550Y-103421709D02*
X50273312Y-103452185D01*
X50273312Y-103452185D02*
X50273312Y-103513138D01*
X50273312Y-103513138D02*
X50288550Y-103543614D01*
X50288550Y-103543614D02*
X50303788Y-103558852D01*
X50303788Y-103558852D02*
X50334264Y-103574090D01*
X50334264Y-103574090D02*
X50349502Y-103574090D01*
X50349502Y-103574090D02*
X50379978Y-103558852D01*
X50379978Y-103558852D02*
X50395216Y-103543614D01*
X50395216Y-103543614D02*
X50410454Y-103513138D01*
X50410454Y-103513138D02*
X50410454Y-103452185D01*
X50410454Y-103452185D02*
X50425693Y-103421709D01*
X50425693Y-103421709D02*
X50440931Y-103406471D01*
X50440931Y-103406471D02*
X50471407Y-103391233D01*
X50471407Y-103391233D02*
X50532359Y-103391233D01*
X50532359Y-103391233D02*
X50562835Y-103406471D01*
X50562835Y-103406471D02*
X50578074Y-103421709D01*
X50578074Y-103421709D02*
X50593312Y-103452185D01*
X50593312Y-103452185D02*
X50593312Y-103513138D01*
X50593312Y-103513138D02*
X50578074Y-103543614D01*
X50578074Y-103543614D02*
X50562835Y-103558852D01*
X50562835Y-103558852D02*
X50532359Y-103574090D01*
X50532359Y-103574090D02*
X50471407Y-103574090D01*
X50471407Y-103574090D02*
X50440931Y-103558852D01*
X50440931Y-103558852D02*
X50425693Y-103543614D01*
X50425693Y-103543614D02*
X50410454Y-103513138D01*
D15*
X52146594Y-104675804D02*
X52146594Y-105041519D01*
X52329451Y-104858661D02*
X51963736Y-104858661D01*
D14*
X41842109Y-122788809D02*
X41522109Y-122788809D01*
X41522109Y-122788809D02*
X41522109Y-122864999D01*
X41522109Y-122864999D02*
X41537347Y-122910714D01*
X41537347Y-122910714D02*
X41567823Y-122941190D01*
X41567823Y-122941190D02*
X41598299Y-122956428D01*
X41598299Y-122956428D02*
X41659251Y-122971666D01*
X41659251Y-122971666D02*
X41704966Y-122971666D01*
X41704966Y-122971666D02*
X41765918Y-122956428D01*
X41765918Y-122956428D02*
X41796394Y-122941190D01*
X41796394Y-122941190D02*
X41826871Y-122910714D01*
X41826871Y-122910714D02*
X41842109Y-122864999D01*
X41842109Y-122864999D02*
X41842109Y-122788809D01*
X41522109Y-123078333D02*
X41522109Y-123291666D01*
X41522109Y-123291666D02*
X41842109Y-123154523D01*
D15*
X43395391Y-124378142D02*
X43395391Y-124743857D01*
X43578248Y-124560999D02*
X43212533Y-124560999D01*
D14*
X48030979Y-142040676D02*
X47710979Y-142040676D01*
X47710979Y-142040676D02*
X47710979Y-142116866D01*
X47710979Y-142116866D02*
X47726217Y-142162581D01*
X47726217Y-142162581D02*
X47756693Y-142193057D01*
X47756693Y-142193057D02*
X47787169Y-142208295D01*
X47787169Y-142208295D02*
X47848121Y-142223533D01*
X47848121Y-142223533D02*
X47893836Y-142223533D01*
X47893836Y-142223533D02*
X47954788Y-142208295D01*
X47954788Y-142208295D02*
X47985264Y-142193057D01*
X47985264Y-142193057D02*
X48015741Y-142162581D01*
X48015741Y-142162581D02*
X48030979Y-142116866D01*
X48030979Y-142116866D02*
X48030979Y-142040676D01*
X47710979Y-142497819D02*
X47710979Y-142436866D01*
X47710979Y-142436866D02*
X47726217Y-142406390D01*
X47726217Y-142406390D02*
X47741455Y-142391152D01*
X47741455Y-142391152D02*
X47787169Y-142360676D01*
X47787169Y-142360676D02*
X47848121Y-142345438D01*
X47848121Y-142345438D02*
X47970026Y-142345438D01*
X47970026Y-142345438D02*
X48000502Y-142360676D01*
X48000502Y-142360676D02*
X48015741Y-142375914D01*
X48015741Y-142375914D02*
X48030979Y-142406390D01*
X48030979Y-142406390D02*
X48030979Y-142467343D01*
X48030979Y-142467343D02*
X48015741Y-142497819D01*
X48015741Y-142497819D02*
X48000502Y-142513057D01*
X48000502Y-142513057D02*
X47970026Y-142528295D01*
X47970026Y-142528295D02*
X47893836Y-142528295D01*
X47893836Y-142528295D02*
X47863360Y-142513057D01*
X47863360Y-142513057D02*
X47848121Y-142497819D01*
X47848121Y-142497819D02*
X47832883Y-142467343D01*
X47832883Y-142467343D02*
X47832883Y-142406390D01*
X47832883Y-142406390D02*
X47848121Y-142375914D01*
X47848121Y-142375914D02*
X47863360Y-142360676D01*
X47863360Y-142360676D02*
X47893836Y-142345438D01*
D15*
X49584261Y-143630009D02*
X49584261Y-143995724D01*
X49767118Y-143812866D02*
X49401403Y-143812866D01*
D14*
X56115678Y-158463809D02*
X55795678Y-158463809D01*
X55795678Y-158463809D02*
X55795678Y-158539999D01*
X55795678Y-158539999D02*
X55810916Y-158585714D01*
X55810916Y-158585714D02*
X55841392Y-158616190D01*
X55841392Y-158616190D02*
X55871868Y-158631428D01*
X55871868Y-158631428D02*
X55932820Y-158646666D01*
X55932820Y-158646666D02*
X55978535Y-158646666D01*
X55978535Y-158646666D02*
X56039487Y-158631428D01*
X56039487Y-158631428D02*
X56069963Y-158616190D01*
X56069963Y-158616190D02*
X56100440Y-158585714D01*
X56100440Y-158585714D02*
X56115678Y-158539999D01*
X56115678Y-158539999D02*
X56115678Y-158463809D01*
X55795678Y-158936190D02*
X55795678Y-158783809D01*
X55795678Y-158783809D02*
X55948059Y-158768571D01*
X55948059Y-158768571D02*
X55932820Y-158783809D01*
X55932820Y-158783809D02*
X55917582Y-158814285D01*
X55917582Y-158814285D02*
X55917582Y-158890476D01*
X55917582Y-158890476D02*
X55932820Y-158920952D01*
X55932820Y-158920952D02*
X55948059Y-158936190D01*
X55948059Y-158936190D02*
X55978535Y-158951428D01*
X55978535Y-158951428D02*
X56054725Y-158951428D01*
X56054725Y-158951428D02*
X56085201Y-158936190D01*
X56085201Y-158936190D02*
X56100440Y-158920952D01*
X56100440Y-158920952D02*
X56115678Y-158890476D01*
X56115678Y-158890476D02*
X56115678Y-158814285D01*
X56115678Y-158814285D02*
X56100440Y-158783809D01*
X56100440Y-158783809D02*
X56085201Y-158768571D01*
D15*
X57668960Y-160053142D02*
X57668960Y-160418857D01*
X57851817Y-160235999D02*
X57486102Y-160235999D01*
D14*
X79173561Y-157565379D02*
X78853561Y-157565379D01*
X78853561Y-157565379D02*
X78853561Y-157641569D01*
X78853561Y-157641569D02*
X78868799Y-157687284D01*
X78868799Y-157687284D02*
X78899275Y-157717760D01*
X78899275Y-157717760D02*
X78929751Y-157732998D01*
X78929751Y-157732998D02*
X78990703Y-157748236D01*
X78990703Y-157748236D02*
X79036418Y-157748236D01*
X79036418Y-157748236D02*
X79097370Y-157732998D01*
X79097370Y-157732998D02*
X79127846Y-157717760D01*
X79127846Y-157717760D02*
X79158323Y-157687284D01*
X79158323Y-157687284D02*
X79173561Y-157641569D01*
X79173561Y-157641569D02*
X79173561Y-157565379D01*
X78960227Y-158022522D02*
X79173561Y-158022522D01*
X78838323Y-157946331D02*
X79066894Y-157870141D01*
X79066894Y-157870141D02*
X79066894Y-158068236D01*
D15*
X77398443Y-156082712D02*
X77398443Y-156448427D01*
X77581300Y-156265569D02*
X77215585Y-156265569D01*
D14*
X86324992Y-140465379D02*
X86004992Y-140465379D01*
X86004992Y-140465379D02*
X86004992Y-140541569D01*
X86004992Y-140541569D02*
X86020230Y-140587284D01*
X86020230Y-140587284D02*
X86050706Y-140617760D01*
X86050706Y-140617760D02*
X86081182Y-140632998D01*
X86081182Y-140632998D02*
X86142134Y-140648236D01*
X86142134Y-140648236D02*
X86187849Y-140648236D01*
X86187849Y-140648236D02*
X86248801Y-140632998D01*
X86248801Y-140632998D02*
X86279277Y-140617760D01*
X86279277Y-140617760D02*
X86309754Y-140587284D01*
X86309754Y-140587284D02*
X86324992Y-140541569D01*
X86324992Y-140541569D02*
X86324992Y-140465379D01*
X86004992Y-140754903D02*
X86004992Y-140952998D01*
X86004992Y-140952998D02*
X86126896Y-140846331D01*
X86126896Y-140846331D02*
X86126896Y-140892046D01*
X86126896Y-140892046D02*
X86142134Y-140922522D01*
X86142134Y-140922522D02*
X86157373Y-140937760D01*
X86157373Y-140937760D02*
X86187849Y-140952998D01*
X86187849Y-140952998D02*
X86264039Y-140952998D01*
X86264039Y-140952998D02*
X86294515Y-140937760D01*
X86294515Y-140937760D02*
X86309754Y-140922522D01*
X86309754Y-140922522D02*
X86324992Y-140892046D01*
X86324992Y-140892046D02*
X86324992Y-140800617D01*
X86324992Y-140800617D02*
X86309754Y-140770141D01*
X86309754Y-140770141D02*
X86294515Y-140754903D01*
D15*
X84549874Y-138982712D02*
X84549874Y-139348427D01*
X84732731Y-139165569D02*
X84367016Y-139165569D01*
D14*
X88884691Y-121788512D02*
X88564691Y-121788512D01*
X88564691Y-121788512D02*
X88564691Y-121864702D01*
X88564691Y-121864702D02*
X88579929Y-121910417D01*
X88579929Y-121910417D02*
X88610405Y-121940893D01*
X88610405Y-121940893D02*
X88640881Y-121956131D01*
X88640881Y-121956131D02*
X88701833Y-121971369D01*
X88701833Y-121971369D02*
X88747548Y-121971369D01*
X88747548Y-121971369D02*
X88808500Y-121956131D01*
X88808500Y-121956131D02*
X88838976Y-121940893D01*
X88838976Y-121940893D02*
X88869453Y-121910417D01*
X88869453Y-121910417D02*
X88884691Y-121864702D01*
X88884691Y-121864702D02*
X88884691Y-121788512D01*
X88595167Y-122093274D02*
X88579929Y-122108512D01*
X88579929Y-122108512D02*
X88564691Y-122138988D01*
X88564691Y-122138988D02*
X88564691Y-122215179D01*
X88564691Y-122215179D02*
X88579929Y-122245655D01*
X88579929Y-122245655D02*
X88595167Y-122260893D01*
X88595167Y-122260893D02*
X88625643Y-122276131D01*
X88625643Y-122276131D02*
X88656119Y-122276131D01*
X88656119Y-122276131D02*
X88701833Y-122260893D01*
X88701833Y-122260893D02*
X88884691Y-122078036D01*
X88884691Y-122078036D02*
X88884691Y-122276131D01*
D15*
X87109573Y-120305845D02*
X87109573Y-120671560D01*
X87292430Y-120488702D02*
X86926715Y-120488702D01*
D14*
X81838861Y-103263512D02*
X81518861Y-103263512D01*
X81518861Y-103263512D02*
X81518861Y-103339702D01*
X81518861Y-103339702D02*
X81534099Y-103385417D01*
X81534099Y-103385417D02*
X81564575Y-103415893D01*
X81564575Y-103415893D02*
X81595051Y-103431131D01*
X81595051Y-103431131D02*
X81656003Y-103446369D01*
X81656003Y-103446369D02*
X81701718Y-103446369D01*
X81701718Y-103446369D02*
X81762670Y-103431131D01*
X81762670Y-103431131D02*
X81793146Y-103415893D01*
X81793146Y-103415893D02*
X81823623Y-103385417D01*
X81823623Y-103385417D02*
X81838861Y-103339702D01*
X81838861Y-103339702D02*
X81838861Y-103263512D01*
X81838861Y-103751131D02*
X81838861Y-103568274D01*
X81838861Y-103659702D02*
X81518861Y-103659702D01*
X81518861Y-103659702D02*
X81564575Y-103629226D01*
X81564575Y-103629226D02*
X81595051Y-103598750D01*
X81595051Y-103598750D02*
X81610289Y-103568274D01*
D15*
X80063743Y-101780845D02*
X80063743Y-102146560D01*
X80246600Y-101963702D02*
X79880885Y-101963702D01*
D13*
X73608276Y-120245833D02*
X73655896Y-120198214D01*
X73655896Y-120198214D02*
X73703515Y-120055357D01*
X73703515Y-120055357D02*
X73703515Y-119960119D01*
X73703515Y-119960119D02*
X73655896Y-119817262D01*
X73655896Y-119817262D02*
X73560657Y-119722024D01*
X73560657Y-119722024D02*
X73465419Y-119674405D01*
X73465419Y-119674405D02*
X73274943Y-119626786D01*
X73274943Y-119626786D02*
X73132086Y-119626786D01*
X73132086Y-119626786D02*
X72941610Y-119674405D01*
X72941610Y-119674405D02*
X72846372Y-119722024D01*
X72846372Y-119722024D02*
X72751134Y-119817262D01*
X72751134Y-119817262D02*
X72703515Y-119960119D01*
X72703515Y-119960119D02*
X72703515Y-120055357D01*
X72703515Y-120055357D02*
X72751134Y-120198214D01*
X72751134Y-120198214D02*
X72798753Y-120245833D01*
X72703515Y-120579167D02*
X72703515Y-121198214D01*
X72703515Y-121198214D02*
X73084467Y-120864881D01*
X73084467Y-120864881D02*
X73084467Y-121007738D01*
X73084467Y-121007738D02*
X73132086Y-121102976D01*
X73132086Y-121102976D02*
X73179705Y-121150595D01*
X73179705Y-121150595D02*
X73274943Y-121198214D01*
X73274943Y-121198214D02*
X73513038Y-121198214D01*
X73513038Y-121198214D02*
X73608276Y-121150595D01*
X73608276Y-121150595D02*
X73655896Y-121102976D01*
X73655896Y-121102976D02*
X73703515Y-121007738D01*
X73703515Y-121007738D02*
X73703515Y-120722024D01*
X73703515Y-120722024D02*
X73655896Y-120626786D01*
X73655896Y-120626786D02*
X73608276Y-120579167D01*
X68666666Y-117184580D02*
X68714285Y-117232200D01*
X68714285Y-117232200D02*
X68857142Y-117279819D01*
X68857142Y-117279819D02*
X68952380Y-117279819D01*
X68952380Y-117279819D02*
X69095237Y-117232200D01*
X69095237Y-117232200D02*
X69190475Y-117136961D01*
X69190475Y-117136961D02*
X69238094Y-117041723D01*
X69238094Y-117041723D02*
X69285713Y-116851247D01*
X69285713Y-116851247D02*
X69285713Y-116708390D01*
X69285713Y-116708390D02*
X69238094Y-116517914D01*
X69238094Y-116517914D02*
X69190475Y-116422676D01*
X69190475Y-116422676D02*
X69095237Y-116327438D01*
X69095237Y-116327438D02*
X68952380Y-116279819D01*
X68952380Y-116279819D02*
X68857142Y-116279819D01*
X68857142Y-116279819D02*
X68714285Y-116327438D01*
X68714285Y-116327438D02*
X68666666Y-116375057D01*
X68285713Y-116375057D02*
X68238094Y-116327438D01*
X68238094Y-116327438D02*
X68142856Y-116279819D01*
X68142856Y-116279819D02*
X67904761Y-116279819D01*
X67904761Y-116279819D02*
X67809523Y-116327438D01*
X67809523Y-116327438D02*
X67761904Y-116375057D01*
X67761904Y-116375057D02*
X67714285Y-116470295D01*
X67714285Y-116470295D02*
X67714285Y-116565533D01*
X67714285Y-116565533D02*
X67761904Y-116708390D01*
X67761904Y-116708390D02*
X68333332Y-117279819D01*
X68333332Y-117279819D02*
X67714285Y-117279819D01*
X69309580Y-121133333D02*
X69357200Y-121085714D01*
X69357200Y-121085714D02*
X69404819Y-120942857D01*
X69404819Y-120942857D02*
X69404819Y-120847619D01*
X69404819Y-120847619D02*
X69357200Y-120704762D01*
X69357200Y-120704762D02*
X69261961Y-120609524D01*
X69261961Y-120609524D02*
X69166723Y-120561905D01*
X69166723Y-120561905D02*
X68976247Y-120514286D01*
X68976247Y-120514286D02*
X68833390Y-120514286D01*
X68833390Y-120514286D02*
X68642914Y-120561905D01*
X68642914Y-120561905D02*
X68547676Y-120609524D01*
X68547676Y-120609524D02*
X68452438Y-120704762D01*
X68452438Y-120704762D02*
X68404819Y-120847619D01*
X68404819Y-120847619D02*
X68404819Y-120942857D01*
X68404819Y-120942857D02*
X68452438Y-121085714D01*
X68452438Y-121085714D02*
X68500057Y-121133333D01*
X69404819Y-122085714D02*
X69404819Y-121514286D01*
X69404819Y-121800000D02*
X68404819Y-121800000D01*
X68404819Y-121800000D02*
X68547676Y-121704762D01*
X68547676Y-121704762D02*
X68642914Y-121609524D01*
X68642914Y-121609524D02*
X68690533Y-121514286D01*
%TO.C,J2*%
X67565845Y-149904274D02*
X69565845Y-149904274D01*
X69565845Y-150179274D01*
X67565845Y-150179274D01*
X67565845Y-149904274D01*
X65565845Y-149904274D02*
X67565845Y-149904274D01*
X67565845Y-150179274D01*
X65565845Y-150179274D01*
X65565845Y-149904274D01*
D15*
X59965845Y-149904274D02*
X75165845Y-149904274D01*
X75165845Y-158704274D01*
X59965845Y-158704274D01*
X59965845Y-149904274D01*
X63460845Y-153029274D02*
X63460845Y-151699274D01*
X63460845Y-151699274D02*
X64790845Y-151699274D01*
X71200845Y-151699274D02*
X66060845Y-151699274D01*
X66060845Y-154299274D02*
X66060845Y-151699274D01*
X71200845Y-156899274D02*
X71200845Y-151699274D01*
X63460845Y-156899274D02*
X63460845Y-154299274D01*
X63460845Y-154299274D02*
X66060845Y-154299274D01*
X71200845Y-156899274D02*
X63460845Y-156899274D01*
D16*
%TO.C,D20*%
X90383463Y-93520205D02*
G75*
G02*
X89752529Y-94421274I-561215J-278460D01*
G01*
%TO.C,D15*%
X72137546Y-93413610D02*
G75*
G02*
X73220833Y-93604623I489549J-390949D01*
G01*
%TO.C,D16*%
X75760191Y-87951527D02*
G75*
G02*
X75951204Y-86868234I390951J489552D01*
G01*
%TO.C,D13*%
X56848795Y-84543237D02*
G75*
G02*
X57039808Y-85626526I-199936J-593739D01*
G01*
%TO.C,D9*%
X47433285Y-95490624D02*
G75*
G02*
X46802352Y-94589557I-69720J622607D01*
G01*
%TO.C,D12*%
X61204622Y-90320833D02*
G75*
G02*
X61013610Y-89237544I199938J593739D01*
G01*
%TO.C,D19*%
X85541537Y-91354795D02*
G75*
G02*
X86172471Y-90453726I561215J278460D01*
G01*
%TO.C,D18*%
X83139558Y-98227351D02*
G75*
G02*
X84040627Y-98858285I278460J-561215D01*
G01*
%TO.C,D17*%
X76112456Y-81311391D02*
G75*
G02*
X75029165Y-81120378I-489551J390951D01*
G01*
D15*
%TO.C,Q1*%
X75648696Y-115072500D02*
X76298696Y-115072500D01*
X76948696Y-115072500D02*
X76298696Y-115072500D01*
X75648696Y-111952500D02*
X76298696Y-111952500D01*
X76948696Y-111952500D02*
X76298696Y-111952500D01*
X75376196Y-115352500D02*
X74896196Y-115352500D01*
X75136196Y-115022500D01*
X75376196Y-115352500D01*
G36*
X75376196Y-115352500D02*
G01*
X74896196Y-115352500D01*
X75136196Y-115022500D01*
X75376196Y-115352500D01*
G37*
D16*
%TO.C,D14*%
X64582982Y-82580455D02*
G75*
G02*
X63681918Y-81949520I-278458J561213D01*
G01*
D15*
%TO.C,U1*%
X67060000Y-116342500D02*
X67060000Y-116552500D01*
X67060000Y-118872500D02*
X67060000Y-119322500D01*
X66760000Y-116102500D02*
X66610000Y-116102500D01*
X67060000Y-119322500D02*
X66610000Y-119322500D01*
X63840000Y-116102500D02*
X64290000Y-116102500D01*
X63840000Y-119322500D02*
X64290000Y-119322500D01*
X63840000Y-116552500D02*
X63840000Y-116102500D01*
X63840000Y-118872500D02*
X63840000Y-119322500D01*
X67060000Y-116102500D02*
X66820000Y-115772500D01*
X67300000Y-115772500D01*
X67060000Y-116102500D01*
G36*
X67060000Y-116102500D02*
G01*
X66820000Y-115772500D01*
X67300000Y-115772500D01*
X67060000Y-116102500D01*
G37*
%TO.C,R16*%
X69821196Y-114475242D02*
X69821196Y-114949758D01*
X68776196Y-114475242D02*
X68776196Y-114949758D01*
%TO.C,R15*%
X77771196Y-116500242D02*
X77771196Y-116974758D01*
X76726196Y-116500242D02*
X76726196Y-116974758D01*
%TO.C,R14*%
X75621196Y-116525242D02*
X75621196Y-116999758D01*
X74576196Y-116525242D02*
X74576196Y-116999758D01*
%TO.C,R13*%
X70636438Y-118090000D02*
X71110954Y-118090000D01*
X70636438Y-119135000D02*
X71110954Y-119135000D01*
%TO.C,R12*%
X68272500Y-114149758D02*
X68272500Y-113675242D01*
X67227500Y-114149758D02*
X67227500Y-113675242D01*
%TO.C,R11*%
X65702500Y-114149758D02*
X65702500Y-113675242D01*
X66747500Y-114149758D02*
X66747500Y-113675242D01*
%TO.C,R10*%
X64177500Y-114149758D02*
X64177500Y-113675242D01*
X65222500Y-114149758D02*
X65222500Y-113675242D01*
%TO.C,R9*%
X62652500Y-114149758D02*
X62652500Y-113675242D01*
X63697500Y-114149758D02*
X63697500Y-113675242D01*
%TO.C,R8*%
X59562258Y-116360000D02*
X59087742Y-116360000D01*
X59562258Y-115315000D02*
X59087742Y-115315000D01*
%TO.C,R7*%
X59562258Y-117885000D02*
X59087742Y-117885000D01*
X59562258Y-116840000D02*
X59087742Y-116840000D01*
%TO.C,R6*%
X59562258Y-119410000D02*
X59087742Y-119410000D01*
X59562258Y-118365000D02*
X59087742Y-118365000D01*
%TO.C,R5*%
X59562258Y-120935000D02*
X59087742Y-120935000D01*
X59562258Y-119890000D02*
X59087742Y-119890000D01*
%TO.C,R4*%
X63472500Y-121925242D02*
X63472500Y-122399758D01*
X62427500Y-121925242D02*
X62427500Y-122399758D01*
%TO.C,R3*%
X64997500Y-121925242D02*
X64997500Y-122399758D01*
X63952500Y-121925242D02*
X63952500Y-122399758D01*
%TO.C,R2*%
X66522500Y-121925242D02*
X66522500Y-122399758D01*
X65477500Y-121925242D02*
X65477500Y-122399758D01*
%TO.C,R1*%
X68047500Y-121925242D02*
X68047500Y-122399758D01*
X67002500Y-121925242D02*
X67002500Y-122399758D01*
%TO.C,Q2*%
X71411196Y-116047500D02*
X72061196Y-116047500D01*
X72711196Y-116047500D02*
X72061196Y-116047500D01*
X71411196Y-112927500D02*
X72061196Y-112927500D01*
X72711196Y-112927500D02*
X72061196Y-112927500D01*
X71138696Y-116327500D02*
X70658696Y-116327500D01*
X70898696Y-115997500D01*
X71138696Y-116327500D01*
G36*
X71138696Y-116327500D02*
G01*
X70658696Y-116327500D01*
X70898696Y-115997500D01*
X71138696Y-116327500D01*
G37*
%TO.C,LS1*%
X79135000Y-122415000D02*
X80935000Y-122415000D01*
X80935000Y-122415000D02*
X80935000Y-123865000D01*
X76235000Y-126685000D02*
X79665000Y-126685000D01*
X79135000Y-121425000D02*
X79135000Y-122415000D01*
X76765000Y-122415000D02*
X74965000Y-122415000D01*
X74965000Y-122415000D02*
X74965000Y-123865000D01*
%TO.C,J1*%
X60820000Y-164900000D02*
X60820000Y-163570000D01*
X60820000Y-163570000D02*
X62150000Y-163570000D01*
X68560000Y-163570000D02*
X63420000Y-163570000D01*
X63420000Y-166230000D02*
X63420000Y-163570000D01*
X68560000Y-166230000D02*
X68560000Y-163570000D01*
X68560000Y-166230000D02*
X63420000Y-166230000D01*
D16*
%TO.C,D11*%
X48591715Y-90059374D02*
G75*
G02*
X49222650Y-90960445I69719J-622610D01*
G01*
%TO.C,D10*%
X44775480Y-91918085D02*
G75*
G02*
X44144547Y-91017018I-69720J622607D01*
G01*
%TO.C,D8*%
X51452634Y-103872662D02*
G75*
G02*
X51452635Y-102772662I300002J550000D01*
G01*
%TO.C,D7*%
X42701431Y-123575000D02*
G75*
G02*
X42701432Y-122475000I300002J550000D01*
G01*
%TO.C,D6*%
X48890301Y-142826867D02*
G75*
G02*
X48890302Y-141726867I300002J550000D01*
G01*
%TO.C,D5*%
X56975000Y-159250000D02*
G75*
G02*
X56975001Y-158150000I300002J550000D01*
G01*
%TO.C,D4*%
X78026483Y-157251570D02*
G75*
G02*
X78026482Y-158351570I-300002J-550000D01*
G01*
%TO.C,D3*%
X85177914Y-140151570D02*
G75*
G02*
X85177913Y-141251570I-300002J-550000D01*
G01*
%TO.C,D2*%
X87737613Y-121474703D02*
G75*
G02*
X87737612Y-122574703I-300002J-550000D01*
G01*
%TO.C,D1*%
X80691783Y-102949703D02*
G75*
G02*
X80691782Y-104049703I-300002J-550000D01*
G01*
D15*
%TO.C,C3*%
X72738696Y-117928080D02*
X72738696Y-117646920D01*
X73758696Y-117928080D02*
X73758696Y-117646920D01*
%TO.C,C2*%
X70733116Y-116552500D02*
X71014276Y-116552500D01*
X70733116Y-117572500D02*
X71014276Y-117572500D01*
%TO.C,C1*%
X68885000Y-118746920D02*
X68885000Y-119028080D01*
X67865000Y-118746920D02*
X67865000Y-119028080D01*
%TD*%
M02*
