%TF.GenerationSoftware,KiCad,Pcbnew,8.0.5*%
%TF.CreationDate,2024-11-20T10:14:55-08:00*%
%TF.ProjectId,dfiu-ch32v003,64666975-2d63-4683-9332-763030332e6b,rev?*%
%TF.SameCoordinates,Original*%
%TF.FileFunction,Paste,Bot*%
%TF.FilePolarity,Positive*%
%FSLAX46Y46*%
G04 Gerber Fmt 4.6, Leading zero omitted, Abs format (unit mm)*
G04 Created by KiCad (PCBNEW 8.0.5) date 2024-11-20 10:14:55*
%MOMM*%
%LPD*%
G01*
G04 APERTURE LIST*
G04 Aperture macros list*
%AMRoundRect*
0 Rectangle with rounded corners*
0 $1 Rounding radius*
0 $2 $3 $4 $5 $6 $7 $8 $9 X,Y pos of 4 corners*
0 Add a 4 corners polygon primitive as box body*
4,1,4,$2,$3,$4,$5,$6,$7,$8,$9,$2,$3,0*
0 Add four circle primitives for the rounded corners*
1,1,$1+$1,$2,$3*
1,1,$1+$1,$4,$5*
1,1,$1+$1,$6,$7*
1,1,$1+$1,$8,$9*
0 Add four rect primitives between the rounded corners*
20,1,$1+$1,$2,$3,$4,$5,0*
20,1,$1+$1,$4,$5,$6,$7,0*
20,1,$1+$1,$6,$7,$8,$9,0*
20,1,$1+$1,$8,$9,$2,$3,0*%
%AMRotRect*
0 Rectangle, with rotation*
0 The origin of the aperture is its center*
0 $1 length*
0 $2 width*
0 $3 Rotation angle, in degrees counterclockwise*
0 Add horizontal line*
21,1,$1,$2,0,0,$3*%
G04 Aperture macros list end*
%ADD10RoundRect,0.200000X0.275000X-0.200000X0.275000X0.200000X-0.275000X0.200000X-0.275000X-0.200000X0*%
%ADD11RotRect,0.600000X0.600000X350.000000*%
%ADD12RotRect,0.600000X0.600000X325.000000*%
%ADD13RoundRect,0.200000X-0.200000X-0.275000X0.200000X-0.275000X0.200000X0.275000X-0.200000X0.275000X0*%
%ADD14RotRect,0.600000X0.600000X170.000000*%
%ADD15RoundRect,0.200000X-0.275000X0.200000X-0.275000X-0.200000X0.275000X-0.200000X0.275000X0.200000X0*%
%ADD16R,0.600000X0.600000*%
%ADD17RotRect,0.600000X0.600000X305.000000*%
%ADD18RoundRect,0.150000X-0.587500X-0.150000X0.587500X-0.150000X0.587500X0.150000X-0.587500X0.150000X0*%
%ADD19RotRect,0.600000X0.600000X260.000000*%
%ADD20RoundRect,0.225000X-0.250000X0.225000X-0.250000X-0.225000X0.250000X-0.225000X0.250000X0.225000X0*%
%ADD21RotRect,0.600000X0.600000X125.000000*%
%ADD22RotRect,0.600000X0.600000X235.000000*%
%ADD23RoundRect,0.150000X0.150000X0.700000X-0.150000X0.700000X-0.150000X-0.700000X0.150000X-0.700000X0*%
%ADD24RoundRect,0.250000X0.250000X1.100000X-0.250000X1.100000X-0.250000X-1.100000X0.250000X-1.100000X0*%
%ADD25RotRect,0.600000X0.600000X55.000000*%
%ADD26RoundRect,0.225000X0.250000X-0.225000X0.250000X0.225000X-0.250000X0.225000X-0.250000X-0.225000X0*%
%ADD27RotRect,0.600000X0.600000X145.000000*%
%ADD28RoundRect,0.200000X0.200000X0.275000X-0.200000X0.275000X-0.200000X-0.275000X0.200000X-0.275000X0*%
%ADD29RotRect,0.600000X0.600000X100.000000*%
%ADD30RoundRect,0.225000X0.225000X0.250000X-0.225000X0.250000X-0.225000X-0.250000X0.225000X-0.250000X0*%
%ADD31RotRect,0.600000X0.600000X280.000000*%
%ADD32RoundRect,0.167500X0.167500X0.167500X-0.167500X0.167500X-0.167500X-0.167500X0.167500X-0.167500X0*%
%ADD33RoundRect,0.050000X0.375000X0.050000X-0.375000X0.050000X-0.375000X-0.050000X0.375000X-0.050000X0*%
%ADD34RoundRect,0.050000X0.050000X0.375000X-0.050000X0.375000X-0.050000X-0.375000X0.050000X-0.375000X0*%
G04 APERTURE END LIST*
D10*
%TO.C,R16*%
X69298696Y-115537500D03*
X69298696Y-113887500D03*
%TD*%
D11*
%TO.C,D17*%
X74985635Y-80503446D03*
X76364365Y-80746554D03*
%TD*%
D12*
%TO.C,D14*%
X63903188Y-81371994D03*
X65050000Y-82175000D03*
%TD*%
D10*
%TO.C,R2*%
X66000000Y-122987500D03*
X66000000Y-121337500D03*
%TD*%
D13*
%TO.C,R6*%
X58500000Y-118887500D03*
X60150000Y-118887500D03*
%TD*%
D14*
%TO.C,D15*%
X73264364Y-94221556D03*
X71885636Y-93978444D03*
%TD*%
D15*
%TO.C,R11*%
X66225000Y-113087500D03*
X66225000Y-114737500D03*
%TD*%
D16*
%TO.C,D8*%
X52052634Y-102622662D03*
X52052634Y-104022662D03*
%TD*%
D17*
%TO.C,D10*%
X44550000Y-90550000D03*
X45353008Y-91696812D03*
%TD*%
D16*
%TO.C,D6*%
X49490301Y-141576867D03*
X49490301Y-142976867D03*
%TD*%
D18*
%TO.C,Q1*%
X77236196Y-113512500D03*
X75361196Y-114462500D03*
X75361196Y-112562500D03*
%TD*%
D10*
%TO.C,R3*%
X64475000Y-122987500D03*
X64475000Y-121337500D03*
%TD*%
%TO.C,R14*%
X75098696Y-117587500D03*
X75098696Y-115937500D03*
%TD*%
D18*
%TO.C,Q2*%
X72998696Y-114487500D03*
X71123696Y-115437500D03*
X71123696Y-113537500D03*
%TD*%
D19*
%TO.C,D16*%
X76568139Y-86824706D03*
X76325027Y-88203434D03*
%TD*%
D20*
%TO.C,C3*%
X73248696Y-117012500D03*
X73248696Y-118562500D03*
%TD*%
D16*
%TO.C,D5*%
X57575000Y-158000000D03*
X57575000Y-159400000D03*
%TD*%
D21*
%TO.C,D11*%
X48817194Y-91427461D03*
X48014188Y-90280649D03*
%TD*%
D15*
%TO.C,R9*%
X63175000Y-113087500D03*
X63175000Y-114737500D03*
%TD*%
D13*
%TO.C,R8*%
X58500000Y-115837500D03*
X60150000Y-115837500D03*
%TD*%
D16*
%TO.C,D7*%
X43301431Y-122325000D03*
X43301431Y-123725000D03*
%TD*%
D22*
%TO.C,D19*%
X86750000Y-90675000D03*
X85946990Y-91821814D03*
%TD*%
D15*
%TO.C,R10*%
X64700000Y-113087500D03*
X64700000Y-114737500D03*
%TD*%
D23*
%TO.C,LS1*%
X78575000Y-122275000D03*
X77325000Y-122275000D03*
D24*
X80425000Y-125475000D03*
X75475000Y-125475000D03*
%TD*%
D25*
%TO.C,D20*%
X89175000Y-94200000D03*
X89978010Y-93053186D03*
%TD*%
D13*
%TO.C,R7*%
X58500000Y-117362500D03*
X60150000Y-117362500D03*
%TD*%
D10*
%TO.C,R4*%
X62950000Y-122987500D03*
X62950000Y-121337500D03*
%TD*%
D26*
%TO.C,C1*%
X68375000Y-119662500D03*
X68375000Y-118112500D03*
%TD*%
D17*
%TO.C,D9*%
X47207805Y-94122539D03*
X48010813Y-95269351D03*
%TD*%
D27*
%TO.C,D18*%
X83819353Y-99435814D03*
X82672539Y-98632804D03*
%TD*%
D16*
%TO.C,D4*%
X77426483Y-158501570D03*
X77426483Y-157101570D03*
%TD*%
D28*
%TO.C,R13*%
X71698696Y-118612500D03*
X70048696Y-118612500D03*
%TD*%
D16*
%TO.C,D2*%
X87137613Y-122724703D03*
X87137613Y-121324703D03*
%TD*%
D10*
%TO.C,R1*%
X67525000Y-122987500D03*
X67525000Y-121337500D03*
%TD*%
D29*
%TO.C,D13*%
X56474974Y-85878435D03*
X56231862Y-84499707D03*
%TD*%
D13*
%TO.C,R5*%
X58500000Y-120412500D03*
X60150000Y-120412500D03*
%TD*%
D16*
%TO.C,D3*%
X84577914Y-141401570D03*
X84577914Y-140001570D03*
%TD*%
D30*
%TO.C,C2*%
X71648696Y-117062500D03*
X70098696Y-117062500D03*
%TD*%
D31*
%TO.C,D12*%
X61578446Y-88985635D03*
X61821554Y-90364365D03*
%TD*%
D15*
%TO.C,R12*%
X67750000Y-113087500D03*
X67750000Y-114737500D03*
%TD*%
D10*
%TO.C,R15*%
X77248696Y-117562500D03*
X77248696Y-115912500D03*
%TD*%
D16*
%TO.C,D1*%
X80091783Y-104199703D03*
X80091783Y-102799703D03*
%TD*%
D32*
%TO.C,U1*%
X65860000Y-118122500D03*
X65860000Y-117302500D03*
X65040000Y-118122500D03*
X65040000Y-117302500D03*
D33*
X66900000Y-116912500D03*
X66900000Y-117312500D03*
X66900000Y-117712500D03*
X66900000Y-118112500D03*
X66900000Y-118512500D03*
D34*
X66250000Y-119162500D03*
X65850000Y-119162500D03*
X65450000Y-119162500D03*
X65050000Y-119162500D03*
X64650000Y-119162500D03*
D33*
X64000000Y-118512500D03*
X64000000Y-118112500D03*
X64000000Y-117712500D03*
X64000000Y-117312500D03*
X64000000Y-116912500D03*
D34*
X64650000Y-116262500D03*
X65050000Y-116262500D03*
X65450000Y-116262500D03*
X65850000Y-116262500D03*
X66250000Y-116262500D03*
%TD*%
M02*
