%TF.GenerationSoftware,KiCad,Pcbnew,8.0.5*%
%TF.CreationDate,2024-11-20T10:14:55-08:00*%
%TF.ProjectId,dfiu-ch32v003,64666975-2d63-4683-9332-763030332e6b,rev?*%
%TF.SameCoordinates,Original*%
%TF.FileFunction,Soldermask,Bot*%
%TF.FilePolarity,Negative*%
%FSLAX46Y46*%
G04 Gerber Fmt 4.6, Leading zero omitted, Abs format (unit mm)*
G04 Created by KiCad (PCBNEW 8.0.5) date 2024-11-20 10:14:55*
%MOMM*%
%LPD*%
G01*
G04 APERTURE LIST*
G04 Aperture macros list*
%AMRoundRect*
0 Rectangle with rounded corners*
0 $1 Rounding radius*
0 $2 $3 $4 $5 $6 $7 $8 $9 X,Y pos of 4 corners*
0 Add a 4 corners polygon primitive as box body*
4,1,4,$2,$3,$4,$5,$6,$7,$8,$9,$2,$3,0*
0 Add four circle primitives for the rounded corners*
1,1,$1+$1,$2,$3*
1,1,$1+$1,$4,$5*
1,1,$1+$1,$6,$7*
1,1,$1+$1,$8,$9*
0 Add four rect primitives between the rounded corners*
20,1,$1+$1,$2,$3,$4,$5,0*
20,1,$1+$1,$4,$5,$6,$7,0*
20,1,$1+$1,$6,$7,$8,$9,0*
20,1,$1+$1,$8,$9,$2,$3,0*%
G04 Aperture macros list end*
%ADD10C,0.500000*%
%ADD11RoundRect,0.200000X0.275000X-0.200000X0.275000X0.200000X-0.275000X0.200000X-0.275000X-0.200000X0*%
%ADD12RoundRect,0.102000X-0.347537X-0.243348X0.243348X-0.347537X0.347537X0.243348X-0.243348X0.347537X0*%
%ADD13RoundRect,0.102000X-0.417819X-0.073673X0.073673X-0.417819X0.417819X0.073673X-0.073673X0.417819X0*%
%ADD14RoundRect,0.200000X-0.200000X-0.275000X0.200000X-0.275000X0.200000X0.275000X-0.200000X0.275000X0*%
%ADD15RoundRect,0.102000X0.347537X0.243348X-0.243348X0.347537X-0.347537X-0.243348X0.243348X-0.347537X0*%
%ADD16RoundRect,0.200000X-0.275000X0.200000X-0.275000X-0.200000X0.275000X-0.200000X0.275000X0.200000X0*%
%ADD17R,1.700000X1.700000*%
%ADD18O,1.700000X1.700000*%
%ADD19RoundRect,0.102000X-0.300000X0.300000X-0.300000X-0.300000X0.300000X-0.300000X0.300000X0.300000X0*%
%ADD20RoundRect,0.102000X-0.417819X0.073673X-0.073673X-0.417819X0.417819X-0.073673X0.073673X0.417819X0*%
%ADD21RoundRect,0.150000X-0.587500X-0.150000X0.587500X-0.150000X0.587500X0.150000X-0.587500X0.150000X0*%
%ADD22RoundRect,0.102000X-0.243348X0.347537X-0.347537X-0.243348X0.243348X-0.347537X0.347537X0.243348X0*%
%ADD23RoundRect,0.225000X-0.250000X0.225000X-0.250000X-0.225000X0.250000X-0.225000X0.250000X0.225000X0*%
%ADD24RoundRect,0.102000X0.417819X-0.073673X0.073673X0.417819X-0.417819X0.073673X-0.073673X-0.417819X0*%
%ADD25RoundRect,0.102000X-0.073673X0.417819X-0.417819X-0.073673X0.073673X-0.417819X0.417819X0.073673X0*%
%ADD26RoundRect,0.150000X0.150000X0.700000X-0.150000X0.700000X-0.150000X-0.700000X0.150000X-0.700000X0*%
%ADD27RoundRect,0.250000X0.250000X1.100000X-0.250000X1.100000X-0.250000X-1.100000X0.250000X-1.100000X0*%
%ADD28RoundRect,0.102000X0.073673X-0.417819X0.417819X0.073673X-0.073673X0.417819X-0.417819X-0.073673X0*%
%ADD29RoundRect,0.225000X0.250000X-0.225000X0.250000X0.225000X-0.250000X0.225000X-0.250000X-0.225000X0*%
%ADD30RoundRect,0.102000X0.417819X0.073673X-0.073673X0.417819X-0.417819X-0.073673X0.073673X-0.417819X0*%
%ADD31RoundRect,0.102000X0.300000X-0.300000X0.300000X0.300000X-0.300000X0.300000X-0.300000X-0.300000X0*%
%ADD32RoundRect,0.200000X0.200000X0.275000X-0.200000X0.275000X-0.200000X-0.275000X0.200000X-0.275000X0*%
%ADD33RoundRect,0.102000X0.347537X-0.243348X0.243348X0.347537X-0.347537X0.243348X-0.243348X-0.347537X0*%
%ADD34RoundRect,0.225000X0.225000X0.250000X-0.225000X0.250000X-0.225000X-0.250000X0.225000X-0.250000X0*%
%ADD35RoundRect,0.102000X-0.347537X0.243348X-0.243348X-0.347537X0.347537X-0.243348X0.243348X0.347537X0*%
%ADD36RoundRect,0.050000X0.375000X0.050000X-0.375000X0.050000X-0.375000X-0.050000X0.375000X-0.050000X0*%
%ADD37RoundRect,0.050000X0.050000X0.375000X-0.050000X0.375000X-0.050000X-0.375000X0.050000X-0.375000X0*%
%ADD38R,1.650000X1.650000*%
G04 APERTURE END LIST*
D10*
%TO.C,*%
X80700000Y-141375000D03*
%TD*%
%TO.C,*%
X80750000Y-139800000D03*
%TD*%
%TO.C,*%
X80700000Y-138075000D03*
%TD*%
%TO.C,*%
X80600000Y-136950000D03*
%TD*%
%TO.C,*%
X80050000Y-138925000D03*
%TD*%
%TO.C,*%
X79600000Y-139875000D03*
%TD*%
%TO.C,*%
X79900000Y-140875000D03*
%TD*%
%TO.C,*%
X79850000Y-142000000D03*
%TD*%
%TO.C,*%
X79800000Y-143025000D03*
%TD*%
%TO.C,*%
X79750000Y-144800000D03*
%TD*%
%TO.C,*%
X80375000Y-143950000D03*
%TD*%
%TO.C,*%
X80875000Y-143025000D03*
%TD*%
%TO.C,*%
X81350000Y-142050000D03*
%TD*%
%TO.C,*%
X81625000Y-141000000D03*
%TD*%
%TO.C,*%
X81750000Y-139900000D03*
%TD*%
%TO.C,*%
X81800000Y-138800000D03*
%TD*%
%TO.C,*%
X81725000Y-137725000D03*
%TD*%
%TO.C,*%
X81525000Y-136775000D03*
%TD*%
%TO.C,*%
X81125000Y-135800000D03*
%TD*%
%TO.C,*%
X80775000Y-134850000D03*
%TD*%
%TO.C,*%
X79800000Y-133800000D03*
%TD*%
%TO.C,*%
X79800000Y-134875000D03*
%TD*%
%TO.C,*%
X79750000Y-135875000D03*
%TD*%
%TO.C,*%
X79600000Y-136950000D03*
%TD*%
%TO.C,*%
X79375000Y-138025000D03*
%TD*%
%TO.C,*%
X78875000Y-138925000D03*
%TD*%
%TO.C,*%
X64100000Y-131850000D03*
%TD*%
%TO.C,*%
X61875000Y-132675000D03*
%TD*%
%TO.C,*%
X60700000Y-132825000D03*
%TD*%
%TO.C,*%
X60775000Y-131650000D03*
%TD*%
%TO.C,*%
X59150000Y-132675000D03*
%TD*%
%TO.C,*%
X77800000Y-135900000D03*
%TD*%
%TO.C,*%
X77875000Y-131775000D03*
%TD*%
%TO.C,*%
X77800000Y-133125000D03*
%TD*%
%TO.C,*%
X76450000Y-134475000D03*
%TD*%
%TO.C,*%
X75050000Y-135900000D03*
%TD*%
%TO.C,*%
X70925000Y-137200000D03*
%TD*%
%TO.C,*%
X72275000Y-135900000D03*
%TD*%
%TO.C,*%
X70200000Y-135175000D03*
%TD*%
%TO.C,*%
X72325000Y-134550000D03*
%TD*%
%TO.C,*%
X73675000Y-134450000D03*
%TD*%
%TO.C,*%
X75100000Y-134550000D03*
%TD*%
%TO.C,*%
X75025000Y-133150000D03*
%TD*%
%TO.C,*%
X75100000Y-131775000D03*
%TD*%
%TO.C,*%
X75000000Y-130400000D03*
%TD*%
%TO.C,*%
X73675000Y-131725000D03*
%TD*%
%TO.C,*%
X72275000Y-133150000D03*
%TD*%
%TO.C,*%
X72325000Y-131800000D03*
%TD*%
%TO.C,*%
X72275000Y-130425000D03*
%TD*%
%TO.C,*%
X70225000Y-133850000D03*
%TD*%
%TO.C,*%
X70225000Y-131100000D03*
%TD*%
%TO.C,*%
X66125000Y-132400000D03*
%TD*%
%TO.C,*%
X65425000Y-131700000D03*
%TD*%
%TO.C,*%
X61250000Y-130375000D03*
%TD*%
%TO.C,*%
X62625000Y-131725000D03*
%TD*%
%TO.C,*%
X77850000Y-137275000D03*
%TD*%
%TO.C,*%
X76450000Y-137275000D03*
%TD*%
%TO.C,*%
X75125000Y-137300000D03*
%TD*%
%TO.C,*%
X73675000Y-137275000D03*
%TD*%
%TO.C,*%
X72350000Y-137325000D03*
%TD*%
%TO.C,*%
X72275000Y-138650000D03*
%TD*%
%TO.C,*%
X75025000Y-138675000D03*
%TD*%
%TO.C,*%
X77775000Y-138700000D03*
%TD*%
%TO.C,*%
X76450000Y-140000000D03*
%TD*%
%TO.C,*%
X77175000Y-140725000D03*
%TD*%
%TO.C,*%
X73675000Y-140000000D03*
%TD*%
%TO.C,*%
X75075000Y-140050000D03*
%TD*%
%TO.C,*%
X73700000Y-142775000D03*
%TD*%
%TO.C,*%
X75750000Y-142125000D03*
%TD*%
%TO.C,*%
X75025000Y-141425000D03*
%TD*%
%TO.C,*%
X77800000Y-141450000D03*
%TD*%
%TO.C,*%
X78550000Y-142125000D03*
%TD*%
%TO.C,*%
X75025000Y-144200000D03*
%TD*%
%TO.C,*%
X76475000Y-142775000D03*
%TD*%
%TO.C,*%
X77875000Y-142800000D03*
%TD*%
%TO.C,*%
X75100000Y-142825000D03*
%TD*%
%TO.C,*%
X74400000Y-143475000D03*
%TD*%
%TO.C,*%
X77800000Y-144200000D03*
%TD*%
%TO.C,*%
X77850000Y-145575000D03*
%TD*%
%TO.C,*%
X76450000Y-145525000D03*
%TD*%
%TO.C,*%
X70925000Y-145525000D03*
%TD*%
%TO.C,*%
X73725000Y-145525000D03*
%TD*%
%TO.C,*%
X75100000Y-145600000D03*
%TD*%
%TO.C,*%
X75050000Y-146950000D03*
%TD*%
%TO.C,*%
X69500000Y-146975000D03*
%TD*%
%TO.C,*%
X67475000Y-147675000D03*
%TD*%
%TO.C,*%
X69550000Y-145575000D03*
%TD*%
%TO.C,*%
X68875000Y-146200000D03*
%TD*%
%TO.C,*%
X68175000Y-145550000D03*
%TD*%
%TO.C,*%
X69525000Y-144225000D03*
%TD*%
%TO.C,*%
X70200000Y-143475000D03*
%TD*%
%TO.C,*%
X70925000Y-142775000D03*
%TD*%
%TO.C,*%
X69575000Y-142825000D03*
%TD*%
%TO.C,*%
X70250000Y-142175000D03*
%TD*%
%TO.C,*%
X69525000Y-141425000D03*
%TD*%
%TO.C,*%
X70225000Y-140725000D03*
%TD*%
%TO.C,*%
X70900000Y-140025000D03*
%TD*%
%TO.C,*%
X69575000Y-140075000D03*
%TD*%
%TO.C,*%
X69500000Y-138675000D03*
%TD*%
%TO.C,*%
X68875000Y-137950000D03*
%TD*%
%TO.C,*%
X67450000Y-137950000D03*
%TD*%
%TO.C,*%
X68150000Y-137250000D03*
%TD*%
%TO.C,*%
X66825000Y-137275000D03*
%TD*%
%TO.C,*%
X67475000Y-136625000D03*
%TD*%
%TO.C,*%
X67450000Y-135200000D03*
%TD*%
%TO.C,*%
X66800000Y-134550000D03*
%TD*%
%TO.C,*%
X66750000Y-135925000D03*
%TD*%
%TO.C,*%
X63325000Y-135200000D03*
%TD*%
%TO.C,*%
X64700000Y-135225000D03*
%TD*%
%TO.C,*%
X64000000Y-133150000D03*
%TD*%
%TO.C,*%
X64700000Y-133850000D03*
%TD*%
%TO.C,*%
X65375000Y-134500000D03*
%TD*%
%TO.C,*%
X58500000Y-131775000D03*
%TD*%
%TO.C,*%
X57850000Y-132425000D03*
%TD*%
%TO.C,*%
X64050000Y-134550000D03*
%TD*%
%TO.C,*%
X62650000Y-134500000D03*
%TD*%
%TO.C,*%
X61950000Y-133850000D03*
%TD*%
%TO.C,*%
X61275000Y-134550000D03*
%TD*%
%TO.C,*%
X60600000Y-135175000D03*
%TD*%
%TO.C,*%
X59900000Y-134475000D03*
%TD*%
%TO.C,*%
X59200000Y-133875000D03*
%TD*%
%TO.C,*%
X57875000Y-133875000D03*
%TD*%
%TO.C,*%
X58525000Y-134550000D03*
%TD*%
%TO.C,*%
X64000000Y-135925000D03*
%TD*%
%TO.C,*%
X64700000Y-136625000D03*
%TD*%
%TO.C,*%
X64700000Y-137975000D03*
%TD*%
%TO.C,*%
X66750000Y-138675000D03*
%TD*%
%TO.C,*%
X66125000Y-137925000D03*
%TD*%
%TO.C,*%
X65400000Y-137250000D03*
%TD*%
%TO.C,*%
X64050000Y-137300000D03*
%TD*%
%TO.C,*%
X59175000Y-135200000D03*
%TD*%
%TO.C,*%
X59900000Y-135900000D03*
%TD*%
%TO.C,*%
X61225000Y-135925000D03*
%TD*%
%TO.C,*%
X61950000Y-136650000D03*
%TD*%
%TO.C,*%
X61275000Y-137325000D03*
%TD*%
%TO.C,*%
X62650000Y-137225000D03*
%TD*%
%TO.C,*%
X63400000Y-137925000D03*
%TD*%
%TO.C,*%
X62675000Y-138675000D03*
%TD*%
%TO.C,*%
X61900000Y-137975000D03*
%TD*%
%TO.C,*%
X59875000Y-137250000D03*
%TD*%
%TO.C,*%
X60600000Y-137950000D03*
%TD*%
%TO.C,*%
X59225000Y-138000000D03*
%TD*%
%TO.C,*%
X58525000Y-137325000D03*
%TD*%
%TO.C,*%
X57150000Y-137400000D03*
%TD*%
%TO.C,*%
X56350000Y-137925000D03*
%TD*%
%TO.C,*%
X55750000Y-138600000D03*
%TD*%
%TO.C,*%
X54325000Y-138675000D03*
%TD*%
%TO.C,*%
X57275000Y-144025000D03*
%TD*%
%TO.C,*%
X57850000Y-143250000D03*
%TD*%
%TO.C,*%
X56775000Y-143100000D03*
%TD*%
%TO.C,*%
X58250000Y-142225000D03*
%TD*%
%TO.C,*%
X57275000Y-142350000D03*
%TD*%
%TO.C,*%
X56300000Y-142175000D03*
%TD*%
%TO.C,*%
X56350000Y-141125000D03*
%TD*%
%TO.C,*%
X57250000Y-141325000D03*
%TD*%
%TO.C,*%
X58250000Y-141250000D03*
%TD*%
%TO.C,*%
X59225000Y-141300000D03*
%TD*%
%TO.C,*%
X62050000Y-140975000D03*
%TD*%
%TO.C,*%
X67250000Y-141825000D03*
%TD*%
%TO.C,*%
X67200000Y-140800000D03*
%TD*%
%TO.C,*%
X67150000Y-142800000D03*
%TD*%
%TO.C,*%
X67375000Y-144800000D03*
%TD*%
%TO.C,*%
X67875000Y-143900000D03*
%TD*%
%TO.C,*%
X68000000Y-142975000D03*
%TD*%
%TO.C,*%
X68375000Y-142100000D03*
%TD*%
%TO.C,*%
X68150000Y-141175000D03*
%TD*%
%TO.C,*%
X66450000Y-141150000D03*
%TD*%
%TO.C,*%
X67925000Y-140275000D03*
%TD*%
%TO.C,*%
X67225000Y-139650000D03*
%TD*%
%TO.C,*%
X66475000Y-140100000D03*
%TD*%
%TO.C,*%
X65475000Y-140875000D03*
%TD*%
%TO.C,*%
X65500000Y-139950000D03*
%TD*%
%TO.C,*%
X64600000Y-140425000D03*
%TD*%
%TO.C,*%
X63525000Y-140225000D03*
%TD*%
%TO.C,*%
X62700000Y-140000000D03*
%TD*%
%TO.C,*%
X61725000Y-140150000D03*
%TD*%
%TO.C,*%
X60725000Y-140325000D03*
%TD*%
%TO.C,*%
X59800000Y-140350000D03*
%TD*%
%TO.C,*%
X58775000Y-140400000D03*
%TD*%
%TO.C,*%
X57750000Y-140450000D03*
%TD*%
%TO.C,*%
X56775000Y-140175000D03*
%TD*%
%TO.C,*%
X55775000Y-140425000D03*
%TD*%
%TO.C,*%
X54775000Y-140325000D03*
%TD*%
%TO.C,*%
X54825000Y-141325000D03*
%TD*%
%TO.C,*%
X55400000Y-142150000D03*
%TD*%
%TO.C,*%
X55875000Y-143075000D03*
%TD*%
%TO.C,*%
X56400000Y-143900000D03*
%TD*%
%TO.C,*%
X56850000Y-144900000D03*
%TD*%
%TO.C,*%
X57350000Y-145725000D03*
%TD*%
%TO.C,*%
X64900000Y-148125000D03*
%TD*%
%TO.C,*%
X65500000Y-147400000D03*
%TD*%
%TO.C,*%
X66075000Y-146525000D03*
%TD*%
%TO.C,*%
X66475000Y-145575000D03*
%TD*%
%TO.C,*%
X66500000Y-144575000D03*
%TD*%
%TO.C,*%
X66500000Y-143575000D03*
%TD*%
%TO.C,*%
X66200000Y-142600000D03*
%TD*%
%TO.C,*%
X65550000Y-141800000D03*
%TD*%
%TO.C,*%
X64550000Y-141475000D03*
%TD*%
%TO.C,*%
X63600000Y-141225000D03*
%TD*%
%TO.C,*%
X62625000Y-141575000D03*
%TD*%
%TO.C,*%
X61725000Y-142050000D03*
%TD*%
%TO.C,*%
X61150000Y-141275000D03*
%TD*%
%TO.C,*%
X60150000Y-141575000D03*
%TD*%
%TO.C,*%
X59425000Y-142275000D03*
%TD*%
%TO.C,*%
X58825000Y-143150000D03*
%TD*%
%TO.C,*%
X58275000Y-144100000D03*
%TD*%
%TO.C,*%
X58050000Y-145100000D03*
%TD*%
%TO.C,*%
X58325000Y-146100000D03*
%TD*%
%TO.C,*%
X58725000Y-147125000D03*
%TD*%
%TO.C,*%
X59150000Y-144925000D03*
%TD*%
%TO.C,*%
X59875000Y-146950000D03*
%TD*%
%TO.C,*%
X60625000Y-147725000D03*
%TD*%
%TO.C,*%
X61925000Y-147675000D03*
%TD*%
%TO.C,*%
X62650000Y-148300000D03*
%TD*%
%TO.C,*%
X62650000Y-146975000D03*
%TD*%
%TO.C,*%
X63350000Y-147700000D03*
%TD*%
%TO.C,*%
X64000000Y-146950000D03*
%TD*%
%TO.C,*%
X63325000Y-146250000D03*
%TD*%
%TO.C,*%
X64700000Y-146275000D03*
%TD*%
%TO.C,*%
X65400000Y-145550000D03*
%TD*%
%TO.C,*%
X64050000Y-145600000D03*
%TD*%
%TO.C,*%
X64725000Y-144925000D03*
%TD*%
%TO.C,*%
X65400000Y-144175000D03*
%TD*%
%TO.C,*%
X64725000Y-143500000D03*
%TD*%
%TO.C,*%
X63975000Y-144225000D03*
%TD*%
%TO.C,*%
X63350000Y-143475000D03*
%TD*%
%TO.C,*%
X64025000Y-142825000D03*
%TD*%
%TO.C,*%
X62650000Y-142800000D03*
%TD*%
%TO.C,*%
X60575000Y-143475000D03*
%TD*%
%TO.C,REF\u002A\u002A*%
X61925000Y-143500000D03*
%TD*%
D11*
%TO.C,R16*%
X69298696Y-115537500D03*
X69298696Y-113887500D03*
%TD*%
D12*
%TO.C,D17*%
X74985635Y-80503446D03*
X76364365Y-80746554D03*
%TD*%
D13*
%TO.C,D14*%
X63903188Y-81371994D03*
X65050000Y-82175000D03*
%TD*%
D11*
%TO.C,R2*%
X66000000Y-122987500D03*
X66000000Y-121337500D03*
%TD*%
D14*
%TO.C,R6*%
X58500000Y-118887500D03*
X60150000Y-118887500D03*
%TD*%
D15*
%TO.C,D15*%
X73264364Y-94221556D03*
X71885636Y-93978444D03*
%TD*%
D16*
%TO.C,R11*%
X66225000Y-113087500D03*
X66225000Y-114737500D03*
%TD*%
D17*
%TO.C,J2*%
X64790845Y-153029274D03*
D18*
X64790845Y-155569274D03*
X67330845Y-153029274D03*
X67330845Y-155569274D03*
X69870845Y-153029274D03*
X69870845Y-155569274D03*
%TD*%
D19*
%TO.C,D8*%
X52052634Y-102622662D03*
X52052634Y-104022662D03*
%TD*%
D20*
%TO.C,D10*%
X44550000Y-90550000D03*
X45353008Y-91696812D03*
%TD*%
D19*
%TO.C,D6*%
X49490301Y-141576867D03*
X49490301Y-142976867D03*
%TD*%
D21*
%TO.C,Q1*%
X77236196Y-113512500D03*
X75361196Y-114462500D03*
X75361196Y-112562500D03*
%TD*%
D11*
%TO.C,R3*%
X64475000Y-122987500D03*
X64475000Y-121337500D03*
%TD*%
%TO.C,R14*%
X75098696Y-117587500D03*
X75098696Y-115937500D03*
%TD*%
D21*
%TO.C,Q2*%
X72998696Y-114487500D03*
X71123696Y-115437500D03*
X71123696Y-113537500D03*
%TD*%
D22*
%TO.C,D16*%
X76568139Y-86824706D03*
X76325027Y-88203434D03*
%TD*%
D23*
%TO.C,C3*%
X73248696Y-117012500D03*
X73248696Y-118562500D03*
%TD*%
D19*
%TO.C,D5*%
X57575000Y-158000000D03*
X57575000Y-159400000D03*
%TD*%
D24*
%TO.C,D11*%
X48817194Y-91427461D03*
X48014188Y-90280649D03*
%TD*%
D16*
%TO.C,R9*%
X63175000Y-113087500D03*
X63175000Y-114737500D03*
%TD*%
D14*
%TO.C,R8*%
X58500000Y-115837500D03*
X60150000Y-115837500D03*
%TD*%
D19*
%TO.C,D7*%
X43301431Y-122325000D03*
X43301431Y-123725000D03*
%TD*%
D25*
%TO.C,D19*%
X86750000Y-90675000D03*
X85946990Y-91821814D03*
%TD*%
D16*
%TO.C,R10*%
X64700000Y-113087500D03*
X64700000Y-114737500D03*
%TD*%
D26*
%TO.C,LS1*%
X78575000Y-122275000D03*
X77325000Y-122275000D03*
D27*
X80425000Y-125475000D03*
X75475000Y-125475000D03*
%TD*%
D28*
%TO.C,D20*%
X89175000Y-94200000D03*
X89978010Y-93053186D03*
%TD*%
D14*
%TO.C,R7*%
X58500000Y-117362500D03*
X60150000Y-117362500D03*
%TD*%
D11*
%TO.C,R4*%
X62950000Y-122987500D03*
X62950000Y-121337500D03*
%TD*%
D29*
%TO.C,C1*%
X68375000Y-119662500D03*
X68375000Y-118112500D03*
%TD*%
D20*
%TO.C,D9*%
X47207805Y-94122539D03*
X48010813Y-95269351D03*
%TD*%
D30*
%TO.C,D18*%
X83819353Y-99435814D03*
X82672539Y-98632804D03*
%TD*%
D31*
%TO.C,D4*%
X77426483Y-158501570D03*
X77426483Y-157101570D03*
%TD*%
D32*
%TO.C,R13*%
X71698696Y-118612500D03*
X70048696Y-118612500D03*
%TD*%
D31*
%TO.C,D2*%
X87137613Y-122724703D03*
X87137613Y-121324703D03*
%TD*%
D11*
%TO.C,R1*%
X67525000Y-122987500D03*
X67525000Y-121337500D03*
%TD*%
D17*
%TO.C,J1*%
X62150000Y-164900000D03*
D18*
X64690000Y-164900000D03*
X67230000Y-164900000D03*
%TD*%
D33*
%TO.C,D13*%
X56474974Y-85878435D03*
X56231862Y-84499707D03*
%TD*%
D14*
%TO.C,R5*%
X58500000Y-120412500D03*
X60150000Y-120412500D03*
%TD*%
D31*
%TO.C,D3*%
X84577914Y-141401570D03*
X84577914Y-140001570D03*
%TD*%
D34*
%TO.C,C2*%
X71648696Y-117062500D03*
X70098696Y-117062500D03*
%TD*%
D35*
%TO.C,D12*%
X61578446Y-88985635D03*
X61821554Y-90364365D03*
%TD*%
D16*
%TO.C,R12*%
X67750000Y-113087500D03*
X67750000Y-114737500D03*
%TD*%
D11*
%TO.C,R15*%
X77248696Y-117562500D03*
X77248696Y-115912500D03*
%TD*%
D31*
%TO.C,D1*%
X80091783Y-104199703D03*
X80091783Y-102799703D03*
%TD*%
D36*
%TO.C,U1*%
X66900000Y-116912500D03*
X66900000Y-117312500D03*
X66900000Y-117712500D03*
X66900000Y-118112500D03*
X66900000Y-118512500D03*
D37*
X66250000Y-119162500D03*
X65850000Y-119162500D03*
X65450000Y-119162500D03*
X65050000Y-119162500D03*
X64650000Y-119162500D03*
D36*
X64000000Y-118512500D03*
X64000000Y-118112500D03*
X64000000Y-117712500D03*
X64000000Y-117312500D03*
X64000000Y-116912500D03*
D37*
X64650000Y-116262500D03*
X65050000Y-116262500D03*
X65450000Y-116262500D03*
X65850000Y-116262500D03*
X66250000Y-116262500D03*
D38*
X65450000Y-117712500D03*
%TD*%
G36*
X88909848Y-120523813D02*
G01*
X88960657Y-120571774D01*
X88970824Y-120593934D01*
X89240527Y-121377040D01*
X89240528Y-121377041D01*
X90047736Y-121377041D01*
X90114775Y-121396726D01*
X90160530Y-121449530D01*
X90170474Y-121518688D01*
X90141449Y-121582244D01*
X90124216Y-121598646D01*
X89479397Y-122103906D01*
X89479397Y-122103908D01*
X89729103Y-122867241D01*
X89731238Y-122937078D01*
X89695277Y-122996983D01*
X89632637Y-123027935D01*
X89563207Y-123020109D01*
X89542785Y-123009180D01*
X88852914Y-122552338D01*
X88852913Y-122552338D01*
X88168018Y-123007913D01*
X88101297Y-123028653D01*
X88033956Y-123010028D01*
X87987374Y-122957952D01*
X87976341Y-122888959D01*
X87981488Y-122866114D01*
X88230827Y-122103907D01*
X88230827Y-122103906D01*
X87586008Y-121598646D01*
X87545379Y-121541803D01*
X87541932Y-121472019D01*
X87576761Y-121411448D01*
X87638807Y-121379323D01*
X87662488Y-121377041D01*
X88469696Y-121377041D01*
X88736200Y-120594344D01*
X88776442Y-120537227D01*
X88841176Y-120510934D01*
X88909848Y-120523813D01*
G37*
G36*
X61536842Y-81261505D02*
G01*
X61547056Y-81262351D01*
X61998773Y-81318658D01*
X62008882Y-81320345D01*
X62454401Y-81413760D01*
X62464336Y-81416276D01*
X62900622Y-81546164D01*
X62910315Y-81549492D01*
X63334372Y-81714961D01*
X63343757Y-81719077D01*
X63752717Y-81919004D01*
X63761731Y-81923882D01*
X64152783Y-82156899D01*
X64161363Y-82162505D01*
X64531827Y-82427012D01*
X64539914Y-82433306D01*
X64887285Y-82727513D01*
X64894825Y-82734455D01*
X65216694Y-83056324D01*
X65223636Y-83063864D01*
X65517843Y-83411235D01*
X65524137Y-83419322D01*
X65788644Y-83789786D01*
X65794250Y-83798366D01*
X66027267Y-84189418D01*
X66032145Y-84198432D01*
X66232072Y-84607392D01*
X66236188Y-84616777D01*
X66401657Y-85040834D01*
X66404985Y-85050527D01*
X66534873Y-85486813D01*
X66537389Y-85496748D01*
X66630804Y-85942267D01*
X66632491Y-85952376D01*
X66688798Y-86404093D01*
X66689644Y-86414307D01*
X66708455Y-86869122D01*
X66708455Y-86879370D01*
X66689644Y-87334184D01*
X66688798Y-87344398D01*
X66632491Y-87796115D01*
X66630804Y-87806224D01*
X66537389Y-88251743D01*
X66534873Y-88261678D01*
X66404985Y-88697964D01*
X66401657Y-88707657D01*
X66236188Y-89131714D01*
X66232072Y-89141099D01*
X66032145Y-89550059D01*
X66027267Y-89559073D01*
X65794250Y-89950125D01*
X65788644Y-89958705D01*
X65524137Y-90329169D01*
X65517843Y-90337256D01*
X65223636Y-90684627D01*
X65216694Y-90692167D01*
X64894825Y-91014036D01*
X64887285Y-91020978D01*
X64539914Y-91315185D01*
X64531827Y-91321479D01*
X64161363Y-91585986D01*
X64152783Y-91591592D01*
X63761731Y-91824609D01*
X63752717Y-91829487D01*
X63343757Y-92029414D01*
X63334372Y-92033530D01*
X62910315Y-92198999D01*
X62900622Y-92202327D01*
X62464336Y-92332215D01*
X62454401Y-92334731D01*
X62008882Y-92428146D01*
X61998773Y-92429833D01*
X61547056Y-92486140D01*
X61536842Y-92486986D01*
X61082028Y-92505797D01*
X61071780Y-92505797D01*
X60616965Y-92486986D01*
X60606751Y-92486140D01*
X60155034Y-92429833D01*
X60144925Y-92428146D01*
X59699406Y-92334731D01*
X59689471Y-92332215D01*
X59253185Y-92202327D01*
X59243492Y-92198999D01*
X58819435Y-92033530D01*
X58810050Y-92029414D01*
X58401090Y-91829487D01*
X58392076Y-91824609D01*
X58001024Y-91591592D01*
X57992444Y-91585986D01*
X57621980Y-91321479D01*
X57613893Y-91315185D01*
X57266522Y-91020978D01*
X57258982Y-91014036D01*
X56937113Y-90692167D01*
X56930171Y-90684627D01*
X56635964Y-90337256D01*
X56629670Y-90329169D01*
X56365163Y-89958705D01*
X56359557Y-89950125D01*
X56126540Y-89559073D01*
X56121662Y-89550059D01*
X55921735Y-89141099D01*
X55917619Y-89131714D01*
X55752150Y-88707657D01*
X55748822Y-88697964D01*
X55618934Y-88261678D01*
X55616418Y-88251743D01*
X55523003Y-87806224D01*
X55521316Y-87796115D01*
X55465009Y-87344398D01*
X55464163Y-87334184D01*
X55445352Y-86879370D01*
X55445352Y-86869122D01*
X55464163Y-86414307D01*
X55465009Y-86404093D01*
X55521316Y-85952376D01*
X55523003Y-85942267D01*
X55616418Y-85496748D01*
X55618934Y-85486813D01*
X55748822Y-85050527D01*
X55752150Y-85040834D01*
X55917619Y-84616777D01*
X55921735Y-84607392D01*
X56121662Y-84198432D01*
X56126540Y-84189418D01*
X56359557Y-83798366D01*
X56365163Y-83789786D01*
X56629670Y-83419322D01*
X56635964Y-83411235D01*
X56930171Y-83063864D01*
X56937113Y-83056324D01*
X57258982Y-82734455D01*
X57266522Y-82727513D01*
X57613893Y-82433306D01*
X57621980Y-82427012D01*
X57992444Y-82162505D01*
X58001024Y-82156899D01*
X58392076Y-81923882D01*
X58401090Y-81919004D01*
X58810050Y-81719077D01*
X58819435Y-81714961D01*
X59243492Y-81549492D01*
X59253185Y-81546164D01*
X59689471Y-81416276D01*
X59699406Y-81413760D01*
X60144925Y-81320345D01*
X60155034Y-81318658D01*
X60606751Y-81262351D01*
X60616965Y-81261505D01*
X61071780Y-81242694D01*
X61082028Y-81242694D01*
X61536842Y-81261505D01*
G37*
G36*
X74903677Y-81042404D02*
G01*
X74909731Y-81042865D01*
X75372365Y-81097226D01*
X75378361Y-81098181D01*
X75834999Y-81190292D01*
X75840896Y-81191736D01*
X76288427Y-81320965D01*
X76294187Y-81322887D01*
X76729635Y-81488377D01*
X76735217Y-81490765D01*
X77155626Y-81691392D01*
X77160994Y-81694230D01*
X77563535Y-81928645D01*
X77568652Y-81931913D01*
X77950621Y-82198539D01*
X77955453Y-82202215D01*
X78314293Y-82499270D01*
X78318807Y-82503331D01*
X78652073Y-82828790D01*
X78656239Y-82833206D01*
X78961701Y-83184890D01*
X78965491Y-83189634D01*
X79241316Y-83565479D01*
X79244312Y-83569885D01*
X79352686Y-83742325D01*
X79362545Y-83796459D01*
X77625277Y-92332607D01*
X77600076Y-92374749D01*
X77440701Y-92507269D01*
X77436487Y-92510524D01*
X77057502Y-92782049D01*
X77052425Y-92785379D01*
X76652806Y-93024712D01*
X76647474Y-93027616D01*
X76229547Y-93233398D01*
X76223994Y-93235854D01*
X75790626Y-93406674D01*
X75784891Y-93408667D01*
X75338969Y-93543385D01*
X75333090Y-93544901D01*
X74877625Y-93642609D01*
X74871641Y-93643638D01*
X74409701Y-93703678D01*
X74403653Y-93704213D01*
X73938339Y-93726180D01*
X73932267Y-93726217D01*
X73466723Y-93709964D01*
X73460669Y-93709503D01*
X72998035Y-93655141D01*
X72992039Y-93654186D01*
X72535403Y-93562076D01*
X72529505Y-93560632D01*
X72081968Y-93431400D01*
X72076209Y-93429478D01*
X71640765Y-93263988D01*
X71635183Y-93261600D01*
X71214774Y-93060972D01*
X71209406Y-93058134D01*
X70806865Y-92823717D01*
X70801748Y-92820449D01*
X70419773Y-92553817D01*
X70414941Y-92550140D01*
X70056116Y-92253095D01*
X70051602Y-92249035D01*
X69718336Y-91923573D01*
X69714169Y-91919156D01*
X69408704Y-91567464D01*
X69404914Y-91562721D01*
X69129084Y-91186867D01*
X69126091Y-91182464D01*
X69017715Y-91010035D01*
X69007854Y-90955898D01*
X70745122Y-82419751D01*
X70770323Y-82377609D01*
X70929699Y-82245090D01*
X70933913Y-82241835D01*
X71312898Y-81970311D01*
X71317975Y-81966981D01*
X71717595Y-81727650D01*
X71722927Y-81724746D01*
X72140854Y-81518965D01*
X72146407Y-81516509D01*
X72579776Y-81345693D01*
X72585511Y-81343700D01*
X73031433Y-81208981D01*
X73037313Y-81207465D01*
X73492777Y-81109758D01*
X73498760Y-81108729D01*
X73960700Y-81048690D01*
X73966748Y-81048155D01*
X74432061Y-81026188D01*
X74438133Y-81026151D01*
X74903677Y-81042404D01*
G37*
G36*
X86334848Y-139073813D02*
G01*
X86385657Y-139121774D01*
X86395824Y-139143934D01*
X86665527Y-139927040D01*
X86665528Y-139927041D01*
X87472736Y-139927041D01*
X87539775Y-139946726D01*
X87585530Y-139999530D01*
X87595474Y-140068688D01*
X87566449Y-140132244D01*
X87549216Y-140148646D01*
X86904397Y-140653906D01*
X86904397Y-140653908D01*
X87154103Y-141417241D01*
X87156238Y-141487078D01*
X87120277Y-141546983D01*
X87057637Y-141577935D01*
X86988207Y-141570109D01*
X86967785Y-141559180D01*
X86277914Y-141102338D01*
X86277913Y-141102338D01*
X85593018Y-141557913D01*
X85526297Y-141578653D01*
X85458956Y-141560028D01*
X85412374Y-141507952D01*
X85401341Y-141438959D01*
X85406488Y-141416114D01*
X85655827Y-140653907D01*
X85655827Y-140653906D01*
X85011008Y-140148646D01*
X84970379Y-140091803D01*
X84966932Y-140022019D01*
X85001761Y-139961448D01*
X85063807Y-139929323D01*
X85087488Y-139927041D01*
X85894696Y-139927041D01*
X86161200Y-139144344D01*
X86201442Y-139087227D01*
X86266176Y-139060934D01*
X86334848Y-139073813D01*
G37*
G36*
X50555451Y-101869905D02*
G01*
X50606260Y-101917866D01*
X50616427Y-101940026D01*
X50886130Y-102723132D01*
X50886131Y-102723133D01*
X51693339Y-102723133D01*
X51760378Y-102742818D01*
X51806133Y-102795622D01*
X51816077Y-102864780D01*
X51787052Y-102928336D01*
X51769819Y-102944738D01*
X51125000Y-103449998D01*
X51125000Y-103450000D01*
X51374706Y-104213333D01*
X51376841Y-104283170D01*
X51340880Y-104343075D01*
X51278240Y-104374027D01*
X51208810Y-104366201D01*
X51188388Y-104355272D01*
X50498517Y-103898430D01*
X50498516Y-103898430D01*
X49813621Y-104354005D01*
X49746900Y-104374745D01*
X49679559Y-104356120D01*
X49632977Y-104304044D01*
X49621944Y-104235051D01*
X49627091Y-104212206D01*
X49876430Y-103449999D01*
X49876430Y-103449998D01*
X49231611Y-102944738D01*
X49190982Y-102887895D01*
X49187535Y-102818111D01*
X49222364Y-102757540D01*
X49284410Y-102725415D01*
X49308091Y-102723133D01*
X50115299Y-102723133D01*
X50381803Y-101940436D01*
X50422045Y-101883319D01*
X50486779Y-101857026D01*
X50555451Y-101869905D01*
G37*
G36*
X81509848Y-101948813D02*
G01*
X81560657Y-101996774D01*
X81570824Y-102018934D01*
X81840527Y-102802040D01*
X81840528Y-102802041D01*
X82647736Y-102802041D01*
X82714775Y-102821726D01*
X82760530Y-102874530D01*
X82770474Y-102943688D01*
X82741449Y-103007244D01*
X82724216Y-103023646D01*
X82079397Y-103528906D01*
X82079397Y-103528908D01*
X82329103Y-104292241D01*
X82331238Y-104362078D01*
X82295277Y-104421983D01*
X82232637Y-104452935D01*
X82163207Y-104445109D01*
X82142785Y-104434180D01*
X81452914Y-103977338D01*
X81452913Y-103977338D01*
X80768018Y-104432913D01*
X80701297Y-104453653D01*
X80633956Y-104435028D01*
X80587374Y-104382952D01*
X80576341Y-104313959D01*
X80581488Y-104291114D01*
X80830827Y-103528907D01*
X80830827Y-103528906D01*
X80186008Y-103023646D01*
X80145379Y-102966803D01*
X80141932Y-102897019D01*
X80176761Y-102836448D01*
X80238807Y-102804323D01*
X80262488Y-102802041D01*
X81069696Y-102802041D01*
X81336200Y-102019344D01*
X81376442Y-101962227D01*
X81441176Y-101935934D01*
X81509848Y-101948813D01*
G37*
G36*
X47309938Y-86412259D02*
G01*
X47320152Y-86413105D01*
X47771869Y-86469412D01*
X47781978Y-86471099D01*
X48227497Y-86564514D01*
X48237432Y-86567030D01*
X48673718Y-86696918D01*
X48683411Y-86700246D01*
X49107468Y-86865715D01*
X49116853Y-86869831D01*
X49525813Y-87069758D01*
X49534827Y-87074636D01*
X49925879Y-87307653D01*
X49934459Y-87313259D01*
X50304923Y-87577766D01*
X50313010Y-87584060D01*
X50660381Y-87878267D01*
X50667921Y-87885209D01*
X50989790Y-88207078D01*
X50996732Y-88214618D01*
X51290939Y-88561989D01*
X51297233Y-88570076D01*
X51561740Y-88940540D01*
X51567346Y-88949120D01*
X51800363Y-89340172D01*
X51805241Y-89349186D01*
X52005168Y-89758146D01*
X52009284Y-89767531D01*
X52174753Y-90191588D01*
X52178081Y-90201281D01*
X52307969Y-90637567D01*
X52310485Y-90647502D01*
X52403900Y-91093021D01*
X52405587Y-91103130D01*
X52461894Y-91554847D01*
X52462740Y-91565061D01*
X52481551Y-92019876D01*
X52481551Y-92030124D01*
X52462740Y-92484938D01*
X52461894Y-92495152D01*
X52405587Y-92946869D01*
X52403900Y-92956978D01*
X52310485Y-93402497D01*
X52307969Y-93412432D01*
X52178081Y-93848718D01*
X52174753Y-93858411D01*
X52009284Y-94282468D01*
X52005168Y-94291853D01*
X51805241Y-94700813D01*
X51800363Y-94709827D01*
X51567346Y-95100879D01*
X51561740Y-95109459D01*
X51297233Y-95479923D01*
X51290939Y-95488010D01*
X50996732Y-95835381D01*
X50989790Y-95842921D01*
X50667921Y-96164790D01*
X50660381Y-96171732D01*
X50313010Y-96465939D01*
X50304923Y-96472233D01*
X49934459Y-96736740D01*
X49925879Y-96742346D01*
X49534827Y-96975363D01*
X49525813Y-96980241D01*
X49116853Y-97180168D01*
X49107468Y-97184284D01*
X48683411Y-97349753D01*
X48673718Y-97353081D01*
X48237432Y-97482969D01*
X48227497Y-97485485D01*
X47781978Y-97578900D01*
X47771869Y-97580587D01*
X47320152Y-97636894D01*
X47309938Y-97637740D01*
X46855124Y-97656551D01*
X46844876Y-97656551D01*
X46390061Y-97637740D01*
X46379847Y-97636894D01*
X45928130Y-97580587D01*
X45918021Y-97578900D01*
X45472502Y-97485485D01*
X45462567Y-97482969D01*
X45026281Y-97353081D01*
X45016588Y-97349753D01*
X44592531Y-97184284D01*
X44583146Y-97180168D01*
X44174186Y-96980241D01*
X44165172Y-96975363D01*
X43774120Y-96742346D01*
X43765540Y-96736740D01*
X43395076Y-96472233D01*
X43386989Y-96465939D01*
X43039618Y-96171732D01*
X43032078Y-96164790D01*
X42710209Y-95842921D01*
X42703267Y-95835381D01*
X42409060Y-95488010D01*
X42402766Y-95479923D01*
X42138259Y-95109459D01*
X42132653Y-95100879D01*
X41899636Y-94709827D01*
X41894758Y-94700813D01*
X41694831Y-94291853D01*
X41690715Y-94282468D01*
X41525246Y-93858411D01*
X41521918Y-93848718D01*
X41392030Y-93412432D01*
X41389514Y-93402497D01*
X41296099Y-92956978D01*
X41294412Y-92946869D01*
X41238105Y-92495152D01*
X41237259Y-92484938D01*
X41218448Y-92030124D01*
X41218448Y-92019876D01*
X41237259Y-91565061D01*
X41238105Y-91554847D01*
X41294412Y-91103130D01*
X41296099Y-91093021D01*
X41389514Y-90647502D01*
X41392030Y-90637567D01*
X41521918Y-90201281D01*
X41525246Y-90191588D01*
X41690715Y-89767531D01*
X41694831Y-89758146D01*
X41894758Y-89349186D01*
X41899636Y-89340172D01*
X42132653Y-88949120D01*
X42138259Y-88940540D01*
X42402766Y-88570076D01*
X42409060Y-88561989D01*
X42703267Y-88214618D01*
X42710209Y-88207078D01*
X43032078Y-87885209D01*
X43039618Y-87878267D01*
X43386989Y-87584060D01*
X43395076Y-87577766D01*
X43765540Y-87313259D01*
X43774120Y-87307653D01*
X44165172Y-87074636D01*
X44174186Y-87069758D01*
X44583146Y-86869831D01*
X44592531Y-86865715D01*
X45016588Y-86700246D01*
X45026281Y-86696918D01*
X45462567Y-86567030D01*
X45472502Y-86564514D01*
X45918021Y-86471099D01*
X45928130Y-86469412D01*
X46379847Y-86413105D01*
X46390061Y-86412259D01*
X46844876Y-86393448D01*
X46855124Y-86393448D01*
X47309938Y-86412259D01*
G37*
G36*
X41758365Y-121447243D02*
G01*
X41809174Y-121495204D01*
X41819341Y-121517364D01*
X42089044Y-122300470D01*
X42089045Y-122300471D01*
X42896253Y-122300471D01*
X42963292Y-122320156D01*
X43009047Y-122372960D01*
X43018991Y-122442118D01*
X42989966Y-122505674D01*
X42972733Y-122522076D01*
X42327914Y-123027336D01*
X42327914Y-123027338D01*
X42577620Y-123790671D01*
X42579755Y-123860508D01*
X42543794Y-123920413D01*
X42481154Y-123951365D01*
X42411724Y-123943539D01*
X42391302Y-123932610D01*
X41701431Y-123475768D01*
X41701430Y-123475768D01*
X41016535Y-123931343D01*
X40949814Y-123952083D01*
X40882473Y-123933458D01*
X40835891Y-123881382D01*
X40824858Y-123812389D01*
X40830005Y-123789544D01*
X41079344Y-123027337D01*
X41079344Y-123027336D01*
X40434525Y-122522076D01*
X40393896Y-122465233D01*
X40390449Y-122395449D01*
X40425278Y-122334878D01*
X40487324Y-122302753D01*
X40511005Y-122300471D01*
X41318213Y-122300471D01*
X41584717Y-121517774D01*
X41624959Y-121460657D01*
X41689693Y-121434364D01*
X41758365Y-121447243D01*
G37*
G36*
X56058365Y-157197243D02*
G01*
X56109174Y-157245204D01*
X56119341Y-157267364D01*
X56389044Y-158050470D01*
X56389045Y-158050471D01*
X57196253Y-158050471D01*
X57263292Y-158070156D01*
X57309047Y-158122960D01*
X57318991Y-158192118D01*
X57289966Y-158255674D01*
X57272733Y-158272076D01*
X56627914Y-158777336D01*
X56627914Y-158777338D01*
X56877620Y-159540671D01*
X56879755Y-159610508D01*
X56843794Y-159670413D01*
X56781154Y-159701365D01*
X56711724Y-159693539D01*
X56691302Y-159682610D01*
X56001431Y-159225768D01*
X56001430Y-159225768D01*
X55316535Y-159681343D01*
X55249814Y-159702083D01*
X55182473Y-159683458D01*
X55135891Y-159631382D01*
X55124858Y-159562389D01*
X55130005Y-159539544D01*
X55379344Y-158777337D01*
X55379344Y-158777336D01*
X54734525Y-158272076D01*
X54693896Y-158215233D01*
X54690449Y-158145449D01*
X54725278Y-158084878D01*
X54787324Y-158052753D01*
X54811005Y-158050471D01*
X55618213Y-158050471D01*
X55884717Y-157267774D01*
X55924959Y-157210657D01*
X55989693Y-157184364D01*
X56058365Y-157197243D01*
G37*
G36*
X79084848Y-156223813D02*
G01*
X79135657Y-156271774D01*
X79145824Y-156293934D01*
X79415527Y-157077040D01*
X79415528Y-157077041D01*
X80222736Y-157077041D01*
X80289775Y-157096726D01*
X80335530Y-157149530D01*
X80345474Y-157218688D01*
X80316449Y-157282244D01*
X80299216Y-157298646D01*
X79654397Y-157803906D01*
X79654397Y-157803908D01*
X79904103Y-158567241D01*
X79906238Y-158637078D01*
X79870277Y-158696983D01*
X79807637Y-158727935D01*
X79738207Y-158720109D01*
X79717785Y-158709180D01*
X79027914Y-158252338D01*
X79027913Y-158252338D01*
X78343018Y-158707913D01*
X78276297Y-158728653D01*
X78208956Y-158710028D01*
X78162374Y-158657952D01*
X78151341Y-158588959D01*
X78156488Y-158566114D01*
X78405827Y-157803907D01*
X78405827Y-157803906D01*
X77761008Y-157298646D01*
X77720379Y-157241803D01*
X77716932Y-157172019D01*
X77751761Y-157111448D01*
X77813807Y-157079323D01*
X77837488Y-157077041D01*
X78644696Y-157077041D01*
X78911200Y-156294344D01*
X78951442Y-156237227D01*
X79016176Y-156210934D01*
X79084848Y-156223813D01*
G37*
G36*
X87254190Y-88421359D02*
G01*
X87264404Y-88422205D01*
X87716121Y-88478512D01*
X87726230Y-88480199D01*
X88171749Y-88573614D01*
X88181684Y-88576130D01*
X88617970Y-88706018D01*
X88627663Y-88709346D01*
X89051720Y-88874815D01*
X89061105Y-88878931D01*
X89470065Y-89078858D01*
X89479079Y-89083736D01*
X89870131Y-89316753D01*
X89878711Y-89322359D01*
X90249175Y-89586866D01*
X90257262Y-89593160D01*
X90604633Y-89887367D01*
X90612173Y-89894309D01*
X90934042Y-90216178D01*
X90940984Y-90223718D01*
X91235191Y-90571089D01*
X91241485Y-90579176D01*
X91505992Y-90949640D01*
X91511598Y-90958220D01*
X91744615Y-91349272D01*
X91749493Y-91358286D01*
X91949420Y-91767246D01*
X91953536Y-91776631D01*
X92119005Y-92200688D01*
X92122333Y-92210381D01*
X92252221Y-92646667D01*
X92254737Y-92656602D01*
X92348152Y-93102121D01*
X92349839Y-93112230D01*
X92406146Y-93563947D01*
X92406992Y-93574161D01*
X92425803Y-94028976D01*
X92425803Y-94039224D01*
X92406992Y-94494038D01*
X92406146Y-94504252D01*
X92349839Y-94955969D01*
X92348152Y-94966078D01*
X92254737Y-95411597D01*
X92252221Y-95421532D01*
X92122333Y-95857818D01*
X92119005Y-95867511D01*
X91953536Y-96291568D01*
X91949420Y-96300953D01*
X91749493Y-96709913D01*
X91744615Y-96718927D01*
X91511598Y-97109979D01*
X91505992Y-97118559D01*
X91241485Y-97489023D01*
X91235191Y-97497110D01*
X90940984Y-97844481D01*
X90934042Y-97852021D01*
X90612173Y-98173890D01*
X90604633Y-98180832D01*
X90257262Y-98475039D01*
X90249175Y-98481333D01*
X89878711Y-98745840D01*
X89870131Y-98751446D01*
X89479079Y-98984463D01*
X89470065Y-98989341D01*
X89061105Y-99189268D01*
X89051720Y-99193384D01*
X88627663Y-99358853D01*
X88617970Y-99362181D01*
X88181684Y-99492069D01*
X88171749Y-99494585D01*
X87726230Y-99588000D01*
X87716121Y-99589687D01*
X87264404Y-99645994D01*
X87254190Y-99646840D01*
X86799376Y-99665651D01*
X86789128Y-99665651D01*
X86334313Y-99646840D01*
X86324099Y-99645994D01*
X85872382Y-99589687D01*
X85862273Y-99588000D01*
X85416754Y-99494585D01*
X85406819Y-99492069D01*
X84970533Y-99362181D01*
X84960840Y-99358853D01*
X84536783Y-99193384D01*
X84527398Y-99189268D01*
X84118438Y-98989341D01*
X84109424Y-98984463D01*
X83718372Y-98751446D01*
X83709792Y-98745840D01*
X83339328Y-98481333D01*
X83331241Y-98475039D01*
X82983870Y-98180832D01*
X82976330Y-98173890D01*
X82654461Y-97852021D01*
X82647519Y-97844481D01*
X82353312Y-97497110D01*
X82347018Y-97489023D01*
X82082511Y-97118559D01*
X82076905Y-97109979D01*
X81843888Y-96718927D01*
X81839010Y-96709913D01*
X81639083Y-96300953D01*
X81634967Y-96291568D01*
X81469498Y-95867511D01*
X81466170Y-95857818D01*
X81336282Y-95421532D01*
X81333766Y-95411597D01*
X81240351Y-94966078D01*
X81238664Y-94955969D01*
X81182357Y-94504252D01*
X81181511Y-94494038D01*
X81162700Y-94039224D01*
X81162700Y-94028976D01*
X81181511Y-93574161D01*
X81182357Y-93563947D01*
X81238664Y-93112230D01*
X81240351Y-93102121D01*
X81333766Y-92656602D01*
X81336282Y-92646667D01*
X81466170Y-92210381D01*
X81469498Y-92200688D01*
X81634967Y-91776631D01*
X81639083Y-91767246D01*
X81839010Y-91358286D01*
X81843888Y-91349272D01*
X82076905Y-90958220D01*
X82082511Y-90949640D01*
X82347018Y-90579176D01*
X82353312Y-90571089D01*
X82647519Y-90223718D01*
X82654461Y-90216178D01*
X82976330Y-89894309D01*
X82983870Y-89887367D01*
X83331241Y-89593160D01*
X83339328Y-89586866D01*
X83709792Y-89322359D01*
X83718372Y-89316753D01*
X84109424Y-89083736D01*
X84118438Y-89078858D01*
X84527398Y-88878931D01*
X84536783Y-88874815D01*
X84960840Y-88709346D01*
X84970533Y-88706018D01*
X85406819Y-88576130D01*
X85416754Y-88573614D01*
X85862273Y-88480199D01*
X85872382Y-88478512D01*
X86324099Y-88422205D01*
X86334313Y-88421359D01*
X86789128Y-88402548D01*
X86799376Y-88402548D01*
X87254190Y-88421359D01*
G37*
G36*
X47722235Y-140599110D02*
G01*
X47773044Y-140647071D01*
X47783211Y-140669231D01*
X48052914Y-141452337D01*
X48052915Y-141452338D01*
X48860123Y-141452338D01*
X48927162Y-141472023D01*
X48972917Y-141524827D01*
X48982861Y-141593985D01*
X48953836Y-141657541D01*
X48936603Y-141673943D01*
X48291784Y-142179203D01*
X48291784Y-142179205D01*
X48541490Y-142942538D01*
X48543625Y-143012375D01*
X48507664Y-143072280D01*
X48445024Y-143103232D01*
X48375594Y-143095406D01*
X48355172Y-143084477D01*
X47665301Y-142627635D01*
X47665300Y-142627635D01*
X46980405Y-143083210D01*
X46913684Y-143103950D01*
X46846343Y-143085325D01*
X46799761Y-143033249D01*
X46788728Y-142964256D01*
X46793875Y-142941411D01*
X47043214Y-142179204D01*
X47043214Y-142179203D01*
X46398395Y-141673943D01*
X46357766Y-141617100D01*
X46354319Y-141547316D01*
X46389148Y-141486745D01*
X46451194Y-141454620D01*
X46474875Y-141452338D01*
X47282083Y-141452338D01*
X47548587Y-140669641D01*
X47588829Y-140612524D01*
X47653563Y-140586231D01*
X47722235Y-140599110D01*
G37*
M02*
