%TF.GenerationSoftware,KiCad,Pcbnew,8.0.5*%
%TF.CreationDate,2024-10-29T18:32:59-07:00*%
%TF.ProjectId,dfiu-ch32v003,64666975-2d63-4683-9332-763030332e6b,rev?*%
%TF.SameCoordinates,Original*%
%TF.FileFunction,Copper,L1,Top*%
%TF.FilePolarity,Positive*%
%FSLAX46Y46*%
G04 Gerber Fmt 4.6, Leading zero omitted, Abs format (unit mm)*
G04 Created by KiCad (PCBNEW 8.0.5) date 2024-10-29 18:32:59*
%MOMM*%
%LPD*%
G01*
G04 APERTURE LIST*
%TA.AperFunction,ComponentPad*%
%ADD10R,1.700000X1.700000*%
%TD*%
%TA.AperFunction,ComponentPad*%
%ADD11O,1.700000X1.700000*%
%TD*%
%TA.AperFunction,ViaPad*%
%ADD12C,0.600000*%
%TD*%
G04 APERTURE END LIST*
D10*
%TO.P,J2,1,Pin_1*%
%TO.N,+3.3V*%
X64790845Y-153029274D03*
D11*
%TO.P,J2,2,Pin_2*%
%TO.N,GND*%
X64790845Y-155569274D03*
%TO.P,J2,3,Pin_3*%
%TO.N,unconnected-(J2-Pin_3-Pad3)*%
X67330845Y-153029274D03*
%TO.P,J2,4,Pin_4*%
%TO.N,unconnected-(J2-Pin_4-Pad4)*%
X67330845Y-155569274D03*
%TO.P,J2,5,Pin_5*%
%TO.N,unconnected-(J2-Pin_5-Pad5)*%
X69870845Y-153029274D03*
%TO.P,J2,6,Pin_6*%
%TO.N,unconnected-(J2-Pin_6-Pad6)*%
X69870845Y-155569274D03*
%TD*%
D10*
%TO.P,J1,1,Pin_1*%
%TO.N,GND*%
X62150000Y-164900000D03*
D11*
%TO.P,J1,2,Pin_2*%
%TO.N,Net-(J1-Pin_2)*%
X64690000Y-164900000D03*
%TO.P,J1,3,Pin_3*%
%TO.N,+3.3V*%
X67230000Y-164900000D03*
%TD*%
D12*
%TO.N,Net-(U1-PD2)*%
X62625000Y-115962500D03*
%TD*%
%TA.AperFunction,Conductor*%
%TO.N,Net-(U1-PD2)*%
G36*
X66923730Y-77165026D02*
G01*
X66925830Y-77165058D01*
X68180397Y-77202679D01*
X68207046Y-77203479D01*
X68209249Y-77203578D01*
X68747697Y-77235803D01*
X69488707Y-77280152D01*
X69490898Y-77280316D01*
X70767509Y-77394975D01*
X70769640Y-77395198D01*
X72042276Y-77547842D01*
X72044453Y-77548136D01*
X73311992Y-77738630D01*
X73314092Y-77738978D01*
X74575423Y-77967157D01*
X74577530Y-77967571D01*
X75795483Y-78225598D01*
X75831451Y-78233218D01*
X75833601Y-78233707D01*
X77079039Y-78536591D01*
X77081174Y-78537144D01*
X78317041Y-78877001D01*
X78319100Y-78877600D01*
X79544362Y-79254148D01*
X79546356Y-79254794D01*
X80759857Y-79667680D01*
X80761851Y-79668391D01*
X81962533Y-80117256D01*
X81964507Y-80118028D01*
X83151243Y-80602450D01*
X83153215Y-80603290D01*
X84324961Y-81122840D01*
X84326906Y-81123737D01*
X85482684Y-81677981D01*
X85484618Y-81678944D01*
X86125374Y-82010045D01*
X86623341Y-82267362D01*
X86625285Y-82268404D01*
X87745918Y-82890458D01*
X87747829Y-82891556D01*
X88849514Y-83546770D01*
X88851327Y-83547885D01*
X89932936Y-84235589D01*
X89934768Y-84236791D01*
X90378062Y-84537558D01*
X90995440Y-84956437D01*
X90997246Y-84957702D01*
X91223824Y-85121497D01*
X92035992Y-85708618D01*
X92037735Y-85709918D01*
X93053669Y-86491466D01*
X93055396Y-86492836D01*
X94047534Y-87304256D01*
X94049220Y-87305677D01*
X94273068Y-87500164D01*
X95008594Y-88139215D01*
X95016777Y-88146324D01*
X95018420Y-88147795D01*
X95960496Y-89016892D01*
X95962094Y-89018411D01*
X96877858Y-89915189D01*
X96879410Y-89916755D01*
X97345512Y-90401226D01*
X97760352Y-90832416D01*
X97768035Y-90840401D01*
X97769505Y-90841974D01*
X98615580Y-91775537D01*
X98630284Y-91791761D01*
X98631734Y-91793411D01*
X99378538Y-92668477D01*
X99403878Y-92698169D01*
X99421360Y-92752041D01*
X99399488Y-92794925D01*
X99401491Y-92796764D01*
X99398210Y-92800337D01*
X99382831Y-92822253D01*
X99376511Y-92830071D01*
X86238311Y-106993912D01*
X86233132Y-106998845D01*
X86189343Y-107046701D01*
X86189005Y-107047068D01*
X86145448Y-107094026D01*
X86144647Y-107095174D01*
X86144353Y-107095591D01*
X86143572Y-107096691D01*
X86114070Y-107153464D01*
X86113837Y-107153908D01*
X86083910Y-107210554D01*
X86083500Y-107211686D01*
X86083322Y-107212170D01*
X86082786Y-107213612D01*
X86068985Y-107276078D01*
X86068875Y-107276568D01*
X86054624Y-107339050D01*
X86054503Y-107340444D01*
X86054461Y-107340911D01*
X86054331Y-107342303D01*
X86057165Y-107406154D01*
X86057186Y-107406656D01*
X86059593Y-107470735D01*
X86059819Y-107472006D01*
X86059906Y-107472510D01*
X86060152Y-107473958D01*
X86079427Y-107534937D01*
X86079577Y-107535417D01*
X86098736Y-107597497D01*
X86101312Y-107604173D01*
X86244327Y-108056609D01*
X86245221Y-108059665D01*
X86559918Y-109227862D01*
X86560711Y-109231094D01*
X86846616Y-110520757D01*
X86847185Y-110523583D01*
X87091573Y-111872687D01*
X87092030Y-111875526D01*
X87282173Y-113221467D01*
X87282469Y-113223834D01*
X87352513Y-113869289D01*
X87352688Y-113871109D01*
X87404653Y-114492816D01*
X87404799Y-114494934D01*
X87436903Y-115081174D01*
X87436999Y-115083727D01*
X87448109Y-115634151D01*
X87448122Y-115635089D01*
X87449371Y-115801608D01*
X87448168Y-115812607D01*
X87448248Y-115812615D01*
X87447790Y-115817438D01*
X87449890Y-115874964D01*
X87449937Y-115877108D01*
X87450300Y-115925625D01*
X87449871Y-115930480D01*
X87450141Y-115930495D01*
X87449876Y-115935335D01*
X87454018Y-115989675D01*
X87454183Y-115992601D01*
X87455729Y-116034983D01*
X87455773Y-116038538D01*
X87455718Y-116043282D01*
X87455718Y-116043284D01*
X87455718Y-116043287D01*
X87455961Y-116045326D01*
X87456100Y-116046778D01*
X87456349Y-116048559D01*
X87460519Y-116083350D01*
X87460633Y-116099955D01*
X87460531Y-116100915D01*
X87460531Y-116100927D01*
X87463887Y-116122272D01*
X87464571Y-116128135D01*
X87466640Y-116155268D01*
X87467011Y-116157942D01*
X87472444Y-116184828D01*
X87473384Y-116190674D01*
X87476113Y-116213434D01*
X87476226Y-116215538D01*
X87476679Y-116219327D01*
X87482272Y-116241260D01*
X87483668Y-116248045D01*
X87487532Y-116272607D01*
X87487431Y-116272622D01*
X87487931Y-116275599D01*
X87488345Y-116275526D01*
X87489194Y-116280303D01*
X87495012Y-116298667D01*
X87497000Y-116306355D01*
X87500401Y-116323187D01*
X87501977Y-116327782D01*
X87501017Y-116328110D01*
X87503799Y-116337615D01*
X87504334Y-116337485D01*
X87505483Y-116342198D01*
X87511273Y-116357123D01*
X87513984Y-116365589D01*
X87517531Y-116379491D01*
X87519336Y-116384001D01*
X87519112Y-116384090D01*
X87525669Y-116402395D01*
X87526005Y-116404278D01*
X87526009Y-116404294D01*
X87531561Y-116416141D01*
X87535096Y-116425184D01*
X87538704Y-116436572D01*
X87540418Y-116439253D01*
X87549802Y-116460953D01*
X87550996Y-116465675D01*
X87556315Y-116475195D01*
X87560702Y-116484519D01*
X87564397Y-116494041D01*
X87567757Y-116498631D01*
X87578287Y-116519061D01*
X87580354Y-116525298D01*
X87580355Y-116525301D01*
X87580356Y-116525303D01*
X87580357Y-116525305D01*
X87585651Y-116533354D01*
X87590825Y-116542604D01*
X87594822Y-116551132D01*
X87599224Y-116556358D01*
X87611044Y-116575832D01*
X87613623Y-116582089D01*
X87613626Y-116582095D01*
X87619368Y-116589606D01*
X87625177Y-116598450D01*
X87629927Y-116606951D01*
X87634426Y-116611579D01*
X87647720Y-116630404D01*
X87650128Y-116635282D01*
X87650131Y-116635287D01*
X87656983Y-116643095D01*
X87663186Y-116651236D01*
X87669306Y-116660540D01*
X87672713Y-116663572D01*
X87687695Y-116682012D01*
X87689072Y-116684411D01*
X87697693Y-116693079D01*
X87704007Y-116700311D01*
X87712185Y-116711007D01*
X87713365Y-116711916D01*
X87726343Y-116725962D01*
X87726593Y-116725749D01*
X87729745Y-116729431D01*
X87740691Y-116739263D01*
X87746860Y-116745504D01*
X87757673Y-116757826D01*
X87761320Y-116761021D01*
X87761210Y-116761145D01*
X87768468Y-116767269D01*
X87771587Y-116770568D01*
X87785179Y-116781614D01*
X87790949Y-116786832D01*
X87804839Y-116800796D01*
X87804841Y-116800797D01*
X87804843Y-116800799D01*
X87808678Y-116803758D01*
X87808393Y-116804126D01*
X87810246Y-116805529D01*
X87810363Y-116805373D01*
X87830562Y-116820409D01*
X87835825Y-116824716D01*
X87852940Y-116840089D01*
X87856037Y-116842212D01*
X87858263Y-116843537D01*
X87876504Y-116856125D01*
X87881143Y-116859602D01*
X87903057Y-116877411D01*
X87903983Y-116878075D01*
X87906502Y-116879660D01*
X87906503Y-116879662D01*
X87924991Y-116891301D01*
X87927762Y-116893046D01*
X87932521Y-116896308D01*
X87946137Y-116906443D01*
X87950109Y-116909400D01*
X87950764Y-116909660D01*
X87965481Y-116917529D01*
X87998877Y-116940576D01*
X87998880Y-116940577D01*
X88002672Y-116942518D01*
X88005917Y-116944282D01*
X88043285Y-116965841D01*
X88045685Y-116967289D01*
X88092082Y-116996499D01*
X88092086Y-116996500D01*
X88096489Y-116998524D01*
X88096354Y-116998817D01*
X88100813Y-117000667D01*
X88144135Y-117024056D01*
X88145882Y-117025031D01*
X88196004Y-117053948D01*
X88196008Y-117053950D01*
X88200487Y-117055804D01*
X88200446Y-117055902D01*
X88210576Y-117059927D01*
X88350429Y-117135432D01*
X88353597Y-117137245D01*
X88503062Y-117227828D01*
X88762784Y-117385232D01*
X88769731Y-117390003D01*
X89133906Y-117671944D01*
X89140124Y-117677338D01*
X89456008Y-117983796D01*
X89476063Y-118003253D01*
X89481440Y-118009058D01*
X89550559Y-118092199D01*
X89710296Y-118284344D01*
X89789505Y-118379622D01*
X89793987Y-118385603D01*
X90073854Y-118801321D01*
X90077469Y-118807279D01*
X90328342Y-119268350D01*
X90331170Y-119274134D01*
X90551966Y-119780371D01*
X90554111Y-119785880D01*
X90743640Y-120336748D01*
X90745212Y-120341925D01*
X90902272Y-120936526D01*
X90903375Y-120941347D01*
X91026864Y-121578651D01*
X91027588Y-121583117D01*
X91116495Y-122261855D01*
X91116918Y-122265981D01*
X91170346Y-122984810D01*
X91170531Y-122988619D01*
X91187695Y-123746237D01*
X91187691Y-123749756D01*
X91167889Y-124544748D01*
X91167736Y-124548004D01*
X91110344Y-125379001D01*
X91110073Y-125382021D01*
X91013580Y-126256200D01*
X91013510Y-126256812D01*
X90962378Y-126687141D01*
X90960177Y-126696193D01*
X90960553Y-126696281D01*
X90959456Y-126700999D01*
X90953628Y-126760650D01*
X90953462Y-126762183D01*
X90946398Y-126821632D01*
X90946460Y-126826484D01*
X90946073Y-126826488D01*
X90946285Y-126835793D01*
X90908586Y-127221617D01*
X90906646Y-127230354D01*
X90907089Y-127230448D01*
X90906083Y-127235187D01*
X90901364Y-127295395D01*
X90901239Y-127296808D01*
X90895367Y-127356897D01*
X90895530Y-127361740D01*
X90895079Y-127361755D01*
X90895461Y-127370699D01*
X90863519Y-127778235D01*
X90861814Y-127786692D01*
X90862308Y-127786788D01*
X90861385Y-127791550D01*
X90857707Y-127852235D01*
X90857617Y-127853539D01*
X90852865Y-127914174D01*
X90853121Y-127919016D01*
X90852615Y-127919042D01*
X90853137Y-127927654D01*
X90827113Y-128357104D01*
X90826120Y-128365498D01*
X90825317Y-128370039D01*
X90822616Y-128431144D01*
X90822553Y-128432351D01*
X90818850Y-128493467D01*
X90819174Y-128498059D01*
X90819285Y-128506523D01*
X90799321Y-128958320D01*
X90798452Y-128966816D01*
X90797833Y-128970656D01*
X90796051Y-129032149D01*
X90796010Y-129033270D01*
X90793294Y-129094756D01*
X90793630Y-129098619D01*
X90793877Y-129107175D01*
X90780127Y-129581580D01*
X90779375Y-129590170D01*
X90778906Y-129593368D01*
X90777987Y-129655178D01*
X90777964Y-129656220D01*
X90776173Y-129718062D01*
X90776502Y-129721279D01*
X90776878Y-129729903D01*
X90769498Y-130226823D01*
X90768857Y-130235500D01*
X90768504Y-130238143D01*
X90768399Y-130300299D01*
X90768391Y-130301270D01*
X90767470Y-130363335D01*
X90767777Y-130365962D01*
X90768275Y-130374653D01*
X90767403Y-130894079D01*
X90766979Y-130900701D01*
X90767281Y-130965887D01*
X90767282Y-130966352D01*
X90767173Y-131031771D01*
X90767616Y-131038399D01*
X90779110Y-133524297D01*
X90771731Y-133556853D01*
X90389861Y-134346595D01*
X90389529Y-134347273D01*
X90336246Y-134454654D01*
X90335515Y-134456089D01*
X90283368Y-134555678D01*
X90282550Y-134557197D01*
X90230190Y-134651761D01*
X90229279Y-134653358D01*
X90176673Y-134743034D01*
X90175664Y-134744703D01*
X90122741Y-134829705D01*
X90121635Y-134831427D01*
X90108585Y-134851143D01*
X90068305Y-134911994D01*
X90067084Y-134913780D01*
X90013285Y-134990108D01*
X90011953Y-134991938D01*
X89957558Y-135064306D01*
X89956117Y-135066161D01*
X89901081Y-135134737D01*
X89899531Y-135136605D01*
X89843587Y-135201811D01*
X89841936Y-135203671D01*
X89785078Y-135265603D01*
X89783334Y-135267439D01*
X89725245Y-135326521D01*
X89723416Y-135328317D01*
X89663976Y-135384724D01*
X89662082Y-135386461D01*
X89601016Y-135440507D01*
X89599070Y-135442170D01*
X89536163Y-135494079D01*
X89534183Y-135495657D01*
X89507562Y-135516134D01*
X89494911Y-135523976D01*
X89487908Y-135527394D01*
X89487895Y-135527403D01*
X89451252Y-135559277D01*
X89447806Y-135562097D01*
X89409296Y-135591720D01*
X89409291Y-135591724D01*
X89404547Y-135597922D01*
X89394358Y-135608768D01*
X89270021Y-135716926D01*
X89263345Y-135722095D01*
X89236096Y-135740807D01*
X89220883Y-135758603D01*
X89213207Y-135766346D01*
X89195537Y-135781718D01*
X89177056Y-135809136D01*
X89171946Y-135815854D01*
X89045082Y-135964274D01*
X89038528Y-135971022D01*
X89016820Y-135990697D01*
X89002089Y-136013543D01*
X88996150Y-136021520D01*
X88978486Y-136042185D01*
X88965865Y-136068618D01*
X88961279Y-136076833D01*
X88852329Y-136245800D01*
X88846006Y-136254223D01*
X88829683Y-136273015D01*
X88829680Y-136273020D01*
X88815849Y-136301405D01*
X88811521Y-136309088D01*
X88794405Y-136335633D01*
X88786786Y-136359341D01*
X88782858Y-136369112D01*
X88690735Y-136558176D01*
X88684817Y-136568224D01*
X88673076Y-136584981D01*
X88673073Y-136584986D01*
X88660746Y-136618812D01*
X88657743Y-136625885D01*
X88641974Y-136658248D01*
X88641974Y-136658250D01*
X88638077Y-136678338D01*
X88634960Y-136689578D01*
X88558536Y-136899314D01*
X88553178Y-136910833D01*
X88545024Y-136925029D01*
X88534736Y-136963760D01*
X88532745Y-136970094D01*
X88519024Y-137007751D01*
X88517590Y-137024066D01*
X88515394Y-137036580D01*
X88453898Y-137268112D01*
X88449204Y-137280901D01*
X88443718Y-137292433D01*
X88443716Y-137292441D01*
X88435804Y-137335370D01*
X88434551Y-137340951D01*
X88423348Y-137383131D01*
X88423348Y-137383136D01*
X88423375Y-137395910D01*
X88422150Y-137409475D01*
X88375232Y-137664100D01*
X88371256Y-137677941D01*
X88367684Y-137686958D01*
X88367681Y-137686971D01*
X88362301Y-137733361D01*
X88361569Y-137738244D01*
X88353110Y-137784155D01*
X88353109Y-137784167D01*
X88353880Y-137793836D01*
X88353622Y-137808233D01*
X88321286Y-138087165D01*
X88318039Y-138101868D01*
X88315802Y-138108634D01*
X88312971Y-138157812D01*
X88312601Y-138162079D01*
X88306931Y-138210994D01*
X88307970Y-138218041D01*
X88308639Y-138233086D01*
X88291127Y-138537317D01*
X88288596Y-138552702D01*
X88287274Y-138557503D01*
X88287273Y-138557512D01*
X88286914Y-138608884D01*
X88286794Y-138612618D01*
X88283842Y-138663915D01*
X88283842Y-138663922D01*
X88284851Y-138668790D01*
X88286387Y-138684312D01*
X88284082Y-139014608D01*
X88282230Y-139030553D01*
X88281520Y-139033663D01*
X88283505Y-139086757D01*
X88283555Y-139090036D01*
X88283184Y-139143200D01*
X88283185Y-139143208D01*
X88283989Y-139146293D01*
X88286325Y-139162177D01*
X88299669Y-139519069D01*
X88298456Y-139535458D01*
X88298144Y-139537118D01*
X88298144Y-139537119D01*
X88302323Y-139591578D01*
X88302488Y-139594474D01*
X88304529Y-139649075D01*
X88305030Y-139650698D01*
X88308097Y-139666836D01*
X88337550Y-140050678D01*
X88336935Y-140067404D01*
X88336868Y-140067846D01*
X88336868Y-140067852D01*
X88336868Y-140067855D01*
X88338372Y-140081291D01*
X88343084Y-140123391D01*
X88343326Y-140125959D01*
X88347599Y-140181639D01*
X88347601Y-140181646D01*
X88347747Y-140182061D01*
X88351480Y-140198381D01*
X88397494Y-140609380D01*
X88397450Y-140621310D01*
X88397504Y-140625785D01*
X88405602Y-140682123D01*
X88405895Y-140684418D01*
X88412225Y-140740954D01*
X88413299Y-140745297D01*
X88416342Y-140756832D01*
X88479338Y-141195037D01*
X88479623Y-141205933D01*
X88479729Y-141205929D01*
X88479923Y-141210768D01*
X88489756Y-141267712D01*
X88490082Y-141269773D01*
X88498306Y-141326973D01*
X88499616Y-141331639D01*
X88499512Y-141331667D01*
X88502607Y-141342120D01*
X88582977Y-141807505D01*
X88583523Y-141817829D01*
X88583728Y-141817816D01*
X88584046Y-141822653D01*
X88595478Y-141880040D01*
X88595824Y-141881903D01*
X88605788Y-141939595D01*
X88607232Y-141944232D01*
X88607037Y-141944292D01*
X88610236Y-141954122D01*
X88721162Y-142510954D01*
X88721317Y-142511755D01*
X88851575Y-143205495D01*
X88898892Y-143457506D01*
X88908621Y-143509319D01*
X88909193Y-143512831D01*
X88910415Y-143521656D01*
X89042536Y-144476557D01*
X89042957Y-144480302D01*
X89124467Y-145419608D01*
X89124704Y-145423579D01*
X89154707Y-146338217D01*
X89154726Y-146342402D01*
X89133563Y-147232273D01*
X89133329Y-147236652D01*
X89061327Y-148101673D01*
X89060807Y-148106215D01*
X88938275Y-148946370D01*
X88937442Y-148951032D01*
X88764636Y-149766439D01*
X88763469Y-149771172D01*
X88540580Y-150561964D01*
X88539068Y-150566710D01*
X88266198Y-151333092D01*
X88264343Y-151337789D01*
X87941508Y-152079952D01*
X87939325Y-152084535D01*
X87566409Y-152802738D01*
X87563924Y-152807147D01*
X87140755Y-153501521D01*
X87138008Y-153505703D01*
X86664314Y-154176361D01*
X86661352Y-154180273D01*
X86136817Y-154827226D01*
X86133690Y-154830838D01*
X85556771Y-155455307D01*
X85553857Y-155458288D01*
X84854012Y-156135023D01*
X84851750Y-156137121D01*
X84052358Y-156848069D01*
X84050459Y-156849701D01*
X83164863Y-157585199D01*
X83163221Y-157586524D01*
X82203800Y-158338172D01*
X82202338Y-158339288D01*
X81181378Y-159098962D01*
X81180038Y-159099936D01*
X80109623Y-159859779D01*
X80108358Y-159860657D01*
X79000566Y-160612879D01*
X78999339Y-160613695D01*
X77866047Y-161350690D01*
X77864820Y-161351471D01*
X76718062Y-162065566D01*
X76716800Y-162066334D01*
X75568657Y-162749856D01*
X75567319Y-162750634D01*
X74429740Y-163396030D01*
X74428277Y-163396838D01*
X73313442Y-163996462D01*
X73311791Y-163997323D01*
X72231994Y-164543536D01*
X72230068Y-164544476D01*
X71197830Y-165029618D01*
X71195500Y-165030664D01*
X70223789Y-165447047D01*
X70220855Y-165448231D01*
X69320701Y-165789183D01*
X69317547Y-165790297D01*
X68685657Y-165997510D01*
X68682853Y-165998368D01*
X68052376Y-166177779D01*
X68049500Y-166178536D01*
X67422688Y-166329966D01*
X67419743Y-166330614D01*
X66797389Y-166454376D01*
X66794378Y-166454910D01*
X66177220Y-166551327D01*
X66174147Y-166551741D01*
X65562898Y-166621152D01*
X65559766Y-166621441D01*
X64955059Y-166664181D01*
X64951872Y-166664337D01*
X64354534Y-166680731D01*
X64351297Y-166680749D01*
X63761958Y-166671134D01*
X63758676Y-166671008D01*
X63178049Y-166635717D01*
X63174726Y-166635440D01*
X62603515Y-166574803D01*
X62600166Y-166574369D01*
X62518368Y-166561883D01*
X62039057Y-166488718D01*
X62035677Y-166488121D01*
X61485363Y-166377787D01*
X61481965Y-166377022D01*
X60943115Y-166242331D01*
X60939708Y-166241393D01*
X60412978Y-166082661D01*
X60409574Y-166081544D01*
X59895659Y-165899106D01*
X59892282Y-165897813D01*
X59506000Y-165738934D01*
X59391788Y-165691958D01*
X59388421Y-165690474D01*
X58902062Y-165461536D01*
X58898732Y-165459865D01*
X58427059Y-165208098D01*
X58423780Y-165206239D01*
X58131698Y-165030664D01*
X57967504Y-164931964D01*
X57964332Y-164929945D01*
X57523995Y-164633381D01*
X57520877Y-164631160D01*
X57097240Y-164312656D01*
X57094204Y-164310247D01*
X56753903Y-164025326D01*
X61049500Y-164025326D01*
X61049500Y-165774674D01*
X61064034Y-165847740D01*
X61119399Y-165930601D01*
X61202260Y-165985966D01*
X61275326Y-166000500D01*
X61275328Y-166000500D01*
X63024672Y-166000500D01*
X63024674Y-166000500D01*
X63097740Y-165985966D01*
X63180601Y-165930601D01*
X63235966Y-165847740D01*
X63250500Y-165774674D01*
X63250500Y-164899996D01*
X63584785Y-164899996D01*
X63584785Y-164900003D01*
X63603601Y-165103076D01*
X63603602Y-165103082D01*
X63659416Y-165299244D01*
X63659418Y-165299250D01*
X63750327Y-165481821D01*
X63750328Y-165481822D01*
X63750329Y-165481825D01*
X63873234Y-165644578D01*
X63873235Y-165644579D01*
X64010637Y-165769836D01*
X64023959Y-165781981D01*
X64197363Y-165889348D01*
X64387544Y-165963024D01*
X64588024Y-166000500D01*
X64588026Y-166000500D01*
X64791974Y-166000500D01*
X64791976Y-166000500D01*
X64992456Y-165963024D01*
X65182637Y-165889348D01*
X65356041Y-165781981D01*
X65506764Y-165644579D01*
X65629673Y-165481821D01*
X65720582Y-165299250D01*
X65776397Y-165103083D01*
X65777072Y-165095807D01*
X65795215Y-164900003D01*
X65795215Y-164899996D01*
X66124785Y-164899996D01*
X66124785Y-164900003D01*
X66143601Y-165103076D01*
X66143602Y-165103082D01*
X66199416Y-165299244D01*
X66199418Y-165299250D01*
X66290327Y-165481821D01*
X66290328Y-165481822D01*
X66290329Y-165481825D01*
X66413234Y-165644578D01*
X66413235Y-165644579D01*
X66550637Y-165769836D01*
X66563959Y-165781981D01*
X66737363Y-165889348D01*
X66927544Y-165963024D01*
X67128024Y-166000500D01*
X67128026Y-166000500D01*
X67331974Y-166000500D01*
X67331976Y-166000500D01*
X67532456Y-165963024D01*
X67722637Y-165889348D01*
X67896041Y-165781981D01*
X68046764Y-165644579D01*
X68169673Y-165481821D01*
X68260582Y-165299250D01*
X68316397Y-165103083D01*
X68317072Y-165095807D01*
X68335215Y-164900003D01*
X68335215Y-164899996D01*
X68316398Y-164696923D01*
X68316397Y-164696917D01*
X68273023Y-164544476D01*
X68260582Y-164500750D01*
X68169673Y-164318179D01*
X68169670Y-164318175D01*
X68169670Y-164318174D01*
X68046765Y-164155421D01*
X68046764Y-164155420D01*
X67896041Y-164018019D01*
X67861225Y-163996462D01*
X67722637Y-163910652D01*
X67532456Y-163836976D01*
X67444407Y-163820516D01*
X67331979Y-163799500D01*
X67331976Y-163799500D01*
X67128024Y-163799500D01*
X67128020Y-163799500D01*
X66978116Y-163827522D01*
X66927544Y-163836976D01*
X66927542Y-163836976D01*
X66927540Y-163836977D01*
X66778899Y-163894561D01*
X66737363Y-163910652D01*
X66737358Y-163910654D01*
X66737358Y-163910655D01*
X66563958Y-164018019D01*
X66563957Y-164018019D01*
X66413235Y-164155420D01*
X66413234Y-164155421D01*
X66290329Y-164318174D01*
X66290328Y-164318177D01*
X66199418Y-164500750D01*
X66199416Y-164500755D01*
X66143602Y-164696917D01*
X66143601Y-164696923D01*
X66124785Y-164899996D01*
X65795215Y-164899996D01*
X65776398Y-164696923D01*
X65776397Y-164696917D01*
X65733023Y-164544476D01*
X65720582Y-164500750D01*
X65629673Y-164318179D01*
X65629670Y-164318175D01*
X65629670Y-164318174D01*
X65506765Y-164155421D01*
X65506764Y-164155420D01*
X65356041Y-164018019D01*
X65321225Y-163996462D01*
X65182637Y-163910652D01*
X64992456Y-163836976D01*
X64904407Y-163820516D01*
X64791979Y-163799500D01*
X64791976Y-163799500D01*
X64588024Y-163799500D01*
X64588020Y-163799500D01*
X64438116Y-163827522D01*
X64387544Y-163836976D01*
X64387542Y-163836976D01*
X64387540Y-163836977D01*
X64238899Y-163894561D01*
X64197363Y-163910652D01*
X64197358Y-163910654D01*
X64197358Y-163910655D01*
X64023958Y-164018019D01*
X64023957Y-164018019D01*
X63873235Y-164155420D01*
X63873234Y-164155421D01*
X63750329Y-164318174D01*
X63750328Y-164318177D01*
X63659418Y-164500750D01*
X63659416Y-164500755D01*
X63603602Y-164696917D01*
X63603601Y-164696923D01*
X63584785Y-164899996D01*
X63250500Y-164899996D01*
X63250500Y-164025326D01*
X63235966Y-163952260D01*
X63180601Y-163869399D01*
X63143990Y-163844937D01*
X63097740Y-163814034D01*
X63024674Y-163799500D01*
X61275326Y-163799500D01*
X61226615Y-163809189D01*
X61202259Y-163814034D01*
X61119399Y-163869398D01*
X61119398Y-163869399D01*
X61064034Y-163952259D01*
X61060766Y-163968687D01*
X61049500Y-164025326D01*
X56753903Y-164025326D01*
X56687742Y-163969932D01*
X56684818Y-163967349D01*
X56296294Y-163605567D01*
X56293497Y-163602821D01*
X55923434Y-163219686D01*
X55920778Y-163216786D01*
X55569847Y-162812524D01*
X55567346Y-162809483D01*
X55236186Y-162384273D01*
X55233870Y-162381130D01*
X54923125Y-161935114D01*
X54920988Y-161931866D01*
X54631345Y-161465227D01*
X54629377Y-161461862D01*
X54613180Y-161432407D01*
X54361533Y-160974765D01*
X54359757Y-160971325D01*
X54336510Y-160923246D01*
X54114377Y-160463842D01*
X54112803Y-160460359D01*
X54072215Y-160363956D01*
X53885963Y-159921581D01*
X53885721Y-159920996D01*
X53880897Y-159909216D01*
X53860654Y-159859779D01*
X53812745Y-159742778D01*
X53810335Y-159733990D01*
X53809926Y-159734107D01*
X53808596Y-159729442D01*
X53784693Y-159674235D01*
X53784161Y-159672974D01*
X53761320Y-159617192D01*
X53761316Y-159617187D01*
X53758912Y-159612982D01*
X53759279Y-159612771D01*
X53754676Y-159604904D01*
X53676925Y-159425327D01*
X53674506Y-159417104D01*
X53674001Y-159417258D01*
X53672590Y-159412619D01*
X53672590Y-159412616D01*
X53647405Y-159357122D01*
X53646943Y-159356081D01*
X53622715Y-159300120D01*
X53622714Y-159300119D01*
X53622714Y-159300118D01*
X53620225Y-159295960D01*
X53620673Y-159295691D01*
X53616204Y-159288369D01*
X53530154Y-159098758D01*
X53331591Y-158661225D01*
X53328521Y-158653270D01*
X53327248Y-158649308D01*
X53327248Y-158649303D01*
X53300995Y-158593784D01*
X53300538Y-158592798D01*
X53275146Y-158536845D01*
X53275144Y-158536842D01*
X53275142Y-158536838D01*
X53272938Y-158533299D01*
X53268857Y-158525816D01*
X53042988Y-158048133D01*
X54448796Y-158048133D01*
X55335620Y-158743022D01*
X55363439Y-158792356D01*
X55360310Y-158824278D01*
X55015927Y-159877023D01*
X55015928Y-159877023D01*
X55015928Y-159877024D01*
X55957626Y-159250629D01*
X56013195Y-159239696D01*
X56039463Y-159250545D01*
X56303399Y-159425327D01*
X56985501Y-159877024D01*
X56985501Y-159877023D01*
X56985502Y-159877024D01*
X56641120Y-158824277D01*
X56645451Y-158767806D01*
X56665808Y-158743023D01*
X57552634Y-158048133D01*
X56438910Y-158048133D01*
X56386584Y-158026459D01*
X56368943Y-157998230D01*
X56368859Y-157997985D01*
X56050880Y-157074703D01*
X77475279Y-157074703D01*
X78362103Y-157769592D01*
X78389922Y-157818926D01*
X78386793Y-157850848D01*
X78042410Y-158903593D01*
X78042411Y-158903593D01*
X78042411Y-158903594D01*
X78984109Y-158277199D01*
X79039678Y-158266266D01*
X79065946Y-158277115D01*
X79144021Y-158328817D01*
X80011984Y-158903594D01*
X80011984Y-158903593D01*
X80011985Y-158903594D01*
X79667603Y-157850847D01*
X79671934Y-157794376D01*
X79692291Y-157769593D01*
X80579117Y-157074703D01*
X79465393Y-157074703D01*
X79413067Y-157053029D01*
X79395426Y-157024800D01*
X79360250Y-156922662D01*
X79025000Y-155949232D01*
X79024999Y-155949233D01*
X78658858Y-157024555D01*
X78621474Y-157067102D01*
X78588807Y-157074703D01*
X77475279Y-157074703D01*
X56050880Y-157074703D01*
X55998517Y-156922662D01*
X55998516Y-156922663D01*
X55632375Y-157997985D01*
X55594991Y-158040532D01*
X55562324Y-158048133D01*
X54448796Y-158048133D01*
X53042988Y-158048133D01*
X52923447Y-157795321D01*
X52920224Y-157787332D01*
X52919138Y-157784113D01*
X52912014Y-157769592D01*
X52905887Y-157757103D01*
X52891919Y-157728629D01*
X52891457Y-157727670D01*
X52865078Y-157671881D01*
X52865075Y-157671877D01*
X52863235Y-157669023D01*
X52858994Y-157661519D01*
X52853418Y-157650154D01*
X52468172Y-156864881D01*
X52467991Y-156864507D01*
X52460831Y-156849701D01*
X52268161Y-156451255D01*
X51841673Y-155569270D01*
X63685630Y-155569270D01*
X63685630Y-155569277D01*
X63704446Y-155772350D01*
X63704447Y-155772356D01*
X63754774Y-155949232D01*
X63760263Y-155968524D01*
X63851172Y-156151095D01*
X63851173Y-156151096D01*
X63851174Y-156151099D01*
X63974079Y-156313852D01*
X63974080Y-156313853D01*
X64111482Y-156439110D01*
X64124804Y-156451255D01*
X64298208Y-156558622D01*
X64488389Y-156632298D01*
X64688869Y-156669774D01*
X64688871Y-156669774D01*
X64892819Y-156669774D01*
X64892821Y-156669774D01*
X65093301Y-156632298D01*
X65283482Y-156558622D01*
X65456886Y-156451255D01*
X65607609Y-156313853D01*
X65730518Y-156151095D01*
X65821427Y-155968524D01*
X65877242Y-155772357D01*
X65896060Y-155569274D01*
X65896060Y-155569270D01*
X66225630Y-155569270D01*
X66225630Y-155569277D01*
X66244446Y-155772350D01*
X66244447Y-155772356D01*
X66294774Y-155949232D01*
X66300263Y-155968524D01*
X66391172Y-156151095D01*
X66391173Y-156151096D01*
X66391174Y-156151099D01*
X66514079Y-156313852D01*
X66514080Y-156313853D01*
X66651482Y-156439110D01*
X66664804Y-156451255D01*
X66838208Y-156558622D01*
X67028389Y-156632298D01*
X67228869Y-156669774D01*
X67228871Y-156669774D01*
X67432819Y-156669774D01*
X67432821Y-156669774D01*
X67633301Y-156632298D01*
X67823482Y-156558622D01*
X67996886Y-156451255D01*
X68147609Y-156313853D01*
X68270518Y-156151095D01*
X68361427Y-155968524D01*
X68417242Y-155772357D01*
X68436060Y-155569274D01*
X68436060Y-155569270D01*
X68765630Y-155569270D01*
X68765630Y-155569277D01*
X68784446Y-155772350D01*
X68784447Y-155772356D01*
X68834774Y-155949232D01*
X68840263Y-155968524D01*
X68931172Y-156151095D01*
X68931173Y-156151096D01*
X68931174Y-156151099D01*
X69054079Y-156313852D01*
X69054080Y-156313853D01*
X69191482Y-156439110D01*
X69204804Y-156451255D01*
X69378208Y-156558622D01*
X69568389Y-156632298D01*
X69768869Y-156669774D01*
X69768871Y-156669774D01*
X69972819Y-156669774D01*
X69972821Y-156669774D01*
X70173301Y-156632298D01*
X70363482Y-156558622D01*
X70536886Y-156451255D01*
X70687609Y-156313853D01*
X70810518Y-156151095D01*
X70901427Y-155968524D01*
X70957242Y-155772357D01*
X70976060Y-155569274D01*
X70976060Y-155569270D01*
X70957243Y-155366197D01*
X70957242Y-155366191D01*
X70901428Y-155170029D01*
X70901427Y-155170024D01*
X70810518Y-154987453D01*
X70810515Y-154987449D01*
X70810515Y-154987448D01*
X70687610Y-154824695D01*
X70687609Y-154824694D01*
X70536886Y-154687293D01*
X70363482Y-154579926D01*
X70173301Y-154506250D01*
X70085252Y-154489790D01*
X69972824Y-154468774D01*
X69972821Y-154468774D01*
X69768869Y-154468774D01*
X69768865Y-154468774D01*
X69618961Y-154496796D01*
X69568389Y-154506250D01*
X69568387Y-154506250D01*
X69568385Y-154506251D01*
X69378213Y-154579924D01*
X69378208Y-154579926D01*
X69378203Y-154579928D01*
X69378203Y-154579929D01*
X69204803Y-154687293D01*
X69204802Y-154687293D01*
X69054080Y-154824694D01*
X69054079Y-154824695D01*
X68931174Y-154987448D01*
X68931173Y-154987451D01*
X68840263Y-155170024D01*
X68840261Y-155170029D01*
X68784447Y-155366191D01*
X68784446Y-155366197D01*
X68765630Y-155569270D01*
X68436060Y-155569270D01*
X68417243Y-155366197D01*
X68417242Y-155366191D01*
X68361428Y-155170029D01*
X68361427Y-155170024D01*
X68270518Y-154987453D01*
X68270515Y-154987449D01*
X68270515Y-154987448D01*
X68147610Y-154824695D01*
X68147609Y-154824694D01*
X67996886Y-154687293D01*
X67823482Y-154579926D01*
X67633301Y-154506250D01*
X67545252Y-154489790D01*
X67432824Y-154468774D01*
X67432821Y-154468774D01*
X67228869Y-154468774D01*
X67228865Y-154468774D01*
X67078961Y-154496796D01*
X67028389Y-154506250D01*
X67028387Y-154506250D01*
X67028385Y-154506251D01*
X66838213Y-154579924D01*
X66838208Y-154579926D01*
X66838203Y-154579928D01*
X66838203Y-154579929D01*
X66664803Y-154687293D01*
X66664802Y-154687293D01*
X66514080Y-154824694D01*
X66514079Y-154824695D01*
X66391174Y-154987448D01*
X66391173Y-154987451D01*
X66300263Y-155170024D01*
X66300261Y-155170029D01*
X66244447Y-155366191D01*
X66244446Y-155366197D01*
X66225630Y-155569270D01*
X65896060Y-155569270D01*
X65877243Y-155366197D01*
X65877242Y-155366191D01*
X65821428Y-155170029D01*
X65821427Y-155170024D01*
X65730518Y-154987453D01*
X65730515Y-154987449D01*
X65730515Y-154987448D01*
X65607610Y-154824695D01*
X65607609Y-154824694D01*
X65456886Y-154687293D01*
X65283482Y-154579926D01*
X65093301Y-154506250D01*
X65005252Y-154489790D01*
X64892824Y-154468774D01*
X64892821Y-154468774D01*
X64688869Y-154468774D01*
X64688865Y-154468774D01*
X64538961Y-154496796D01*
X64488389Y-154506250D01*
X64488387Y-154506250D01*
X64488385Y-154506251D01*
X64298213Y-154579924D01*
X64298208Y-154579926D01*
X64298203Y-154579928D01*
X64298203Y-154579929D01*
X64124803Y-154687293D01*
X64124802Y-154687293D01*
X63974080Y-154824694D01*
X63974079Y-154824695D01*
X63851174Y-154987448D01*
X63851173Y-154987451D01*
X63760263Y-155170024D01*
X63760261Y-155170029D01*
X63704447Y-155366191D01*
X63704446Y-155366197D01*
X63685630Y-155569270D01*
X51841673Y-155569270D01*
X50949066Y-153723343D01*
X50948799Y-153722786D01*
X50206585Y-152154600D01*
X63690345Y-152154600D01*
X63690345Y-153903948D01*
X63704879Y-153977014D01*
X63760244Y-154059875D01*
X63843105Y-154115240D01*
X63916171Y-154129774D01*
X63916173Y-154129774D01*
X65665517Y-154129774D01*
X65665519Y-154129774D01*
X65738585Y-154115240D01*
X65821446Y-154059875D01*
X65876811Y-153977014D01*
X65891345Y-153903948D01*
X65891345Y-153029270D01*
X66225630Y-153029270D01*
X66225630Y-153029277D01*
X66244446Y-153232350D01*
X66244447Y-153232356D01*
X66300261Y-153428518D01*
X66300263Y-153428524D01*
X66391172Y-153611095D01*
X66391173Y-153611096D01*
X66391174Y-153611099D01*
X66514079Y-153773852D01*
X66514080Y-153773853D01*
X66651482Y-153899110D01*
X66664804Y-153911255D01*
X66838208Y-154018622D01*
X67028389Y-154092298D01*
X67228869Y-154129774D01*
X67228871Y-154129774D01*
X67432819Y-154129774D01*
X67432821Y-154129774D01*
X67633301Y-154092298D01*
X67823482Y-154018622D01*
X67996886Y-153911255D01*
X68147609Y-153773853D01*
X68185753Y-153723343D01*
X68270515Y-153611099D01*
X68270515Y-153611098D01*
X68270518Y-153611095D01*
X68361427Y-153428524D01*
X68417242Y-153232357D01*
X68436060Y-153029274D01*
X68436060Y-153029270D01*
X68765630Y-153029270D01*
X68765630Y-153029277D01*
X68784446Y-153232350D01*
X68784447Y-153232356D01*
X68840261Y-153428518D01*
X68840263Y-153428524D01*
X68931172Y-153611095D01*
X68931173Y-153611096D01*
X68931174Y-153611099D01*
X69054079Y-153773852D01*
X69054080Y-153773853D01*
X69191482Y-153899110D01*
X69204804Y-153911255D01*
X69378208Y-154018622D01*
X69568389Y-154092298D01*
X69768869Y-154129774D01*
X69768871Y-154129774D01*
X69972819Y-154129774D01*
X69972821Y-154129774D01*
X70173301Y-154092298D01*
X70363482Y-154018622D01*
X70536886Y-153911255D01*
X70687609Y-153773853D01*
X70725753Y-153723343D01*
X70810515Y-153611099D01*
X70810515Y-153611098D01*
X70810518Y-153611095D01*
X70901427Y-153428524D01*
X70957242Y-153232357D01*
X70976060Y-153029274D01*
X70957242Y-152826191D01*
X70901427Y-152630024D01*
X70810518Y-152447453D01*
X70810515Y-152447449D01*
X70810515Y-152447448D01*
X70687610Y-152284695D01*
X70687609Y-152284694D01*
X70536886Y-152147293D01*
X70430681Y-152081534D01*
X70363482Y-152039926D01*
X70173301Y-151966250D01*
X70085252Y-151949790D01*
X69972824Y-151928774D01*
X69972821Y-151928774D01*
X69768869Y-151928774D01*
X69768865Y-151928774D01*
X69618961Y-151956796D01*
X69568389Y-151966250D01*
X69568387Y-151966250D01*
X69568385Y-151966251D01*
X69378213Y-152039924D01*
X69378208Y-152039926D01*
X69378203Y-152039928D01*
X69378203Y-152039929D01*
X69204803Y-152147293D01*
X69204802Y-152147293D01*
X69054080Y-152284694D01*
X69054079Y-152284695D01*
X68931174Y-152447448D01*
X68931173Y-152447451D01*
X68840263Y-152630024D01*
X68840261Y-152630029D01*
X68784447Y-152826191D01*
X68784446Y-152826197D01*
X68765630Y-153029270D01*
X68436060Y-153029270D01*
X68417242Y-152826191D01*
X68361427Y-152630024D01*
X68270518Y-152447453D01*
X68270515Y-152447449D01*
X68270515Y-152447448D01*
X68147610Y-152284695D01*
X68147609Y-152284694D01*
X67996886Y-152147293D01*
X67890681Y-152081534D01*
X67823482Y-152039926D01*
X67633301Y-151966250D01*
X67545252Y-151949790D01*
X67432824Y-151928774D01*
X67432821Y-151928774D01*
X67228869Y-151928774D01*
X67228865Y-151928774D01*
X67078961Y-151956796D01*
X67028389Y-151966250D01*
X67028387Y-151966250D01*
X67028385Y-151966251D01*
X66838213Y-152039924D01*
X66838208Y-152039926D01*
X66838203Y-152039928D01*
X66838203Y-152039929D01*
X66664803Y-152147293D01*
X66664802Y-152147293D01*
X66514080Y-152284694D01*
X66514079Y-152284695D01*
X66391174Y-152447448D01*
X66391173Y-152447451D01*
X66300263Y-152630024D01*
X66300261Y-152630029D01*
X66244447Y-152826191D01*
X66244446Y-152826197D01*
X66225630Y-153029270D01*
X65891345Y-153029270D01*
X65891345Y-152154600D01*
X65876811Y-152081534D01*
X65821446Y-151998673D01*
X65738585Y-151943308D01*
X65665519Y-151928774D01*
X63916171Y-151928774D01*
X63867460Y-151938463D01*
X63843104Y-151943308D01*
X63760244Y-151998672D01*
X63760243Y-151998673D01*
X63704879Y-152081533D01*
X63704879Y-152081534D01*
X63690345Y-152154600D01*
X50206585Y-152154600D01*
X48708947Y-148990317D01*
X48708933Y-148990287D01*
X48489180Y-148525442D01*
X48117608Y-147739450D01*
X48115311Y-147733684D01*
X48109539Y-147721659D01*
X48086895Y-147674481D01*
X48086707Y-147674086D01*
X48058667Y-147614771D01*
X48055623Y-147609329D01*
X47968788Y-147428416D01*
X47727677Y-146926082D01*
X57824500Y-146926082D01*
X57824500Y-147073918D01*
X57828107Y-147092049D01*
X57853340Y-147218907D01*
X57853343Y-147218917D01*
X57909915Y-147355494D01*
X57977133Y-147456092D01*
X57992049Y-147478416D01*
X58096584Y-147582951D01*
X58219505Y-147665084D01*
X58356087Y-147721658D01*
X58501082Y-147750500D01*
X58501084Y-147750500D01*
X58648916Y-147750500D01*
X58648918Y-147750500D01*
X58793913Y-147721658D01*
X58930495Y-147665084D01*
X59053416Y-147582951D01*
X59157951Y-147478416D01*
X59240084Y-147355495D01*
X59248964Y-147334055D01*
X59289011Y-147294008D01*
X59345648Y-147294006D01*
X59378860Y-147321262D01*
X59417049Y-147378416D01*
X59521584Y-147482951D01*
X59644505Y-147565084D01*
X59781087Y-147621658D01*
X59926082Y-147650500D01*
X59926084Y-147650500D01*
X60073916Y-147650500D01*
X60073918Y-147650500D01*
X60218913Y-147621658D01*
X60268586Y-147601083D01*
X61174500Y-147601083D01*
X61174500Y-147748916D01*
X61203340Y-147893907D01*
X61203343Y-147893917D01*
X61259915Y-148030494D01*
X61341327Y-148152335D01*
X61342049Y-148153416D01*
X61446584Y-148257951D01*
X61569505Y-148340084D01*
X61706087Y-148396658D01*
X61851082Y-148425500D01*
X61851084Y-148425500D01*
X61998916Y-148425500D01*
X61998918Y-148425500D01*
X62143913Y-148396658D01*
X62280495Y-148340084D01*
X62403416Y-148257951D01*
X62507951Y-148153416D01*
X62590084Y-148030495D01*
X62646658Y-147893913D01*
X62675500Y-147748918D01*
X62675500Y-147601082D01*
X62646658Y-147456087D01*
X62590084Y-147319505D01*
X62507951Y-147196584D01*
X62403416Y-147092049D01*
X62280495Y-147009916D01*
X62280496Y-147009916D01*
X62280494Y-147009915D01*
X62143917Y-146953343D01*
X62143907Y-146953340D01*
X62046811Y-146934026D01*
X61998918Y-146924500D01*
X61851082Y-146924500D01*
X61809977Y-146932676D01*
X61706092Y-146953340D01*
X61706082Y-146953343D01*
X61569505Y-147009915D01*
X61446584Y-147092048D01*
X61446583Y-147092050D01*
X61342050Y-147196583D01*
X61342048Y-147196584D01*
X61259915Y-147319505D01*
X61203343Y-147456082D01*
X61203340Y-147456092D01*
X61174500Y-147601083D01*
X60268586Y-147601083D01*
X60355495Y-147565084D01*
X60478416Y-147482951D01*
X60582951Y-147378416D01*
X60665084Y-147255495D01*
X60721658Y-147118913D01*
X60750500Y-146973918D01*
X60750500Y-146876083D01*
X63149500Y-146876083D01*
X63149500Y-147023916D01*
X63178340Y-147168907D01*
X63178343Y-147168917D01*
X63234915Y-147305494D01*
X63283641Y-147378417D01*
X63317049Y-147428416D01*
X63421584Y-147532951D01*
X63544505Y-147615084D01*
X63681087Y-147671658D01*
X63826082Y-147700500D01*
X63826084Y-147700500D01*
X63973916Y-147700500D01*
X63973918Y-147700500D01*
X64118913Y-147671658D01*
X64255495Y-147615084D01*
X64378416Y-147532951D01*
X64482951Y-147428416D01*
X64565084Y-147305495D01*
X64621658Y-147168913D01*
X64650500Y-147023918D01*
X64650500Y-146876082D01*
X64621658Y-146731087D01*
X64565084Y-146594505D01*
X64482951Y-146471584D01*
X64378416Y-146367049D01*
X64341530Y-146342402D01*
X64255494Y-146284915D01*
X64118917Y-146228343D01*
X64118907Y-146228340D01*
X64021811Y-146209026D01*
X63973918Y-146199500D01*
X63826082Y-146199500D01*
X63784977Y-146207676D01*
X63681092Y-146228340D01*
X63681082Y-146228343D01*
X63544505Y-146284915D01*
X63421584Y-146367048D01*
X63421583Y-146367050D01*
X63317050Y-146471583D01*
X63317048Y-146471584D01*
X63234915Y-146594505D01*
X63178343Y-146731082D01*
X63178340Y-146731092D01*
X63149500Y-146876083D01*
X60750500Y-146876083D01*
X60750500Y-146826082D01*
X60721658Y-146681087D01*
X60665084Y-146544505D01*
X60582951Y-146421584D01*
X60478416Y-146317049D01*
X60443797Y-146293917D01*
X60355494Y-146234915D01*
X60218917Y-146178343D01*
X60218907Y-146178340D01*
X60121811Y-146159026D01*
X60073918Y-146149500D01*
X59926082Y-146149500D01*
X59884977Y-146157676D01*
X59781092Y-146178340D01*
X59781082Y-146178343D01*
X59644505Y-146234915D01*
X59521584Y-146317048D01*
X59521583Y-146317050D01*
X59417050Y-146421583D01*
X59417048Y-146421584D01*
X59334914Y-146544507D01*
X59326034Y-146565945D01*
X59285985Y-146605993D01*
X59229348Y-146605991D01*
X59196139Y-146578737D01*
X59173267Y-146544507D01*
X59157951Y-146521584D01*
X59053416Y-146417049D01*
X59030110Y-146401476D01*
X58930494Y-146334915D01*
X58793917Y-146278343D01*
X58793907Y-146278340D01*
X58696811Y-146259026D01*
X58648918Y-146249500D01*
X58501082Y-146249500D01*
X58459977Y-146257676D01*
X58356092Y-146278340D01*
X58356082Y-146278343D01*
X58219505Y-146334915D01*
X58096584Y-146417048D01*
X58096583Y-146417050D01*
X57992050Y-146521583D01*
X57992048Y-146521584D01*
X57909915Y-146644505D01*
X57853343Y-146781082D01*
X57853340Y-146781092D01*
X57832372Y-146886507D01*
X57824500Y-146926082D01*
X47727677Y-146926082D01*
X47530601Y-146515493D01*
X47527965Y-146508996D01*
X47527511Y-146508067D01*
X47527511Y-146508064D01*
X47499453Y-146450595D01*
X47499238Y-146450150D01*
X47471104Y-146391535D01*
X47467632Y-146385419D01*
X47442975Y-146334915D01*
X47279989Y-146001083D01*
X65724500Y-146001083D01*
X65724500Y-146148916D01*
X65753340Y-146293907D01*
X65753343Y-146293917D01*
X65809915Y-146430494D01*
X65870780Y-146521584D01*
X65892049Y-146553416D01*
X65996584Y-146657951D01*
X66119505Y-146740084D01*
X66256087Y-146796658D01*
X66401082Y-146825500D01*
X66401084Y-146825500D01*
X66548916Y-146825500D01*
X66548918Y-146825500D01*
X66693913Y-146796658D01*
X66830495Y-146740084D01*
X66953416Y-146657951D01*
X67057951Y-146553416D01*
X67140084Y-146430495D01*
X67196658Y-146293913D01*
X67225500Y-146148918D01*
X67225500Y-146001082D01*
X67196658Y-145856087D01*
X67140084Y-145719505D01*
X67057951Y-145596584D01*
X66953416Y-145492049D01*
X66939799Y-145482950D01*
X66830494Y-145409915D01*
X66693917Y-145353343D01*
X66693907Y-145353340D01*
X66596811Y-145334026D01*
X66548918Y-145324500D01*
X66401082Y-145324500D01*
X66359977Y-145332676D01*
X66256092Y-145353340D01*
X66256082Y-145353343D01*
X66119505Y-145409915D01*
X65996584Y-145492048D01*
X65996583Y-145492050D01*
X65892050Y-145596583D01*
X65892048Y-145596584D01*
X65809915Y-145719505D01*
X65753343Y-145856082D01*
X65753340Y-145856092D01*
X65724500Y-146001083D01*
X47279989Y-146001083D01*
X46984789Y-145396445D01*
X46981612Y-145388774D01*
X46981447Y-145388442D01*
X46952974Y-145331282D01*
X46924920Y-145273819D01*
X46924919Y-145273818D01*
X46924762Y-145273496D01*
X46920601Y-145266289D01*
X46915224Y-145255495D01*
X46701329Y-144826083D01*
X56549500Y-144826083D01*
X56549500Y-144973916D01*
X56578340Y-145118907D01*
X56578343Y-145118917D01*
X56634915Y-145255494D01*
X56717048Y-145378415D01*
X56821584Y-145482951D01*
X56944505Y-145565084D01*
X57020731Y-145596658D01*
X57081087Y-145621658D01*
X57226082Y-145650500D01*
X57226084Y-145650500D01*
X57373916Y-145650500D01*
X57373918Y-145650500D01*
X57518913Y-145621658D01*
X57655495Y-145565084D01*
X57778416Y-145482951D01*
X57882951Y-145378416D01*
X57965084Y-145255495D01*
X58021658Y-145118913D01*
X58050500Y-144973918D01*
X58050500Y-144826082D01*
X58030608Y-144726083D01*
X58449500Y-144726083D01*
X58449500Y-144873916D01*
X58478340Y-145018907D01*
X58478343Y-145018917D01*
X58534915Y-145155494D01*
X58613762Y-145273496D01*
X58617049Y-145278416D01*
X58721584Y-145382951D01*
X58844505Y-145465084D01*
X58981087Y-145521658D01*
X59126082Y-145550500D01*
X59126084Y-145550500D01*
X59273916Y-145550500D01*
X59273918Y-145550500D01*
X59418913Y-145521658D01*
X59555495Y-145465084D01*
X59678416Y-145382951D01*
X59782951Y-145278416D01*
X59865084Y-145155495D01*
X59921658Y-145018913D01*
X59950500Y-144873918D01*
X59950500Y-144801083D01*
X63924500Y-144801083D01*
X63924500Y-144948916D01*
X63953340Y-145093907D01*
X63953343Y-145093917D01*
X64009915Y-145230494D01*
X64092048Y-145353415D01*
X64196584Y-145457951D01*
X64319505Y-145540084D01*
X64344651Y-145550500D01*
X64456087Y-145596658D01*
X64601082Y-145625500D01*
X64601084Y-145625500D01*
X64748916Y-145625500D01*
X64748918Y-145625500D01*
X64893913Y-145596658D01*
X65030495Y-145540084D01*
X65153416Y-145457951D01*
X65257951Y-145353416D01*
X65340084Y-145230495D01*
X65396658Y-145093913D01*
X65425500Y-144948918D01*
X65425500Y-144801082D01*
X65396658Y-144656087D01*
X65340084Y-144519505D01*
X65257951Y-144396584D01*
X65153416Y-144292049D01*
X65133015Y-144278417D01*
X65030494Y-144209915D01*
X64893917Y-144153343D01*
X64893907Y-144153340D01*
X64796811Y-144134026D01*
X64748918Y-144124500D01*
X64601082Y-144124500D01*
X64559977Y-144132676D01*
X64456092Y-144153340D01*
X64456082Y-144153343D01*
X64319505Y-144209915D01*
X64196584Y-144292048D01*
X64196583Y-144292050D01*
X64092050Y-144396583D01*
X64092048Y-144396584D01*
X64009915Y-144519505D01*
X63953343Y-144656082D01*
X63953340Y-144656092D01*
X63924500Y-144801083D01*
X59950500Y-144801083D01*
X59950500Y-144726082D01*
X59921658Y-144581087D01*
X59908988Y-144550500D01*
X59865084Y-144444505D01*
X59782951Y-144321584D01*
X59678415Y-144217048D01*
X59555494Y-144134915D01*
X59418917Y-144078343D01*
X59418907Y-144078340D01*
X59316398Y-144057950D01*
X59273918Y-144049500D01*
X59126082Y-144049500D01*
X59084977Y-144057676D01*
X58981092Y-144078340D01*
X58981082Y-144078343D01*
X58844505Y-144134915D01*
X58721584Y-144217048D01*
X58721583Y-144217050D01*
X58617050Y-144321583D01*
X58617048Y-144321584D01*
X58534915Y-144444505D01*
X58478343Y-144581082D01*
X58478340Y-144581092D01*
X58449500Y-144726083D01*
X58030608Y-144726083D01*
X58021658Y-144681087D01*
X57965084Y-144544505D01*
X57882951Y-144421584D01*
X57778416Y-144317049D01*
X57747901Y-144296659D01*
X57655494Y-144234915D01*
X57518917Y-144178343D01*
X57518907Y-144178340D01*
X57416398Y-144157950D01*
X57373918Y-144149500D01*
X57226082Y-144149500D01*
X57195949Y-144155494D01*
X57081092Y-144178340D01*
X57081082Y-144178343D01*
X56944505Y-144234915D01*
X56821584Y-144317048D01*
X56821583Y-144317050D01*
X56717050Y-144421583D01*
X56717048Y-144421584D01*
X56634915Y-144544505D01*
X56578343Y-144681082D01*
X56578340Y-144681092D01*
X56549500Y-144826083D01*
X46701329Y-144826083D01*
X46486581Y-144394958D01*
X46483088Y-144386733D01*
X46482819Y-144385980D01*
X46482818Y-144385971D01*
X46467180Y-144355354D01*
X46454157Y-144329855D01*
X46453822Y-144329190D01*
X46425739Y-144272813D01*
X46425739Y-144272812D01*
X46425736Y-144272808D01*
X46425282Y-144272134D01*
X46420738Y-144264427D01*
X46042331Y-143523546D01*
X46038852Y-143515621D01*
X46037788Y-143512753D01*
X46037787Y-143512751D01*
X46037787Y-143512750D01*
X46008832Y-143457945D01*
X46008360Y-143457036D01*
X45980226Y-143401952D01*
X45978497Y-143399442D01*
X45974009Y-143392033D01*
X45923635Y-143296685D01*
X45657581Y-142793102D01*
X45654228Y-142784338D01*
X45653878Y-142784477D01*
X45652096Y-142779967D01*
X45623050Y-142727705D01*
X45622302Y-142726325D01*
X45620447Y-142722814D01*
X45594364Y-142673444D01*
X45594361Y-142673441D01*
X45591558Y-142669488D01*
X45591863Y-142669271D01*
X45586348Y-142661668D01*
X45581251Y-142652497D01*
X45336755Y-142212571D01*
X45330404Y-142197365D01*
X45329980Y-142195910D01*
X45301521Y-142149063D01*
X45300101Y-142146619D01*
X45273483Y-142098724D01*
X45273482Y-142098723D01*
X45273481Y-142098721D01*
X45272417Y-142097622D01*
X45262351Y-142084585D01*
X45091559Y-141803440D01*
X45088051Y-141795635D01*
X45087564Y-141795861D01*
X45085529Y-141791452D01*
X45053005Y-141739952D01*
X45052328Y-141738859D01*
X45034745Y-141709916D01*
X45020713Y-141686817D01*
X45020709Y-141686813D01*
X45017676Y-141683037D01*
X45018090Y-141682704D01*
X45012670Y-141676083D01*
X44869890Y-141450000D01*
X46112666Y-141450000D01*
X46999490Y-142144889D01*
X47027309Y-142194223D01*
X47024180Y-142226145D01*
X46679797Y-143278890D01*
X46679798Y-143278890D01*
X46679798Y-143278891D01*
X47621496Y-142652496D01*
X47677065Y-142641563D01*
X47703333Y-142652412D01*
X47941177Y-142809915D01*
X48649371Y-143278891D01*
X48649371Y-143278890D01*
X48649372Y-143278891D01*
X48468533Y-142726082D01*
X55799500Y-142726082D01*
X55799500Y-142873918D01*
X55806661Y-142909916D01*
X55828340Y-143018907D01*
X55828343Y-143018917D01*
X55884915Y-143155494D01*
X55967048Y-143278415D01*
X56071584Y-143382951D01*
X56194505Y-143465084D01*
X56309781Y-143512833D01*
X56331087Y-143521658D01*
X56476082Y-143550500D01*
X56476084Y-143550500D01*
X56623916Y-143550500D01*
X56623918Y-143550500D01*
X56768913Y-143521658D01*
X56905495Y-143465084D01*
X57028416Y-143382951D01*
X57132951Y-143278416D01*
X57215084Y-143155495D01*
X57271658Y-143018913D01*
X57300500Y-142873918D01*
X57300500Y-142776083D01*
X57924500Y-142776083D01*
X57924500Y-142923916D01*
X57953340Y-143068907D01*
X57953343Y-143068917D01*
X58009915Y-143205494D01*
X58058958Y-143278891D01*
X58092049Y-143328416D01*
X58196584Y-143432951D01*
X58319505Y-143515084D01*
X58456087Y-143571658D01*
X58601082Y-143600500D01*
X58601084Y-143600500D01*
X58748916Y-143600500D01*
X58748918Y-143600500D01*
X58893913Y-143571658D01*
X59030495Y-143515084D01*
X59051449Y-143501083D01*
X61074500Y-143501083D01*
X61074500Y-143648916D01*
X61103340Y-143793907D01*
X61103343Y-143793917D01*
X61159915Y-143930494D01*
X61242048Y-144053415D01*
X61346584Y-144157951D01*
X61469505Y-144240084D01*
X61548517Y-144272812D01*
X61606087Y-144296658D01*
X61751082Y-144325500D01*
X61751084Y-144325500D01*
X61898916Y-144325500D01*
X61898918Y-144325500D01*
X62043913Y-144296658D01*
X62180495Y-144240084D01*
X62303416Y-144157951D01*
X62407951Y-144053416D01*
X62490084Y-143930495D01*
X62518098Y-143862861D01*
X62558146Y-143822813D01*
X62614783Y-143822813D01*
X62647994Y-143850068D01*
X62717048Y-143953415D01*
X62821584Y-144057951D01*
X62944505Y-144140084D01*
X63036870Y-144178343D01*
X63081087Y-144196658D01*
X63226082Y-144225500D01*
X63226084Y-144225500D01*
X63373916Y-144225500D01*
X63373918Y-144225500D01*
X63518913Y-144196658D01*
X63655495Y-144140084D01*
X63778416Y-144057951D01*
X63882951Y-143953416D01*
X63965084Y-143830495D01*
X64008333Y-143726083D01*
X66399500Y-143726083D01*
X66399500Y-143873916D01*
X66428340Y-144018907D01*
X66428343Y-144018917D01*
X66484915Y-144155494D01*
X66563305Y-144272812D01*
X66567049Y-144278416D01*
X66671584Y-144382951D01*
X66794505Y-144465084D01*
X66931087Y-144521658D01*
X67076082Y-144550500D01*
X67076084Y-144550500D01*
X67223916Y-144550500D01*
X67223918Y-144550500D01*
X67368913Y-144521658D01*
X67505495Y-144465084D01*
X67628416Y-144382951D01*
X67732951Y-144278416D01*
X67815084Y-144155495D01*
X67871658Y-144018913D01*
X67900500Y-143873918D01*
X67900500Y-143726082D01*
X67871658Y-143581087D01*
X67858988Y-143550500D01*
X67815084Y-143444505D01*
X67732951Y-143321584D01*
X67628415Y-143217048D01*
X67505494Y-143134915D01*
X67368917Y-143078343D01*
X67368907Y-143078340D01*
X67271811Y-143059026D01*
X67223918Y-143049500D01*
X67076082Y-143049500D01*
X67034977Y-143057676D01*
X66931092Y-143078340D01*
X66931082Y-143078343D01*
X66794505Y-143134915D01*
X66671584Y-143217048D01*
X66671583Y-143217050D01*
X66567050Y-143321583D01*
X66567048Y-143321584D01*
X66484915Y-143444505D01*
X66428343Y-143581082D01*
X66428340Y-143581092D01*
X66399500Y-143726083D01*
X64008333Y-143726083D01*
X64021658Y-143693913D01*
X64050500Y-143548918D01*
X64050500Y-143401082D01*
X64021658Y-143256087D01*
X63998397Y-143199931D01*
X63965084Y-143119505D01*
X63882951Y-142996584D01*
X63778415Y-142892048D01*
X63655494Y-142809915D01*
X63518917Y-142753343D01*
X63518907Y-142753340D01*
X63421811Y-142734026D01*
X63373918Y-142724500D01*
X63226082Y-142724500D01*
X63195949Y-142730494D01*
X63081092Y-142753340D01*
X63081082Y-142753343D01*
X62944505Y-142809915D01*
X62821584Y-142892048D01*
X62821583Y-142892050D01*
X62717050Y-142996583D01*
X62717048Y-142996584D01*
X62634916Y-143119504D01*
X62606901Y-143187138D01*
X62566852Y-143227186D01*
X62510215Y-143227186D01*
X62477005Y-143199931D01*
X62407951Y-143096584D01*
X62303415Y-142992048D01*
X62180494Y-142909915D01*
X62043917Y-142853343D01*
X62043907Y-142853340D01*
X61946811Y-142834026D01*
X61898918Y-142824500D01*
X61751082Y-142824500D01*
X61709977Y-142832676D01*
X61606092Y-142853340D01*
X61606082Y-142853343D01*
X61469505Y-142909915D01*
X61346584Y-142992048D01*
X61346583Y-142992050D01*
X61242050Y-143096583D01*
X61242048Y-143096584D01*
X61159915Y-143219505D01*
X61103343Y-143356082D01*
X61103340Y-143356092D01*
X61074500Y-143501083D01*
X59051449Y-143501083D01*
X59153416Y-143432951D01*
X59257951Y-143328416D01*
X59340084Y-143205495D01*
X59396658Y-143068913D01*
X59425500Y-142923918D01*
X59425500Y-142776082D01*
X59396658Y-142631087D01*
X59340084Y-142494505D01*
X59257951Y-142371584D01*
X59187450Y-142301083D01*
X65299500Y-142301083D01*
X65299500Y-142448916D01*
X65328340Y-142593907D01*
X65328343Y-142593917D01*
X65384915Y-142730494D01*
X65467048Y-142853415D01*
X65571584Y-142957951D01*
X65694505Y-143040084D01*
X65786870Y-143078343D01*
X65831087Y-143096658D01*
X65976082Y-143125500D01*
X65976084Y-143125500D01*
X66123916Y-143125500D01*
X66123918Y-143125500D01*
X66268913Y-143096658D01*
X66405495Y-143040084D01*
X66528416Y-142957951D01*
X66632951Y-142853416D01*
X66715084Y-142730495D01*
X66771658Y-142593913D01*
X66800500Y-142448918D01*
X66800500Y-142301082D01*
X66771658Y-142156087D01*
X66715084Y-142019505D01*
X66632951Y-141896584D01*
X66528416Y-141792049D01*
X66470863Y-141753593D01*
X66405494Y-141709915D01*
X66268917Y-141653343D01*
X66268907Y-141653340D01*
X66169188Y-141633505D01*
X66123918Y-141624500D01*
X65976082Y-141624500D01*
X65934977Y-141632676D01*
X65831092Y-141653340D01*
X65831082Y-141653343D01*
X65694505Y-141709915D01*
X65571584Y-141792048D01*
X65571583Y-141792050D01*
X65467050Y-141896583D01*
X65467048Y-141896584D01*
X65384915Y-142019505D01*
X65328343Y-142156082D01*
X65328340Y-142156092D01*
X65299500Y-142301083D01*
X59187450Y-142301083D01*
X59153416Y-142267049D01*
X59152664Y-142266546D01*
X59030494Y-142184915D01*
X58893917Y-142128343D01*
X58893907Y-142128340D01*
X58796811Y-142109026D01*
X58748918Y-142099500D01*
X58601082Y-142099500D01*
X58559977Y-142107676D01*
X58456092Y-142128340D01*
X58456082Y-142128343D01*
X58319505Y-142184915D01*
X58196584Y-142267048D01*
X58196583Y-142267050D01*
X58092050Y-142371583D01*
X58092048Y-142371584D01*
X58009915Y-142494505D01*
X57953343Y-142631082D01*
X57953340Y-142631092D01*
X57924500Y-142776083D01*
X57300500Y-142776083D01*
X57300500Y-142726082D01*
X57271658Y-142581087D01*
X57215084Y-142444505D01*
X57132951Y-142321584D01*
X57028416Y-142217049D01*
X56998944Y-142197356D01*
X56905494Y-142134915D01*
X56768917Y-142078343D01*
X56768907Y-142078340D01*
X56671811Y-142059026D01*
X56623918Y-142049500D01*
X56476082Y-142049500D01*
X56434977Y-142057676D01*
X56331092Y-142078340D01*
X56331082Y-142078343D01*
X56194505Y-142134915D01*
X56071584Y-142217048D01*
X56071583Y-142217050D01*
X55967050Y-142321583D01*
X55967048Y-142321584D01*
X55884915Y-142444505D01*
X55828343Y-142581082D01*
X55828340Y-142581092D01*
X55804263Y-142702135D01*
X55799500Y-142726082D01*
X48468533Y-142726082D01*
X48304990Y-142226144D01*
X48309321Y-142169673D01*
X48329678Y-142144890D01*
X49216504Y-141450000D01*
X48102780Y-141450000D01*
X48050454Y-141428326D01*
X48032813Y-141400097D01*
X48012846Y-141342120D01*
X47792072Y-140701082D01*
X56699500Y-140701082D01*
X56699500Y-140848918D01*
X56705781Y-140880494D01*
X56728340Y-140993907D01*
X56728343Y-140993917D01*
X56784915Y-141130494D01*
X56867048Y-141253415D01*
X56971584Y-141357951D01*
X57094505Y-141440084D01*
X57164104Y-141468913D01*
X57231087Y-141496658D01*
X57376082Y-141525500D01*
X57376084Y-141525500D01*
X57523916Y-141525500D01*
X57523918Y-141525500D01*
X57668913Y-141496658D01*
X57805495Y-141440084D01*
X57928416Y-141357951D01*
X58032951Y-141253416D01*
X58115084Y-141130495D01*
X58171658Y-140993913D01*
X58200500Y-140848918D01*
X58200500Y-140701082D01*
X58180608Y-140601082D01*
X58824500Y-140601082D01*
X58824500Y-140748918D01*
X58829009Y-140771584D01*
X58853340Y-140893907D01*
X58853343Y-140893917D01*
X58909915Y-141030494D01*
X58976734Y-141130495D01*
X58992049Y-141153416D01*
X59096584Y-141257951D01*
X59219505Y-141340084D01*
X59356087Y-141396658D01*
X59501082Y-141425500D01*
X59501084Y-141425500D01*
X59648916Y-141425500D01*
X59648918Y-141425500D01*
X59793913Y-141396658D01*
X59930495Y-141340084D01*
X60053416Y-141257951D01*
X60157951Y-141153416D01*
X60240084Y-141030495D01*
X60296658Y-140893913D01*
X60325500Y-140748918D01*
X60325500Y-140601082D01*
X60296658Y-140456087D01*
X60253164Y-140351083D01*
X60924500Y-140351083D01*
X60924500Y-140498916D01*
X60953340Y-140643907D01*
X60953343Y-140643917D01*
X61009915Y-140780494D01*
X61092048Y-140903415D01*
X61196584Y-141007951D01*
X61319505Y-141090084D01*
X61417063Y-141130494D01*
X61456087Y-141146658D01*
X61601082Y-141175500D01*
X61601084Y-141175500D01*
X61748916Y-141175500D01*
X61748918Y-141175500D01*
X61893913Y-141146658D01*
X62030495Y-141090084D01*
X62153416Y-141007951D01*
X62257951Y-140903416D01*
X62340084Y-140780495D01*
X62396658Y-140643913D01*
X62425500Y-140498918D01*
X62425500Y-140451082D01*
X63174500Y-140451082D01*
X63174500Y-140598918D01*
X63178954Y-140621310D01*
X63203340Y-140743907D01*
X63203343Y-140743917D01*
X63259915Y-140880494D01*
X63342048Y-141003415D01*
X63446584Y-141107951D01*
X63569505Y-141190084D01*
X63645731Y-141221658D01*
X63706087Y-141246658D01*
X63851082Y-141275500D01*
X63851084Y-141275500D01*
X63998916Y-141275500D01*
X63998918Y-141275500D01*
X64143913Y-141246658D01*
X64280495Y-141190084D01*
X64403416Y-141107951D01*
X64507951Y-141003416D01*
X64590084Y-140880495D01*
X64646658Y-140743913D01*
X64675500Y-140598918D01*
X64675500Y-140451082D01*
X64670527Y-140426082D01*
X65324500Y-140426082D01*
X65324500Y-140573918D01*
X65333246Y-140617888D01*
X65353340Y-140718907D01*
X65353343Y-140718917D01*
X65409915Y-140855494D01*
X65492048Y-140978415D01*
X65596584Y-141082951D01*
X65719505Y-141165084D01*
X65744651Y-141175500D01*
X65856087Y-141221658D01*
X66001082Y-141250500D01*
X66001084Y-141250500D01*
X66148916Y-141250500D01*
X66148918Y-141250500D01*
X66293913Y-141221658D01*
X66403943Y-141176082D01*
X67099500Y-141176082D01*
X67099500Y-141323918D01*
X67102716Y-141340084D01*
X67128340Y-141468907D01*
X67128343Y-141468917D01*
X67184915Y-141605494D01*
X67254688Y-141709916D01*
X67267049Y-141728416D01*
X67371584Y-141832951D01*
X67494505Y-141915084D01*
X67631087Y-141971658D01*
X67776082Y-142000500D01*
X67776084Y-142000500D01*
X67923916Y-142000500D01*
X67923918Y-142000500D01*
X68068913Y-141971658D01*
X68205495Y-141915084D01*
X68328416Y-141832951D01*
X68432951Y-141728416D01*
X68515084Y-141605495D01*
X68571658Y-141468913D01*
X68600500Y-141323918D01*
X68600500Y-141176082D01*
X68571658Y-141031087D01*
X68515084Y-140894505D01*
X68432951Y-140771584D01*
X68328416Y-140667049D01*
X68294484Y-140644376D01*
X68205494Y-140584915D01*
X68068917Y-140528343D01*
X68068907Y-140528340D01*
X67971811Y-140509026D01*
X67923918Y-140499500D01*
X67776082Y-140499500D01*
X67734977Y-140507676D01*
X67631092Y-140528340D01*
X67631082Y-140528343D01*
X67494505Y-140584915D01*
X67371584Y-140667048D01*
X67371583Y-140667050D01*
X67267050Y-140771583D01*
X67267048Y-140771584D01*
X67184915Y-140894505D01*
X67128343Y-141031082D01*
X67128340Y-141031092D01*
X67111398Y-141116266D01*
X67099500Y-141176082D01*
X66403943Y-141176082D01*
X66430495Y-141165084D01*
X66553416Y-141082951D01*
X66657951Y-140978416D01*
X66740084Y-140855495D01*
X66796658Y-140718913D01*
X66825500Y-140573918D01*
X66825500Y-140426082D01*
X66796658Y-140281087D01*
X66740084Y-140144505D01*
X66657951Y-140021584D01*
X66561070Y-139924703D01*
X84725279Y-139924703D01*
X85612103Y-140619592D01*
X85639922Y-140668926D01*
X85636793Y-140700848D01*
X85292410Y-141753593D01*
X85292411Y-141753593D01*
X85292411Y-141753594D01*
X86234109Y-141127199D01*
X86289678Y-141116266D01*
X86315946Y-141127115D01*
X86506670Y-141253415D01*
X87261984Y-141753594D01*
X87261984Y-141753593D01*
X87261985Y-141753594D01*
X86917603Y-140700847D01*
X86921934Y-140644376D01*
X86942291Y-140619593D01*
X87829117Y-139924703D01*
X86715393Y-139924703D01*
X86663067Y-139903029D01*
X86645426Y-139874800D01*
X86645342Y-139874555D01*
X86275000Y-138799232D01*
X86274999Y-138799233D01*
X85908858Y-139874555D01*
X85871474Y-139917102D01*
X85838807Y-139924703D01*
X84725279Y-139924703D01*
X66561070Y-139924703D01*
X66553416Y-139917049D01*
X66489820Y-139874555D01*
X66430494Y-139834915D01*
X66293917Y-139778343D01*
X66293907Y-139778340D01*
X66196811Y-139759026D01*
X66148918Y-139749500D01*
X66001082Y-139749500D01*
X65959977Y-139757676D01*
X65856092Y-139778340D01*
X65856082Y-139778343D01*
X65719505Y-139834915D01*
X65596584Y-139917048D01*
X65596583Y-139917050D01*
X65492050Y-140021583D01*
X65492048Y-140021584D01*
X65409915Y-140144505D01*
X65353343Y-140281082D01*
X65353340Y-140281092D01*
X65329263Y-140402135D01*
X65324500Y-140426082D01*
X64670527Y-140426082D01*
X64646658Y-140306087D01*
X64590084Y-140169505D01*
X64507951Y-140046584D01*
X64403416Y-139942049D01*
X64388614Y-139932158D01*
X64280494Y-139859915D01*
X64143917Y-139803343D01*
X64143907Y-139803340D01*
X64046811Y-139784026D01*
X63998918Y-139774500D01*
X63851082Y-139774500D01*
X63809977Y-139782676D01*
X63706092Y-139803340D01*
X63706082Y-139803343D01*
X63569505Y-139859915D01*
X63446584Y-139942048D01*
X63446583Y-139942050D01*
X63342050Y-140046583D01*
X63342048Y-140046584D01*
X63259915Y-140169505D01*
X63203343Y-140306082D01*
X63203340Y-140306092D01*
X63180781Y-140419505D01*
X63174500Y-140451082D01*
X62425500Y-140451082D01*
X62425500Y-140351082D01*
X62396658Y-140206087D01*
X62362929Y-140124659D01*
X62340084Y-140069505D01*
X62257951Y-139946584D01*
X62153415Y-139842048D01*
X62030494Y-139759915D01*
X61893917Y-139703343D01*
X61893907Y-139703340D01*
X61796811Y-139684026D01*
X61748918Y-139674500D01*
X61601082Y-139674500D01*
X61559977Y-139682676D01*
X61456092Y-139703340D01*
X61456082Y-139703343D01*
X61319505Y-139759915D01*
X61196584Y-139842048D01*
X61196583Y-139842050D01*
X61092050Y-139946583D01*
X61092048Y-139946584D01*
X61009915Y-140069505D01*
X60953343Y-140206082D01*
X60953340Y-140206092D01*
X60924500Y-140351083D01*
X60253164Y-140351083D01*
X60240084Y-140319505D01*
X60157951Y-140196584D01*
X60053416Y-140092049D01*
X60019677Y-140069505D01*
X59930494Y-140009915D01*
X59793917Y-139953343D01*
X59793907Y-139953340D01*
X59687416Y-139932158D01*
X59648918Y-139924500D01*
X59501082Y-139924500D01*
X59462584Y-139932158D01*
X59356092Y-139953340D01*
X59356082Y-139953343D01*
X59219505Y-140009915D01*
X59096584Y-140092048D01*
X59096583Y-140092050D01*
X58992050Y-140196583D01*
X58992048Y-140196584D01*
X58909915Y-140319505D01*
X58853343Y-140456082D01*
X58853340Y-140456092D01*
X58838969Y-140528342D01*
X58824500Y-140601082D01*
X58180608Y-140601082D01*
X58171658Y-140556087D01*
X58115084Y-140419505D01*
X58032951Y-140296584D01*
X57928416Y-140192049D01*
X57925359Y-140190006D01*
X57805494Y-140109915D01*
X57668917Y-140053343D01*
X57668907Y-140053340D01*
X57554835Y-140030650D01*
X57523918Y-140024500D01*
X57376082Y-140024500D01*
X57345165Y-140030650D01*
X57231092Y-140053340D01*
X57231082Y-140053343D01*
X57094505Y-140109915D01*
X56971584Y-140192048D01*
X56971583Y-140192050D01*
X56867050Y-140296583D01*
X56867048Y-140296584D01*
X56784915Y-140419505D01*
X56728343Y-140556082D01*
X56728340Y-140556092D01*
X56705896Y-140668926D01*
X56699500Y-140701082D01*
X47792072Y-140701082D01*
X47662387Y-140324529D01*
X47662386Y-140324530D01*
X47296245Y-141399852D01*
X47258861Y-141442399D01*
X47226194Y-141450000D01*
X46112666Y-141450000D01*
X44869890Y-141450000D01*
X44718810Y-141210773D01*
X44694812Y-141172774D01*
X44693385Y-141170419D01*
X44538348Y-140903417D01*
X44373653Y-140619782D01*
X44372261Y-140617272D01*
X44082653Y-140069874D01*
X44081276Y-140067134D01*
X44077437Y-140059085D01*
X43821539Y-139522495D01*
X43820214Y-139519552D01*
X43589939Y-138976874D01*
X43588693Y-138973740D01*
X43531143Y-138818836D01*
X43387575Y-138432405D01*
X43386457Y-138429162D01*
X43214139Y-137888373D01*
X43213135Y-137884936D01*
X43212969Y-137884312D01*
X43069315Y-137343968D01*
X43068462Y-137340401D01*
X43067389Y-137335370D01*
X42952836Y-136798405D01*
X42952158Y-136794787D01*
X42864455Y-136250831D01*
X42863958Y-136247160D01*
X42803969Y-135700351D01*
X42803661Y-135696702D01*
X42771228Y-135146192D01*
X42771104Y-135142519D01*
X42770946Y-135125003D01*
X42766112Y-134587409D01*
X42766168Y-134583803D01*
X42767230Y-134557197D01*
X42788551Y-134023155D01*
X42788772Y-134019696D01*
X42838505Y-133452687D01*
X42838879Y-133449321D01*
X42916954Y-132867801D01*
X42917117Y-132866668D01*
X42955948Y-132613121D01*
X42957734Y-132604744D01*
X42958745Y-132601060D01*
X42967139Y-132540105D01*
X42967300Y-132538996D01*
X42976623Y-132478131D01*
X42976622Y-132478123D01*
X42976656Y-132476538D01*
X42980015Y-132460123D01*
X42978944Y-132459854D01*
X42980127Y-132455158D01*
X42980127Y-132455157D01*
X42980128Y-132455155D01*
X42987051Y-132395638D01*
X42987223Y-132394283D01*
X42995406Y-132334881D01*
X42995405Y-132334880D01*
X42996068Y-132330074D01*
X42996287Y-132330104D01*
X42997070Y-132322999D01*
X42997814Y-132319572D01*
X42997816Y-132319567D01*
X43002489Y-132263278D01*
X43002720Y-132260956D01*
X43009246Y-132204870D01*
X43009245Y-132204869D01*
X43009807Y-132200048D01*
X43009810Y-132200048D01*
X43009944Y-132197282D01*
X43009945Y-132197280D01*
X43012203Y-132150730D01*
X43014002Y-132139944D01*
X43013901Y-132139929D01*
X43014631Y-132135132D01*
X43015063Y-132113612D01*
X43015301Y-132108985D01*
X43017463Y-132082958D01*
X43017462Y-132082955D01*
X43017634Y-132080891D01*
X43017810Y-132075887D01*
X43017424Y-132046029D01*
X43017505Y-132041484D01*
X43018674Y-132017401D01*
X43018826Y-132015045D01*
X43019109Y-132011524D01*
X43019111Y-132011515D01*
X43017814Y-131985970D01*
X43017735Y-131980775D01*
X43018192Y-131958088D01*
X43018290Y-131953236D01*
X43018321Y-131953236D01*
X43018247Y-131951207D01*
X43018309Y-131949524D01*
X43018311Y-131949517D01*
X43016110Y-131925954D01*
X43015798Y-131920069D01*
X43015523Y-131898723D01*
X43015521Y-131898717D01*
X43015492Y-131896429D01*
X43015070Y-131890901D01*
X43015037Y-131887277D01*
X43015038Y-131887272D01*
X43012003Y-131865693D01*
X43011380Y-131859171D01*
X43010371Y-131839263D01*
X43010366Y-131839248D01*
X43010327Y-131839030D01*
X43009834Y-131829744D01*
X43009256Y-131829779D01*
X43008970Y-131824943D01*
X43008971Y-131824939D01*
X43005191Y-131805267D01*
X43004182Y-131798189D01*
X43002447Y-131779592D01*
X43002446Y-131779590D01*
X43001777Y-131776654D01*
X43000855Y-131767622D01*
X43000402Y-131767673D01*
X42999861Y-131762850D01*
X42999860Y-131762849D01*
X42999861Y-131762845D01*
X42995387Y-131744753D01*
X42993950Y-131737323D01*
X42991475Y-131719717D01*
X42991473Y-131719713D01*
X42990178Y-131715042D01*
X42991284Y-131714734D01*
X42989378Y-131706167D01*
X42988396Y-131706331D01*
X42987599Y-131701553D01*
X42987599Y-131701542D01*
X42982425Y-131684570D01*
X42980538Y-131676952D01*
X42977255Y-131659865D01*
X42977254Y-131659864D01*
X42977254Y-131659860D01*
X42977251Y-131659855D01*
X42975726Y-131655262D01*
X42976663Y-131654950D01*
X42974211Y-131646065D01*
X42973275Y-131646273D01*
X42972225Y-131641536D01*
X42966227Y-131625058D01*
X42963932Y-131617524D01*
X42959693Y-131600375D01*
X42959690Y-131600371D01*
X42957925Y-131595861D01*
X42958901Y-131595478D01*
X42956340Y-131587752D01*
X42955240Y-131588056D01*
X42953951Y-131583385D01*
X42950509Y-131575249D01*
X42946951Y-131566838D01*
X42944324Y-131559595D01*
X42938900Y-131541803D01*
X42936892Y-131537387D01*
X42937344Y-131537181D01*
X42933799Y-131529601D01*
X42933099Y-131527472D01*
X42933098Y-131527465D01*
X42924860Y-131510329D01*
X42922017Y-131503578D01*
X42915113Y-131484607D01*
X42913311Y-131481145D01*
X42910421Y-131474682D01*
X42900339Y-131455858D01*
X42897418Y-131449749D01*
X42888745Y-131429245D01*
X42888741Y-131429240D01*
X42887983Y-131427948D01*
X42887254Y-131426497D01*
X42885185Y-131422969D01*
X42885185Y-131422967D01*
X42873827Y-131403597D01*
X42870977Y-131398243D01*
X42860276Y-131375982D01*
X42860269Y-131375974D01*
X42857861Y-131372290D01*
X42856114Y-131369930D01*
X42845742Y-131353522D01*
X42843069Y-131348934D01*
X42830197Y-131324900D01*
X42827909Y-131321712D01*
X42824411Y-131317320D01*
X42816442Y-131305461D01*
X42814039Y-131301636D01*
X42801081Y-131279539D01*
X42799666Y-131277014D01*
X42799334Y-131276394D01*
X42798942Y-131275890D01*
X42798941Y-131275888D01*
X42798938Y-131275885D01*
X42796805Y-131273142D01*
X42795170Y-131270957D01*
X42783177Y-131254290D01*
X42780708Y-131250632D01*
X42766809Y-131228642D01*
X42766806Y-131228637D01*
X42763706Y-131224916D01*
X42763794Y-131224841D01*
X42756735Y-131216604D01*
X42741914Y-131194547D01*
X42740056Y-131191558D01*
X42737598Y-131188124D01*
X42733999Y-131182768D01*
X42730968Y-131179331D01*
X42727619Y-131175247D01*
X42704637Y-131145094D01*
X42703425Y-131143458D01*
X42669552Y-131096383D01*
X42666232Y-131092852D01*
X42666482Y-131092616D01*
X42661239Y-131087260D01*
X42635874Y-131054866D01*
X42635349Y-131054186D01*
X42597666Y-131004745D01*
X42595836Y-131002903D01*
X42590073Y-130996373D01*
X42564867Y-130964183D01*
X42564226Y-130963353D01*
X42506128Y-130886950D01*
X42463526Y-130830925D01*
X42462122Y-130829015D01*
X42432132Y-130786822D01*
X42365582Y-130693192D01*
X42364317Y-130691353D01*
X42351807Y-130672572D01*
X42268618Y-130547677D01*
X42267474Y-130545905D01*
X42231584Y-130488528D01*
X42172902Y-130394714D01*
X42171868Y-130393009D01*
X42078539Y-130234395D01*
X42077618Y-130232784D01*
X41985768Y-130067060D01*
X41984924Y-130065491D01*
X41894756Y-129892942D01*
X41893970Y-129891394D01*
X41814347Y-129729903D01*
X41805623Y-129712210D01*
X41804917Y-129710735D01*
X41781789Y-129661040D01*
X41718572Y-129525203D01*
X41717919Y-129523760D01*
X41634839Y-129334655D01*
X41633975Y-129332602D01*
X41471349Y-128928844D01*
X41470345Y-128926202D01*
X41319054Y-128503533D01*
X41318183Y-128500950D01*
X41317103Y-128497539D01*
X41175315Y-128049611D01*
X41122052Y-127881036D01*
X41119924Y-127869971D01*
X41119881Y-127869981D01*
X41118894Y-127865237D01*
X41114809Y-127853539D01*
X41099992Y-127811113D01*
X41099313Y-127809067D01*
X41089571Y-127778235D01*
X41082048Y-127754426D01*
X41082046Y-127754422D01*
X41079994Y-127750027D01*
X41080032Y-127750008D01*
X41075114Y-127739876D01*
X41035111Y-127625334D01*
X41032864Y-127615184D01*
X41032674Y-127615229D01*
X41031564Y-127610508D01*
X41010864Y-127555829D01*
X41010209Y-127554027D01*
X40990942Y-127498856D01*
X40988760Y-127494527D01*
X40988932Y-127494440D01*
X40984132Y-127485214D01*
X40939688Y-127367813D01*
X40937264Y-127358040D01*
X40937020Y-127358104D01*
X40935795Y-127353417D01*
X40935794Y-127353407D01*
X40913607Y-127298857D01*
X40912954Y-127297194D01*
X40892104Y-127242117D01*
X40892103Y-127242114D01*
X40892100Y-127242110D01*
X40889808Y-127237841D01*
X40890029Y-127237721D01*
X40885155Y-127228904D01*
X40838608Y-127114464D01*
X40835904Y-127104606D01*
X40835687Y-127104669D01*
X40834344Y-127100009D01*
X40834344Y-127100007D01*
X40810858Y-127046176D01*
X40810176Y-127044558D01*
X40788047Y-126990149D01*
X40788044Y-126990146D01*
X40788044Y-126990144D01*
X40785648Y-126985931D01*
X40785842Y-126985820D01*
X40780677Y-126976998D01*
X40734553Y-126871278D01*
X40731386Y-126860836D01*
X40731287Y-126860868D01*
X40729812Y-126856245D01*
X40705229Y-126803989D01*
X40704381Y-126802118D01*
X40681267Y-126749139D01*
X40681265Y-126749136D01*
X40678762Y-126744982D01*
X40678850Y-126744928D01*
X40673082Y-126735655D01*
X40654559Y-126696281D01*
X40629912Y-126643887D01*
X40624550Y-126628054D01*
X40624424Y-126627473D01*
X40598941Y-126577942D01*
X40597783Y-126575589D01*
X40586438Y-126551474D01*
X40574064Y-126525170D01*
X40573678Y-126524713D01*
X40564409Y-126510819D01*
X40528259Y-126440552D01*
X40522339Y-126424911D01*
X40522205Y-126424382D01*
X40494947Y-126375702D01*
X40493746Y-126373465D01*
X40468226Y-126323860D01*
X40468221Y-126323855D01*
X40466257Y-126321019D01*
X40463661Y-126317001D01*
X40441210Y-126279662D01*
X40440062Y-126277684D01*
X40412206Y-126227936D01*
X40409304Y-126224049D01*
X40409311Y-126224043D01*
X40402305Y-126214957D01*
X40393365Y-126200087D01*
X40206855Y-125888463D01*
X40205292Y-125885718D01*
X40044301Y-125588237D01*
X40042763Y-125585233D01*
X39901227Y-125292529D01*
X39899756Y-125289290D01*
X39817286Y-125095450D01*
X39777392Y-125001681D01*
X39776034Y-124998250D01*
X39672531Y-124716033D01*
X39671275Y-124712303D01*
X39667799Y-124700991D01*
X39586307Y-124435787D01*
X39585201Y-124431790D01*
X39518390Y-124161175D01*
X39517473Y-124156926D01*
X39496248Y-124042431D01*
X39468436Y-123892401D01*
X39467752Y-123887953D01*
X39436083Y-123629569D01*
X39435659Y-123624873D01*
X39423000Y-123407450D01*
X39422876Y-123403169D01*
X39422957Y-123120191D01*
X39423170Y-123114610D01*
X39425855Y-123079282D01*
X39441244Y-122876794D01*
X39441807Y-122871727D01*
X39476105Y-122637516D01*
X39477034Y-122632428D01*
X39527213Y-122403829D01*
X39528526Y-122398726D01*
X39558260Y-122298133D01*
X40148796Y-122298133D01*
X41035620Y-122993022D01*
X41063439Y-123042356D01*
X41060310Y-123074278D01*
X40715927Y-124127023D01*
X40715928Y-124127023D01*
X40715928Y-124127024D01*
X41657626Y-123500629D01*
X41713195Y-123489696D01*
X41739463Y-123500545D01*
X41930758Y-123627223D01*
X42685501Y-124127024D01*
X42685501Y-124127023D01*
X42685502Y-124127024D01*
X42341120Y-123074277D01*
X42345451Y-123017806D01*
X42365808Y-122993023D01*
X43252634Y-122298133D01*
X42138910Y-122298133D01*
X42086584Y-122276459D01*
X42068943Y-122248230D01*
X42068859Y-122247985D01*
X41768100Y-121374703D01*
X87300279Y-121374703D01*
X88187103Y-122069592D01*
X88214922Y-122118926D01*
X88211793Y-122150848D01*
X87867410Y-123203593D01*
X87867411Y-123203593D01*
X87867411Y-123203594D01*
X88809109Y-122577199D01*
X88864678Y-122566266D01*
X88890946Y-122577115D01*
X89172649Y-122763662D01*
X89836984Y-123203594D01*
X89836984Y-123203593D01*
X89836985Y-123203594D01*
X89492603Y-122150847D01*
X89496934Y-122094376D01*
X89517291Y-122069593D01*
X90404117Y-121374703D01*
X89290393Y-121374703D01*
X89238067Y-121353029D01*
X89220426Y-121324800D01*
X89216202Y-121312534D01*
X88850000Y-120249232D01*
X88849999Y-120249233D01*
X88483858Y-121324555D01*
X88446474Y-121367102D01*
X88413807Y-121374703D01*
X87300279Y-121374703D01*
X41768100Y-121374703D01*
X41698517Y-121172662D01*
X41698516Y-121172663D01*
X41332375Y-122247985D01*
X41294991Y-122290532D01*
X41262324Y-122298133D01*
X40148796Y-122298133D01*
X39558260Y-122298133D01*
X39594513Y-122175486D01*
X39596182Y-122170501D01*
X39678031Y-121952283D01*
X39680048Y-121947439D01*
X39701865Y-121899853D01*
X39777848Y-121734124D01*
X39780157Y-121729520D01*
X39894148Y-121520867D01*
X39896716Y-121516528D01*
X40027134Y-121312507D01*
X40029911Y-121308469D01*
X40177038Y-121109102D01*
X40179998Y-121105352D01*
X40344128Y-120910750D01*
X40347177Y-120907355D01*
X40528584Y-120717708D01*
X40531690Y-120714650D01*
X40730623Y-120530216D01*
X40733761Y-120527471D01*
X40950375Y-120348615D01*
X40953538Y-120346146D01*
X41188004Y-120173216D01*
X41191112Y-120171046D01*
X41443521Y-120004438D01*
X41446591Y-120002519D01*
X41716992Y-119842643D01*
X41719977Y-119840971D01*
X42008448Y-119688206D01*
X42011320Y-119686766D01*
X42317802Y-119541548D01*
X42320602Y-119540293D01*
X42645039Y-119403027D01*
X42647758Y-119401940D01*
X42990025Y-119273037D01*
X42992607Y-119272120D01*
X43355297Y-119151062D01*
X43357088Y-119150491D01*
X43605787Y-119074838D01*
X43621682Y-119071852D01*
X43624376Y-119071647D01*
X43675001Y-119053853D01*
X43677960Y-119052883D01*
X43729280Y-119037273D01*
X43731565Y-119035848D01*
X43746151Y-119028845D01*
X43768715Y-119020914D01*
X43780351Y-119017863D01*
X43799027Y-119014563D01*
X43833005Y-118998700D01*
X43839754Y-118995946D01*
X43875149Y-118983507D01*
X43890805Y-118972799D01*
X43901258Y-118966838D01*
X43941149Y-118948217D01*
X43947848Y-118945481D01*
X43983427Y-118932947D01*
X43998885Y-118922357D01*
X44009398Y-118916357D01*
X44026379Y-118908432D01*
X44055278Y-118884161D01*
X44061029Y-118879793D01*
X44117337Y-118841226D01*
X44120413Y-118839231D01*
X44164290Y-118812316D01*
X44167667Y-118808753D01*
X44179555Y-118798611D01*
X44183600Y-118795842D01*
X44217084Y-118756762D01*
X44219536Y-118754042D01*
X44276813Y-118693625D01*
X44279370Y-118691060D01*
X44316734Y-118655373D01*
X44319174Y-118651360D01*
X44328698Y-118638899D01*
X44331930Y-118635492D01*
X44356553Y-118590089D01*
X44358373Y-118586922D01*
X44401954Y-118515280D01*
X44405682Y-118509735D01*
X44429389Y-118477707D01*
X44435481Y-118462244D01*
X44441099Y-118450932D01*
X44449735Y-118436738D01*
X44460929Y-118398488D01*
X44463088Y-118392182D01*
X44492639Y-118317186D01*
X44497160Y-118307742D01*
X44509548Y-118285975D01*
X44517494Y-118255557D01*
X44520245Y-118247131D01*
X44527036Y-118229900D01*
X44531769Y-118217888D01*
X44534606Y-118193006D01*
X44536531Y-118182697D01*
X44537796Y-118177857D01*
X44558451Y-118098797D01*
X44563081Y-118086021D01*
X44568572Y-118074342D01*
X44568572Y-118074340D01*
X44568575Y-118074335D01*
X44576266Y-118031492D01*
X44577500Y-118025890D01*
X44581899Y-118009058D01*
X44588500Y-117983794D01*
X44588418Y-117970866D01*
X44589581Y-117957340D01*
X44608583Y-117851508D01*
X44612998Y-117836400D01*
X44614690Y-117832296D01*
X44621375Y-117780749D01*
X44621906Y-117777314D01*
X44631089Y-117726175D01*
X44630715Y-117721744D01*
X44631067Y-117706012D01*
X44649368Y-117564912D01*
X44652077Y-117554088D01*
X44652016Y-117554074D01*
X44653125Y-117549346D01*
X44658835Y-117492153D01*
X44659072Y-117490090D01*
X44666467Y-117433081D01*
X44666465Y-117433073D01*
X44666457Y-117428229D01*
X44666519Y-117428228D01*
X44666333Y-117417068D01*
X44685229Y-117227824D01*
X44687301Y-117218558D01*
X44686951Y-117218484D01*
X44687955Y-117213737D01*
X44687958Y-117213732D01*
X44692593Y-117154260D01*
X44692732Y-117152693D01*
X44698663Y-117093303D01*
X44698511Y-117088462D01*
X44698866Y-117088450D01*
X44698463Y-117078961D01*
X44753398Y-116374221D01*
X44754514Y-116366285D01*
X44755521Y-116351938D01*
X44759034Y-116301929D01*
X44764005Y-116238169D01*
X44764004Y-116238165D01*
X44764045Y-116237645D01*
X44764113Y-116229632D01*
X44767056Y-116187737D01*
X44839383Y-115158170D01*
X44839441Y-115157414D01*
X44921459Y-114166793D01*
X44921618Y-114165122D01*
X44937884Y-114011956D01*
X45025376Y-113188061D01*
X45025572Y-113186398D01*
X45150146Y-112223996D01*
X45150377Y-112222364D01*
X45294499Y-111279503D01*
X45294756Y-111277945D01*
X45457183Y-110359169D01*
X45457492Y-110357537D01*
X45636936Y-109467590D01*
X45637312Y-109465843D01*
X45832427Y-108609590D01*
X45832879Y-108607715D01*
X46042346Y-107789768D01*
X46042902Y-107787723D01*
X46097347Y-107598050D01*
X46256878Y-107042274D01*
X46260349Y-107032716D01*
X46271013Y-107008647D01*
X46275674Y-106978861D01*
X46277656Y-106969890D01*
X46279538Y-106963333D01*
X46285974Y-106940913D01*
X46286440Y-106914582D01*
X46287316Y-106904471D01*
X46291390Y-106878447D01*
X46288182Y-106848461D01*
X46287775Y-106839301D01*
X46288311Y-106809150D01*
X46281946Y-106783597D01*
X46280174Y-106773590D01*
X46277375Y-106747410D01*
X46266519Y-106719286D01*
X46263749Y-106710524D01*
X46256465Y-106681273D01*
X46256465Y-106681272D01*
X46243704Y-106658236D01*
X46239403Y-106649032D01*
X46229921Y-106624466D01*
X46229920Y-106624464D01*
X46212157Y-106600110D01*
X46207218Y-106592372D01*
X46192606Y-106565993D01*
X46174316Y-106547042D01*
X46167777Y-106539261D01*
X43382775Y-102720795D01*
X48945882Y-102720795D01*
X49832706Y-103415684D01*
X49860525Y-103465018D01*
X49857396Y-103496940D01*
X49513013Y-104549685D01*
X49513014Y-104549685D01*
X49513014Y-104549686D01*
X50454712Y-103923291D01*
X50510281Y-103912358D01*
X50536549Y-103923207D01*
X50614761Y-103975000D01*
X51482587Y-104549686D01*
X51482587Y-104549685D01*
X51482588Y-104549686D01*
X51138206Y-103496939D01*
X51142537Y-103440468D01*
X51162894Y-103415685D01*
X51949017Y-102799703D01*
X79900279Y-102799703D01*
X80787103Y-103494592D01*
X80814922Y-103543926D01*
X80811793Y-103575848D01*
X80467410Y-104628593D01*
X80467411Y-104628593D01*
X80467411Y-104628594D01*
X81409109Y-104002199D01*
X81464678Y-103991266D01*
X81490946Y-104002115D01*
X81775990Y-104190875D01*
X82436984Y-104628594D01*
X82436984Y-104628593D01*
X82436985Y-104628594D01*
X82092603Y-103575847D01*
X82096934Y-103519376D01*
X82117291Y-103494593D01*
X83004117Y-102799703D01*
X81890393Y-102799703D01*
X81838067Y-102778029D01*
X81820426Y-102749800D01*
X81793166Y-102670647D01*
X81450000Y-101674232D01*
X81449999Y-101674233D01*
X81083858Y-102749555D01*
X81046474Y-102792102D01*
X81013807Y-102799703D01*
X79900279Y-102799703D01*
X51949017Y-102799703D01*
X52049720Y-102720795D01*
X50935996Y-102720795D01*
X50883670Y-102699121D01*
X50866029Y-102670892D01*
X50865945Y-102670647D01*
X50495603Y-101595324D01*
X50495602Y-101595325D01*
X50129461Y-102670647D01*
X50092077Y-102713194D01*
X50059410Y-102720795D01*
X48945882Y-102720795D01*
X43382775Y-102720795D01*
X40430337Y-98672760D01*
X34791053Y-90940839D01*
X34786353Y-90933529D01*
X34784996Y-90931117D01*
X34784312Y-90930205D01*
X34784170Y-90929650D01*
X34782616Y-90926888D01*
X34783355Y-90926471D01*
X34770255Y-90875342D01*
X34776184Y-90864688D01*
X39277807Y-90864688D01*
X39277807Y-90864691D01*
X39465944Y-91595014D01*
X39518163Y-91664705D01*
X40141072Y-92024876D01*
X40166228Y-92039421D01*
X40474289Y-92024876D01*
X41086097Y-91735797D01*
X41142666Y-91733040D01*
X41178327Y-91760260D01*
X45540324Y-97989837D01*
X45552583Y-98045132D01*
X45525211Y-98090638D01*
X45365419Y-98215237D01*
X45365417Y-98215239D01*
X44941460Y-98852773D01*
X44926314Y-98931591D01*
X44926314Y-98931595D01*
X45114451Y-99661918D01*
X45114452Y-99661919D01*
X45114453Y-99661920D01*
X45166696Y-99731590D01*
X45817736Y-100104224D01*
X46201176Y-100064501D01*
X46875066Y-99717200D01*
X50353318Y-97281701D01*
X50636167Y-97073934D01*
X50753888Y-96987462D01*
X50753900Y-96987453D01*
X50932803Y-96837022D01*
X51317356Y-96513670D01*
X51325487Y-96505266D01*
X51650277Y-96169546D01*
X51837243Y-95976289D01*
X52273331Y-95373761D01*
X52361746Y-95214995D01*
X52619396Y-94625021D01*
X81126393Y-94625021D01*
X81136273Y-95396756D01*
X81255920Y-96169546D01*
X81255921Y-96169548D01*
X81334265Y-96474997D01*
X81342031Y-96505272D01*
X81605409Y-97196893D01*
X81605413Y-97196900D01*
X81605414Y-97196902D01*
X81938000Y-97776968D01*
X81973920Y-97839617D01*
X82178209Y-98117936D01*
X82689102Y-98672746D01*
X82689117Y-98672760D01*
X83293431Y-99161597D01*
X83293436Y-99161600D01*
X83293437Y-99161601D01*
X83702858Y-99423612D01*
X84020518Y-99576269D01*
X84439919Y-99777821D01*
X85203162Y-99999270D01*
X85203166Y-99999270D01*
X85203168Y-99999271D01*
X85992602Y-100087962D01*
X85992605Y-100087961D01*
X85992607Y-100087962D01*
X86332443Y-100069600D01*
X86808222Y-100043894D01*
X87268724Y-99961092D01*
X88011806Y-99721435D01*
X88019597Y-99717203D01*
X88121365Y-99661919D01*
X88674966Y-99361184D01*
X89258204Y-98880338D01*
X89761519Y-98278897D01*
X92961474Y-93708886D01*
X93009240Y-93678456D01*
X93061447Y-93688666D01*
X93236277Y-93798475D01*
X93607211Y-93889996D01*
X93978144Y-93981518D01*
X93978145Y-93981517D01*
X93978146Y-93981518D01*
X94057232Y-93967882D01*
X94678428Y-93537113D01*
X94725984Y-93464199D01*
X94848419Y-92725865D01*
X94683251Y-92378553D01*
X94496049Y-92204929D01*
X94128209Y-91863770D01*
X91856388Y-90273024D01*
X91520217Y-90065937D01*
X91520213Y-90065935D01*
X90796963Y-89889003D01*
X90796958Y-89889003D01*
X90717713Y-89901728D01*
X90717711Y-89901729D01*
X90095778Y-90328307D01*
X90095777Y-90328308D01*
X90048178Y-90401226D01*
X90048176Y-90401230D01*
X89920684Y-91140452D01*
X89920684Y-91140454D01*
X90089155Y-91487182D01*
X90420613Y-91793417D01*
X90645997Y-92001649D01*
X91209605Y-92396291D01*
X91240036Y-92444058D01*
X91227777Y-92499353D01*
X87978449Y-97139874D01*
X87976189Y-97142931D01*
X87836787Y-97321715D01*
X87822143Y-97335922D01*
X87230157Y-97769317D01*
X87205242Y-97781181D01*
X86570659Y-97947845D01*
X86551388Y-97950270D01*
X85813472Y-97945552D01*
X85795339Y-97943177D01*
X85164037Y-97779175D01*
X85147788Y-97772829D01*
X84486333Y-97419644D01*
X84474128Y-97411475D01*
X84070723Y-97079047D01*
X84059555Y-97067606D01*
X83601173Y-96483144D01*
X83590875Y-96465406D01*
X83311564Y-95779853D01*
X83307538Y-95766471D01*
X83248916Y-95473540D01*
X83247491Y-95457637D01*
X83254834Y-95065792D01*
X83260830Y-94745769D01*
X83266874Y-94717834D01*
X83306927Y-94625024D01*
X83553779Y-94053026D01*
X83561100Y-94039912D01*
X86807188Y-89404018D01*
X86854953Y-89373589D01*
X86910246Y-89385847D01*
X87202895Y-89590763D01*
X87473840Y-89780481D01*
X87473871Y-89780501D01*
X87702686Y-89921673D01*
X87809626Y-89987652D01*
X88528184Y-90165414D01*
X88634421Y-90146928D01*
X89234468Y-89725211D01*
X89255804Y-89692499D01*
X89282025Y-89652298D01*
X89326209Y-89385848D01*
X89404459Y-88913963D01*
X89239291Y-88566651D01*
X88776446Y-88137378D01*
X88684249Y-88051868D01*
X86595496Y-86589308D01*
X86412432Y-86461125D01*
X86412423Y-86461119D01*
X86412415Y-86461114D01*
X86072380Y-86251320D01*
X86072381Y-86251320D01*
X85831586Y-86192546D01*
X85350000Y-86075000D01*
X85349998Y-86075000D01*
X85271288Y-86088101D01*
X85271287Y-86088101D01*
X84651821Y-86516403D01*
X84651818Y-86516405D01*
X84604190Y-86589308D01*
X84604190Y-86589309D01*
X84473723Y-87326448D01*
X84473723Y-87326449D01*
X84592754Y-87610957D01*
X85073650Y-88086999D01*
X85095589Y-88139215D01*
X85082207Y-88182035D01*
X81877682Y-92758571D01*
X81651312Y-93105214D01*
X81320262Y-93764835D01*
X81320261Y-93764839D01*
X81139103Y-94477654D01*
X81126393Y-94625021D01*
X52619396Y-94625021D01*
X52660713Y-94530412D01*
X52660716Y-94530399D01*
X52660720Y-94530391D01*
X52878189Y-93823178D01*
X52878189Y-93823177D01*
X52878192Y-93823168D01*
X52973813Y-93346142D01*
X53012919Y-92599878D01*
X52926835Y-91816743D01*
X52727575Y-91081237D01*
X52437933Y-90433564D01*
X52401138Y-90351285D01*
X52401132Y-90351275D01*
X52386938Y-90328308D01*
X52132107Y-89915957D01*
X51994011Y-89692499D01*
X51475804Y-88952422D01*
X51441350Y-88903217D01*
X51289784Y-88693545D01*
X50793516Y-88100596D01*
X50782857Y-88091107D01*
X50435707Y-87782048D01*
X50213905Y-87584584D01*
X50146883Y-87536607D01*
X50095975Y-87500165D01*
X49451637Y-87112808D01*
X48768036Y-86803528D01*
X48768033Y-86803527D01*
X48087125Y-86563416D01*
X48087111Y-86563412D01*
X47328520Y-86389239D01*
X47239603Y-86380607D01*
X47017316Y-86359027D01*
X47017312Y-86359027D01*
X47017311Y-86359027D01*
X46235231Y-86393752D01*
X46235218Y-86393753D01*
X45502515Y-86540760D01*
X45502507Y-86540762D01*
X45502504Y-86540763D01*
X45343923Y-86589308D01*
X45005983Y-86692758D01*
X44301318Y-86997489D01*
X43991347Y-87184838D01*
X43644773Y-87394312D01*
X43052348Y-87806942D01*
X40016159Y-89921676D01*
X39706584Y-90166745D01*
X39706582Y-90166748D01*
X39513139Y-90456295D01*
X39484782Y-90498740D01*
X39422286Y-90592285D01*
X39292953Y-90785869D01*
X39277807Y-90864688D01*
X34776184Y-90864688D01*
X34794144Y-90832416D01*
X34793596Y-90831913D01*
X34795700Y-90829620D01*
X34796008Y-90829066D01*
X34796873Y-90828343D01*
X34803314Y-90819162D01*
X34810586Y-90810334D01*
X34818598Y-90802012D01*
X35681628Y-89905620D01*
X35683129Y-89904107D01*
X36599308Y-89007574D01*
X36600813Y-89006146D01*
X37543258Y-88137342D01*
X37544823Y-88135940D01*
X38512799Y-87295545D01*
X38514400Y-87294198D01*
X39506918Y-86483069D01*
X39508563Y-86481764D01*
X40524830Y-85700548D01*
X40526511Y-85699295D01*
X41565617Y-84948693D01*
X41567328Y-84947495D01*
X42628292Y-84228215D01*
X42630102Y-84227026D01*
X43712073Y-83539644D01*
X43713817Y-83538573D01*
X44813662Y-82884994D01*
X54988936Y-82884994D01*
X55006840Y-82970216D01*
X55275534Y-83350907D01*
X55413760Y-83546750D01*
X55439401Y-83583078D01*
X55804299Y-83709021D01*
X56564839Y-83678526D01*
X56816681Y-83634119D01*
X56871976Y-83646378D01*
X56902407Y-83694145D01*
X58162627Y-90841208D01*
X58220330Y-91168455D01*
X58208071Y-91223750D01*
X58160303Y-91254181D01*
X57908461Y-91298588D01*
X57908459Y-91298588D01*
X57908456Y-91298589D01*
X57908437Y-91298593D01*
X57527519Y-91389299D01*
X56891394Y-91775535D01*
X56891392Y-91775537D01*
X56843066Y-91840796D01*
X56843063Y-91840801D01*
X56699000Y-92583253D01*
X56699001Y-92583254D01*
X56716905Y-92668477D01*
X57149466Y-93281339D01*
X57514364Y-93407281D01*
X58274904Y-93376786D01*
X62810139Y-92577102D01*
X63194050Y-92486161D01*
X63827844Y-92103761D01*
X63889893Y-92015568D01*
X63983179Y-91481080D01*
X68843628Y-91481080D01*
X68843629Y-91481085D01*
X68947708Y-91863771D01*
X69040492Y-92204930D01*
X69339713Y-92447975D01*
X70061804Y-92678907D01*
X76343304Y-93786505D01*
X76735166Y-93832354D01*
X77461526Y-93689785D01*
X77549997Y-93628134D01*
X77602337Y-93537113D01*
X77915598Y-92992340D01*
X77915598Y-92992339D01*
X77915598Y-92992338D01*
X77915599Y-92992337D01*
X77927885Y-92906157D01*
X77726815Y-92185256D01*
X77430342Y-91940287D01*
X76709747Y-91708307D01*
X76709745Y-91708306D01*
X76709744Y-91708306D01*
X74682776Y-91350897D01*
X74635009Y-91320466D01*
X74622750Y-91265171D01*
X74757892Y-90498741D01*
X75940673Y-83790858D01*
X75971103Y-83743094D01*
X76026398Y-83730835D01*
X76142444Y-83751297D01*
X78053369Y-84088245D01*
X78445231Y-84134093D01*
X79171591Y-83991525D01*
X79171594Y-83991524D01*
X79225570Y-83953908D01*
X79260062Y-83929873D01*
X79480052Y-83547302D01*
X79625663Y-83294080D01*
X79625663Y-83294079D01*
X79625663Y-83294078D01*
X79625664Y-83294077D01*
X79637950Y-83207897D01*
X79436880Y-82486996D01*
X79140407Y-82242027D01*
X78419812Y-82010046D01*
X78419810Y-82010045D01*
X78419809Y-82010045D01*
X72138323Y-80902449D01*
X71991181Y-80885336D01*
X71746114Y-80856835D01*
X71746112Y-80856835D01*
X71746110Y-80856835D01*
X71015845Y-81002140D01*
X70949404Y-81047161D01*
X70949402Y-81047163D01*
X70566016Y-81696617D01*
X70553693Y-81782820D01*
X70553694Y-81782825D01*
X70615491Y-82010045D01*
X70750557Y-82506669D01*
X71049778Y-82749714D01*
X71771869Y-82980647D01*
X73798840Y-83338057D01*
X73846606Y-83368487D01*
X73858865Y-83423782D01*
X72540943Y-90898092D01*
X72510512Y-90945859D01*
X72455217Y-90958118D01*
X70428260Y-90600711D01*
X70428261Y-90600711D01*
X70428253Y-90600710D01*
X70428247Y-90600709D01*
X70036049Y-90555095D01*
X70036047Y-90555095D01*
X70036045Y-90555095D01*
X69305782Y-90700400D01*
X69239336Y-90745425D01*
X68855951Y-91394877D01*
X68843628Y-91481080D01*
X63983179Y-91481080D01*
X64015992Y-91293072D01*
X64015992Y-91293070D01*
X64015992Y-91293069D01*
X64001400Y-91223750D01*
X63998061Y-91207887D01*
X63949811Y-91140454D01*
X63866882Y-91024553D01*
X63562555Y-90599231D01*
X63438374Y-90555095D01*
X63200179Y-90470436D01*
X63200177Y-90470436D01*
X62984039Y-90478569D01*
X62443692Y-90498903D01*
X60384253Y-90862038D01*
X60328958Y-90849779D01*
X60298528Y-90802013D01*
X59835638Y-88176832D01*
X59847897Y-88121538D01*
X59895664Y-88091107D01*
X59918962Y-88086999D01*
X61576768Y-87794683D01*
X61632061Y-87806942D01*
X61662266Y-87853486D01*
X61690952Y-88001577D01*
X61690954Y-88001585D01*
X61967915Y-88707834D01*
X61967915Y-88707835D01*
X61967916Y-88707836D01*
X62175627Y-88866519D01*
X62928215Y-88984928D01*
X63014082Y-88966910D01*
X63402795Y-88693545D01*
X63629906Y-88533828D01*
X63629906Y-88533827D01*
X63629907Y-88533827D01*
X63758396Y-88169708D01*
X63730235Y-87414969D01*
X63363792Y-85336770D01*
X63276822Y-84971249D01*
X63272874Y-84954657D01*
X63272873Y-84954655D01*
X63272873Y-84954654D01*
X62887479Y-84323310D01*
X62821750Y-84275729D01*
X62821749Y-84275728D01*
X62821748Y-84275728D01*
X62084007Y-84133890D01*
X62084006Y-84133890D01*
X61950190Y-84171435D01*
X61816374Y-84208981D01*
X61265569Y-84724620D01*
X61265567Y-84724622D01*
X61213843Y-84971248D01*
X61213842Y-84971249D01*
X61275671Y-85635958D01*
X61258936Y-85690067D01*
X61214839Y-85715688D01*
X59529221Y-86012908D01*
X59473926Y-86000649D01*
X59443496Y-85952884D01*
X59006326Y-83473567D01*
X58980606Y-83327702D01*
X58992865Y-83272407D01*
X59040629Y-83241977D01*
X64202224Y-82331849D01*
X64257519Y-82344108D01*
X64287950Y-82391875D01*
X64478681Y-83473567D01*
X64569648Y-83855953D01*
X64569648Y-83855954D01*
X64569648Y-83855955D01*
X64569649Y-83855956D01*
X64955629Y-84490622D01*
X65021244Y-84537558D01*
X65758466Y-84676435D01*
X65843688Y-84658530D01*
X66456550Y-84225969D01*
X66587375Y-83861439D01*
X66560486Y-83106475D01*
X65992373Y-79884546D01*
X65992372Y-79884546D01*
X56198400Y-81600325D01*
X56198388Y-81600328D01*
X55900626Y-81670998D01*
X55812506Y-81691912D01*
X55812504Y-81691913D01*
X55812502Y-81691914D01*
X55174114Y-82078546D01*
X55174112Y-82078548D01*
X55127076Y-82143579D01*
X55127074Y-82143581D01*
X55127074Y-82143583D01*
X54988936Y-82884994D01*
X44813662Y-82884994D01*
X44815774Y-82883739D01*
X44817592Y-82882695D01*
X45938548Y-82260994D01*
X45940415Y-82259995D01*
X47079417Y-81671956D01*
X47081297Y-81671021D01*
X48237307Y-81117182D01*
X48239193Y-81116312D01*
X49411191Y-80597160D01*
X49413150Y-80596326D01*
X50600109Y-80112316D01*
X50602024Y-80111568D01*
X51802876Y-79663137D01*
X51804837Y-79662437D01*
X53018547Y-79249972D01*
X53020516Y-79249335D01*
X54245928Y-78873227D01*
X54248004Y-78872625D01*
X55484009Y-78533212D01*
X55486022Y-78532691D01*
X56731707Y-78230225D01*
X56733775Y-78229756D01*
X57987809Y-77964563D01*
X57989943Y-77964144D01*
X59251339Y-77736426D01*
X59253470Y-77736074D01*
X60521068Y-77546041D01*
X60523160Y-77545759D01*
X61795925Y-77393568D01*
X61798059Y-77393345D01*
X63074750Y-77279147D01*
X63076929Y-77278985D01*
X64356368Y-77202879D01*
X64358543Y-77202781D01*
X65639782Y-77164825D01*
X65641957Y-77164794D01*
X66923730Y-77165026D01*
G37*
%TD.AperFunction*%
%TD*%
%TA.AperFunction,NonConductor*%
G36*
X46967809Y-88486600D02*
G01*
X47684799Y-88642704D01*
X47697449Y-88646675D01*
X48425610Y-88949399D01*
X48431999Y-88952422D01*
X48556470Y-89018755D01*
X48566035Y-89024835D01*
X49171061Y-89478076D01*
X49183073Y-89489369D01*
X49383578Y-89725208D01*
X49673258Y-90065937D01*
X49680163Y-90074058D01*
X49684398Y-90079542D01*
X49909645Y-90401226D01*
X50217601Y-90841033D01*
X50218900Y-90842952D01*
X50231392Y-90862038D01*
X50385532Y-91097535D01*
X50397142Y-91115272D01*
X50401832Y-91123556D01*
X50574863Y-91481083D01*
X50734826Y-91811609D01*
X50740657Y-91828734D01*
X50887985Y-92534940D01*
X50889508Y-92547701D01*
X50893906Y-92686066D01*
X50893302Y-92698134D01*
X50794048Y-93447470D01*
X50789670Y-93464542D01*
X50512843Y-94177348D01*
X50506154Y-94190506D01*
X50304479Y-94504993D01*
X50295713Y-94516144D01*
X49777970Y-95058483D01*
X49769882Y-95065792D01*
X49150395Y-95547732D01*
X49147402Y-95549942D01*
X47369881Y-96794577D01*
X47314586Y-96806836D01*
X47266819Y-96776405D01*
X42913594Y-90559355D01*
X42901336Y-90504062D01*
X42931765Y-90456297D01*
X44691756Y-89223938D01*
X44693910Y-89222487D01*
X45031992Y-89003120D01*
X45039688Y-88998758D01*
X45698859Y-88675756D01*
X45713655Y-88670373D01*
X46453020Y-88487667D01*
X46470666Y-88485507D01*
X46951991Y-88484907D01*
X46967809Y-88486600D01*
G37*
%TD.AperFunction*%
M02*
