M48
; DRILL file {KiCad 8.0.5} date 2024-11-20T10:14:58-0800
; FORMAT={-:-/ absolute / metric / decimal}
; #@! TF.CreationDate,2024-11-20T10:14:58-08:00
; #@! TF.GenerationSoftware,Kicad,Pcbnew,8.0.5
; #@! TF.FileFunction,NonPlated,1,2,NPTH
FMAT,2
METRIC
; #@! TA.AperFunction,NonPlated,NPTH,ComponentDrill
T1C0.500
%
G90
G05
T1
X54.325Y-138.675
X54.775Y-140.325
X54.825Y-141.325
X55.4Y-142.15
X55.75Y-138.6
X55.775Y-140.425
X55.875Y-143.075
X56.3Y-142.175
X56.35Y-137.925
X56.35Y-141.125
X56.4Y-143.9
X56.775Y-140.175
X56.775Y-143.1
X56.85Y-144.9
X57.15Y-137.4
X57.25Y-141.325
X57.275Y-142.35
X57.275Y-144.025
X57.35Y-145.725
X57.75Y-140.45
X57.85Y-132.425
X57.85Y-143.25
X57.875Y-133.875
X58.05Y-145.1
X58.25Y-141.25
X58.25Y-142.225
X58.275Y-144.1
X58.325Y-146.1
X58.5Y-131.775
X58.525Y-134.55
X58.525Y-137.325
X58.725Y-147.125
X58.775Y-140.4
X58.825Y-143.15
X59.15Y-132.675
X59.15Y-144.925
X59.175Y-135.2
X59.2Y-133.875
X59.225Y-138.0
X59.225Y-141.3
X59.425Y-142.275
X59.8Y-140.35
X59.875Y-137.25
X59.875Y-146.95
X59.9Y-134.475
X59.9Y-135.9
X60.15Y-141.575
X60.575Y-143.475
X60.6Y-135.175
X60.6Y-137.95
X60.625Y-147.725
X60.7Y-132.825
X60.725Y-140.325
X60.775Y-131.65
X61.15Y-141.275
X61.225Y-135.925
X61.25Y-130.375
X61.275Y-134.55
X61.275Y-137.325
X61.725Y-140.15
X61.725Y-142.05
X61.875Y-132.675
X61.9Y-137.975
X61.925Y-143.5
X61.925Y-147.675
X61.95Y-133.85
X61.95Y-136.65
X62.05Y-140.975
X62.625Y-131.725
X62.625Y-141.575
X62.65Y-134.5
X62.65Y-137.225
X62.65Y-142.8
X62.65Y-146.975
X62.65Y-148.3
X62.675Y-138.675
X62.7Y-140.0
X63.325Y-135.2
X63.325Y-146.25
X63.35Y-143.475
X63.35Y-147.7
X63.4Y-137.925
X63.525Y-140.225
X63.6Y-141.225
X63.975Y-144.225
X64.0Y-133.15
X64.0Y-135.925
X64.0Y-146.95
X64.025Y-142.825
X64.05Y-134.55
X64.05Y-137.3
X64.05Y-145.6
X64.1Y-131.85
X64.55Y-141.475
X64.6Y-140.425
X64.7Y-133.85
X64.7Y-135.225
X64.7Y-136.625
X64.7Y-137.975
X64.7Y-146.275
X64.725Y-143.5
X64.725Y-144.925
X64.9Y-148.125
X65.375Y-134.5
X65.4Y-137.25
X65.4Y-144.175
X65.4Y-145.55
X65.425Y-131.7
X65.475Y-140.875
X65.5Y-139.95
X65.5Y-147.4
X65.55Y-141.8
X66.075Y-146.525
X66.125Y-132.4
X66.125Y-137.925
X66.2Y-142.6
X66.45Y-141.15
X66.475Y-140.1
X66.475Y-145.575
X66.5Y-143.575
X66.5Y-144.575
X66.75Y-135.925
X66.75Y-138.675
X66.8Y-134.55
X66.825Y-137.275
X67.15Y-142.8
X67.2Y-140.8
X67.225Y-139.65
X67.25Y-141.825
X67.375Y-144.8
X67.45Y-135.2
X67.45Y-137.95
X67.475Y-136.625
X67.475Y-147.675
X67.875Y-143.9
X67.925Y-140.275
X68.0Y-142.975
X68.15Y-137.25
X68.15Y-141.175
X68.175Y-145.55
X68.375Y-142.1
X68.875Y-137.95
X68.875Y-146.2
X69.5Y-138.675
X69.5Y-146.975
X69.525Y-141.425
X69.525Y-144.225
X69.55Y-145.575
X69.575Y-140.075
X69.575Y-142.825
X70.2Y-135.175
X70.2Y-143.475
X70.225Y-131.1
X70.225Y-133.85
X70.225Y-140.725
X70.25Y-142.175
X70.9Y-140.025
X70.925Y-137.2
X70.925Y-142.775
X70.925Y-145.525
X72.275Y-130.425
X72.275Y-133.15
X72.275Y-135.9
X72.275Y-138.65
X72.325Y-131.8
X72.325Y-134.55
X72.35Y-137.325
X73.675Y-131.725
X73.675Y-134.45
X73.675Y-137.275
X73.675Y-140.0
X73.7Y-142.775
X73.725Y-145.525
X74.4Y-143.475
X75.0Y-130.4
X75.025Y-133.15
X75.025Y-138.675
X75.025Y-141.425
X75.025Y-144.2
X75.05Y-135.9
X75.05Y-146.95
X75.075Y-140.05
X75.1Y-131.775
X75.1Y-134.55
X75.1Y-142.825
X75.1Y-145.6
X75.125Y-137.3
X75.75Y-142.125
X76.45Y-134.475
X76.45Y-137.275
X76.45Y-140.0
X76.45Y-145.525
X76.475Y-142.775
X77.175Y-140.725
X77.775Y-138.7
X77.8Y-133.125
X77.8Y-135.9
X77.8Y-141.45
X77.8Y-144.2
X77.85Y-137.275
X77.85Y-145.575
X77.875Y-131.775
X77.875Y-142.8
X78.55Y-142.125
X78.875Y-138.925
X79.375Y-138.025
X79.6Y-136.95
X79.6Y-139.875
X79.75Y-135.875
X79.75Y-144.8
X79.8Y-133.8
X79.8Y-134.875
X79.8Y-143.025
X79.85Y-142.0
X79.9Y-140.875
X80.05Y-138.925
X80.375Y-143.95
X80.6Y-136.95
X80.7Y-138.075
X80.7Y-141.375
X80.75Y-139.8
X80.775Y-134.85
X80.875Y-143.025
X81.125Y-135.8
X81.35Y-142.05
X81.525Y-136.775
X81.625Y-141.0
X81.725Y-137.725
X81.75Y-139.9
X81.8Y-138.8
M30
